G04 #@! TF.FileFunction,Legend,Top*
%FSLAX46Y46*%
G04 Gerber Fmt 4.6, Leading zero omitted, Abs format (unit mm)*
G04 Created by KiCad (PCBNEW 4.0.7-e2-6376~58~ubuntu16.04.1) date Fri Dec 29 21:47:46 2017*
%MOMM*%
%LPD*%
G01*
G04 APERTURE LIST*
%ADD10C,0.100000*%
%ADD11C,0.175000*%
%ADD12C,0.250000*%
%ADD13C,0.125000*%
%ADD14C,0.120000*%
%ADD15C,0.150000*%
%ADD16C,0.105000*%
%ADD17C,0.075000*%
G04 APERTURE END LIST*
D10*
D11*
X141816666Y-69316667D02*
X141416666Y-69316667D01*
X141616666Y-69316667D02*
X141616666Y-68616667D01*
X141550000Y-68716667D01*
X141483333Y-68783333D01*
X141416666Y-68816667D01*
X142083333Y-68683333D02*
X142116667Y-68650000D01*
X142183333Y-68616667D01*
X142350000Y-68616667D01*
X142416667Y-68650000D01*
X142450000Y-68683333D01*
X142483333Y-68750000D01*
X142483333Y-68816667D01*
X142450000Y-68916667D01*
X142050000Y-69316667D01*
X142483333Y-69316667D01*
X142683334Y-68616667D02*
X142916667Y-69316667D01*
X143150000Y-68616667D01*
X119316667Y-84406249D02*
X118983333Y-84597917D01*
X119316667Y-84806249D02*
X118616667Y-84718749D01*
X118616667Y-84452083D01*
X118650000Y-84389583D01*
X118683333Y-84360417D01*
X118750000Y-84335416D01*
X118850000Y-84347916D01*
X118916667Y-84389583D01*
X118950000Y-84427083D01*
X118983333Y-84497917D01*
X118983333Y-84764583D01*
X119283333Y-83835417D02*
X119316667Y-83906249D01*
X119316667Y-84039583D01*
X119283333Y-84102083D01*
X119216667Y-84127083D01*
X118950000Y-84093750D01*
X118883333Y-84052083D01*
X118850000Y-83981250D01*
X118850000Y-83847916D01*
X118883333Y-83785417D01*
X118950000Y-83760416D01*
X119016667Y-83768749D01*
X119083333Y-84110417D01*
X119283333Y-83535417D02*
X119316667Y-83472916D01*
X119316667Y-83339583D01*
X119283333Y-83268750D01*
X119216667Y-83227083D01*
X119183333Y-83222917D01*
X119116667Y-83247916D01*
X119083333Y-83310417D01*
X119083333Y-83410417D01*
X119050000Y-83472916D01*
X118983333Y-83497917D01*
X118950000Y-83493750D01*
X118883333Y-83452083D01*
X118850000Y-83381250D01*
X118850000Y-83281250D01*
X118883333Y-83218750D01*
X119283333Y-82668750D02*
X119316667Y-82739582D01*
X119316667Y-82872916D01*
X119283333Y-82935416D01*
X119216667Y-82960416D01*
X118950000Y-82927083D01*
X118883333Y-82885416D01*
X118850000Y-82814583D01*
X118850000Y-82681249D01*
X118883333Y-82618750D01*
X118950000Y-82593749D01*
X119016667Y-82602082D01*
X119083333Y-82943750D01*
X118850000Y-82381249D02*
X118850000Y-82114583D01*
X118616667Y-82252082D02*
X119216667Y-82327082D01*
X119283333Y-82302083D01*
X119316667Y-82239582D01*
X119316667Y-82172916D01*
D12*
X98619048Y-48821429D02*
X99380953Y-48821429D01*
X99000001Y-49202381D02*
X99000001Y-48440476D01*
X100619048Y-48821429D02*
X101380953Y-48821429D01*
D13*
X163366667Y-73616667D02*
X163033334Y-73616667D01*
X163000000Y-73950000D01*
X163033334Y-73916667D01*
X163100000Y-73883333D01*
X163266667Y-73883333D01*
X163333334Y-73916667D01*
X163366667Y-73950000D01*
X163400000Y-74016667D01*
X163400000Y-74183333D01*
X163366667Y-74250000D01*
X163333334Y-74283333D01*
X163266667Y-74316667D01*
X163100000Y-74316667D01*
X163033334Y-74283333D01*
X163000000Y-74250000D01*
X163600001Y-73616667D02*
X163833334Y-74316667D01*
X164066667Y-73616667D01*
D11*
X162633333Y-86116667D02*
X163066666Y-86116667D01*
X162833333Y-86383333D01*
X162933333Y-86383333D01*
X163000000Y-86416667D01*
X163033333Y-86450000D01*
X163066666Y-86516667D01*
X163066666Y-86683333D01*
X163033333Y-86750000D01*
X163000000Y-86783333D01*
X162933333Y-86816667D01*
X162733333Y-86816667D01*
X162666666Y-86783333D01*
X162633333Y-86750000D01*
X163266667Y-86116667D02*
X163500000Y-86816667D01*
X163733333Y-86116667D01*
X163900000Y-86116667D02*
X164333333Y-86116667D01*
X164100000Y-86383333D01*
X164200000Y-86383333D01*
X164266667Y-86416667D01*
X164300000Y-86450000D01*
X164333333Y-86516667D01*
X164333333Y-86683333D01*
X164300000Y-86750000D01*
X164266667Y-86783333D01*
X164200000Y-86816667D01*
X164000000Y-86816667D01*
X163933333Y-86783333D01*
X163900000Y-86750000D01*
X134050000Y-86150000D02*
X133983334Y-86116667D01*
X133883334Y-86116667D01*
X133783334Y-86150000D01*
X133716667Y-86216667D01*
X133683334Y-86283333D01*
X133650000Y-86416667D01*
X133650000Y-86516667D01*
X133683334Y-86650000D01*
X133716667Y-86716667D01*
X133783334Y-86783333D01*
X133883334Y-86816667D01*
X133950000Y-86816667D01*
X134050000Y-86783333D01*
X134083334Y-86750000D01*
X134083334Y-86516667D01*
X133950000Y-86516667D01*
X134383334Y-86350000D02*
X134383334Y-86816667D01*
X134383334Y-86416667D02*
X134416667Y-86383333D01*
X134483334Y-86350000D01*
X134583334Y-86350000D01*
X134650000Y-86383333D01*
X134683334Y-86450000D01*
X134683334Y-86816667D01*
X135316667Y-86816667D02*
X135316667Y-86116667D01*
X135316667Y-86783333D02*
X135250000Y-86816667D01*
X135116667Y-86816667D01*
X135050000Y-86783333D01*
X135016667Y-86750000D01*
X134983333Y-86683333D01*
X134983333Y-86483333D01*
X135016667Y-86416667D01*
X135050000Y-86383333D01*
X135116667Y-86350000D01*
X135250000Y-86350000D01*
X135316667Y-86383333D01*
D10*
X93004763Y-100280952D02*
X93252382Y-100280952D01*
X93119049Y-100433333D01*
X93176191Y-100433333D01*
X93214287Y-100452381D01*
X93233334Y-100471429D01*
X93252382Y-100509524D01*
X93252382Y-100604762D01*
X93233334Y-100642857D01*
X93214287Y-100661905D01*
X93176191Y-100680952D01*
X93061906Y-100680952D01*
X93023810Y-100661905D01*
X93004763Y-100642857D01*
X93366667Y-100280952D02*
X93500001Y-100680952D01*
X93633334Y-100280952D01*
X93728572Y-100280952D02*
X93976191Y-100280952D01*
X93842858Y-100433333D01*
X93900000Y-100433333D01*
X93938096Y-100452381D01*
X93957143Y-100471429D01*
X93976191Y-100509524D01*
X93976191Y-100604762D01*
X93957143Y-100642857D01*
X93938096Y-100661905D01*
X93900000Y-100680952D01*
X93785715Y-100680952D01*
X93747619Y-100661905D01*
X93728572Y-100642857D01*
X91888095Y-100661905D02*
X91926191Y-100680952D01*
X92002381Y-100680952D01*
X92040476Y-100661905D01*
X92059524Y-100623810D01*
X92059524Y-100604762D01*
X92040476Y-100566667D01*
X92002381Y-100547619D01*
X91945238Y-100547619D01*
X91907143Y-100528571D01*
X91888095Y-100490476D01*
X91888095Y-100471429D01*
X91907143Y-100433333D01*
X91945238Y-100414286D01*
X92002381Y-100414286D01*
X92040476Y-100433333D01*
X92402382Y-100661905D02*
X92364286Y-100680952D01*
X92288096Y-100680952D01*
X92250001Y-100661905D01*
X92230953Y-100642857D01*
X92211905Y-100604762D01*
X92211905Y-100490476D01*
X92230953Y-100452381D01*
X92250001Y-100433333D01*
X92288096Y-100414286D01*
X92364286Y-100414286D01*
X92402382Y-100433333D01*
X92630953Y-100680952D02*
X92592858Y-100661905D01*
X92573810Y-100623810D01*
X92573810Y-100280952D01*
X90552380Y-100661905D02*
X90590476Y-100680952D01*
X90666666Y-100680952D01*
X90704761Y-100661905D01*
X90723809Y-100623810D01*
X90723809Y-100604762D01*
X90704761Y-100566667D01*
X90666666Y-100547619D01*
X90609523Y-100547619D01*
X90571428Y-100528571D01*
X90552380Y-100490476D01*
X90552380Y-100471429D01*
X90571428Y-100433333D01*
X90609523Y-100414286D01*
X90666666Y-100414286D01*
X90704761Y-100433333D01*
X91066667Y-100680952D02*
X91066667Y-100280952D01*
X91066667Y-100661905D02*
X91028571Y-100680952D01*
X90952381Y-100680952D01*
X90914286Y-100661905D01*
X90895238Y-100642857D01*
X90876190Y-100604762D01*
X90876190Y-100490476D01*
X90895238Y-100452381D01*
X90914286Y-100433333D01*
X90952381Y-100414286D01*
X91028571Y-100414286D01*
X91066667Y-100433333D01*
X91428572Y-100680952D02*
X91428572Y-100471429D01*
X91409524Y-100433333D01*
X91371429Y-100414286D01*
X91295238Y-100414286D01*
X91257143Y-100433333D01*
X91428572Y-100661905D02*
X91390476Y-100680952D01*
X91295238Y-100680952D01*
X91257143Y-100661905D01*
X91238095Y-100623810D01*
X91238095Y-100585714D01*
X91257143Y-100547619D01*
X91295238Y-100528571D01*
X91390476Y-100528571D01*
X91428572Y-100509524D01*
X89492857Y-100300000D02*
X89454762Y-100280952D01*
X89397619Y-100280952D01*
X89340476Y-100300000D01*
X89302381Y-100338095D01*
X89283333Y-100376190D01*
X89264285Y-100452381D01*
X89264285Y-100509524D01*
X89283333Y-100585714D01*
X89302381Y-100623810D01*
X89340476Y-100661905D01*
X89397619Y-100680952D01*
X89435714Y-100680952D01*
X89492857Y-100661905D01*
X89511905Y-100642857D01*
X89511905Y-100509524D01*
X89435714Y-100509524D01*
X89683333Y-100414286D02*
X89683333Y-100680952D01*
X89683333Y-100452381D02*
X89702381Y-100433333D01*
X89740476Y-100414286D01*
X89797619Y-100414286D01*
X89835714Y-100433333D01*
X89854762Y-100471429D01*
X89854762Y-100680952D01*
X90216667Y-100680952D02*
X90216667Y-100280952D01*
X90216667Y-100661905D02*
X90178571Y-100680952D01*
X90102381Y-100680952D01*
X90064286Y-100661905D01*
X90045238Y-100642857D01*
X90026190Y-100604762D01*
X90026190Y-100490476D01*
X90045238Y-100452381D01*
X90064286Y-100433333D01*
X90102381Y-100414286D01*
X90178571Y-100414286D01*
X90216667Y-100433333D01*
X88014286Y-100680952D02*
X88014286Y-100280952D01*
X88185714Y-100319048D02*
X88204762Y-100300000D01*
X88242857Y-100280952D01*
X88338095Y-100280952D01*
X88376191Y-100300000D01*
X88395238Y-100319048D01*
X88414286Y-100357143D01*
X88414286Y-100395238D01*
X88395238Y-100452381D01*
X88166667Y-100680952D01*
X88414286Y-100680952D01*
X88814286Y-100642857D02*
X88795238Y-100661905D01*
X88738095Y-100680952D01*
X88700000Y-100680952D01*
X88642857Y-100661905D01*
X88604762Y-100623810D01*
X88585714Y-100585714D01*
X88566666Y-100509524D01*
X88566666Y-100452381D01*
X88585714Y-100376190D01*
X88604762Y-100338095D01*
X88642857Y-100300000D01*
X88700000Y-100280952D01*
X88738095Y-100280952D01*
X88795238Y-100300000D01*
X88814286Y-100319048D01*
X88985714Y-100642857D02*
X89004762Y-100661905D01*
X88985714Y-100680952D01*
X88966666Y-100661905D01*
X88985714Y-100642857D01*
X88985714Y-100680952D01*
X88985714Y-100433333D02*
X89004762Y-100452381D01*
X88985714Y-100471429D01*
X88966666Y-100452381D01*
X88985714Y-100433333D01*
X88985714Y-100471429D01*
X93614286Y-99180952D02*
X93385714Y-99180952D01*
X93500000Y-99180952D02*
X93500000Y-98780952D01*
X93461905Y-98838095D01*
X93423810Y-98876190D01*
X93385714Y-98895238D01*
X92135714Y-98819048D02*
X92154762Y-98800000D01*
X92192857Y-98780952D01*
X92288095Y-98780952D01*
X92326191Y-98800000D01*
X92345238Y-98819048D01*
X92364286Y-98857143D01*
X92364286Y-98895238D01*
X92345238Y-98952381D01*
X92116667Y-99180952D01*
X92364286Y-99180952D01*
X90866667Y-98780952D02*
X91114286Y-98780952D01*
X90980953Y-98933333D01*
X91038095Y-98933333D01*
X91076191Y-98952381D01*
X91095238Y-98971429D01*
X91114286Y-99009524D01*
X91114286Y-99104762D01*
X91095238Y-99142857D01*
X91076191Y-99161905D01*
X91038095Y-99180952D01*
X90923810Y-99180952D01*
X90885714Y-99161905D01*
X90866667Y-99142857D01*
X89826191Y-98914286D02*
X89826191Y-99180952D01*
X89730953Y-98761905D02*
X89635714Y-99047619D01*
X89883334Y-99047619D01*
X93004763Y-99530952D02*
X93252382Y-99530952D01*
X93119049Y-99683333D01*
X93176191Y-99683333D01*
X93214287Y-99702381D01*
X93233334Y-99721429D01*
X93252382Y-99759524D01*
X93252382Y-99854762D01*
X93233334Y-99892857D01*
X93214287Y-99911905D01*
X93176191Y-99930952D01*
X93061906Y-99930952D01*
X93023810Y-99911905D01*
X93004763Y-99892857D01*
X93366667Y-99530952D02*
X93500001Y-99930952D01*
X93633334Y-99530952D01*
X93728572Y-99530952D02*
X93976191Y-99530952D01*
X93842858Y-99683333D01*
X93900000Y-99683333D01*
X93938096Y-99702381D01*
X93957143Y-99721429D01*
X93976191Y-99759524D01*
X93976191Y-99854762D01*
X93957143Y-99892857D01*
X93938096Y-99911905D01*
X93900000Y-99930952D01*
X93785715Y-99930952D01*
X93747619Y-99911905D01*
X93728572Y-99892857D01*
X91973809Y-99530952D02*
X92202381Y-99530952D01*
X92088095Y-99930952D02*
X92088095Y-99530952D01*
X92297619Y-99930952D02*
X92507143Y-99664286D01*
X92297619Y-99664286D02*
X92507143Y-99930952D01*
X90961905Y-99930952D02*
X90828571Y-99740476D01*
X90733333Y-99930952D02*
X90733333Y-99530952D01*
X90885714Y-99530952D01*
X90923809Y-99550000D01*
X90942857Y-99569048D01*
X90961905Y-99607143D01*
X90961905Y-99664286D01*
X90942857Y-99702381D01*
X90923809Y-99721429D01*
X90885714Y-99740476D01*
X90733333Y-99740476D01*
X91095238Y-99930952D02*
X91304762Y-99664286D01*
X91095238Y-99664286D02*
X91304762Y-99930952D01*
X89492857Y-99550000D02*
X89454762Y-99530952D01*
X89397619Y-99530952D01*
X89340476Y-99550000D01*
X89302381Y-99588095D01*
X89283333Y-99626190D01*
X89264285Y-99702381D01*
X89264285Y-99759524D01*
X89283333Y-99835714D01*
X89302381Y-99873810D01*
X89340476Y-99911905D01*
X89397619Y-99930952D01*
X89435714Y-99930952D01*
X89492857Y-99911905D01*
X89511905Y-99892857D01*
X89511905Y-99759524D01*
X89435714Y-99759524D01*
X89683333Y-99664286D02*
X89683333Y-99930952D01*
X89683333Y-99702381D02*
X89702381Y-99683333D01*
X89740476Y-99664286D01*
X89797619Y-99664286D01*
X89835714Y-99683333D01*
X89854762Y-99721429D01*
X89854762Y-99930952D01*
X90216667Y-99930952D02*
X90216667Y-99530952D01*
X90216667Y-99911905D02*
X90178571Y-99930952D01*
X90102381Y-99930952D01*
X90064286Y-99911905D01*
X90045238Y-99892857D01*
X90026190Y-99854762D01*
X90026190Y-99740476D01*
X90045238Y-99702381D01*
X90064286Y-99683333D01*
X90102381Y-99664286D01*
X90178571Y-99664286D01*
X90216667Y-99683333D01*
X87719048Y-99530952D02*
X87719048Y-99854762D01*
X87738096Y-99892857D01*
X87757143Y-99911905D01*
X87795239Y-99930952D01*
X87871429Y-99930952D01*
X87909524Y-99911905D01*
X87928572Y-99892857D01*
X87947620Y-99854762D01*
X87947620Y-99530952D01*
X88309525Y-99930952D02*
X88309525Y-99721429D01*
X88290477Y-99683333D01*
X88252382Y-99664286D01*
X88176191Y-99664286D01*
X88138096Y-99683333D01*
X88309525Y-99911905D02*
X88271429Y-99930952D01*
X88176191Y-99930952D01*
X88138096Y-99911905D01*
X88119048Y-99873810D01*
X88119048Y-99835714D01*
X88138096Y-99797619D01*
X88176191Y-99778571D01*
X88271429Y-99778571D01*
X88309525Y-99759524D01*
X88500001Y-99930952D02*
X88500001Y-99664286D01*
X88500001Y-99740476D02*
X88519049Y-99702381D01*
X88538096Y-99683333D01*
X88576192Y-99664286D01*
X88614287Y-99664286D01*
X88690477Y-99664286D02*
X88842858Y-99664286D01*
X88747620Y-99530952D02*
X88747620Y-99873810D01*
X88766668Y-99911905D01*
X88804763Y-99930952D01*
X88842858Y-99930952D01*
X88976191Y-99892857D02*
X88995239Y-99911905D01*
X88976191Y-99930952D01*
X88957143Y-99911905D01*
X88976191Y-99892857D01*
X88976191Y-99930952D01*
X88976191Y-99683333D02*
X88995239Y-99702381D01*
X88976191Y-99721429D01*
X88957143Y-99702381D01*
X88976191Y-99683333D01*
X88976191Y-99721429D01*
D13*
X104476190Y-99516368D02*
X103976190Y-99453868D01*
X104023810Y-99245535D02*
X104000000Y-99218749D01*
X103976190Y-99168154D01*
X103976190Y-99049107D01*
X104000000Y-99004464D01*
X104023810Y-98983630D01*
X104071429Y-98965774D01*
X104119048Y-98971726D01*
X104190476Y-99004463D01*
X104476190Y-99325892D01*
X104476190Y-99016369D01*
X104428571Y-98510416D02*
X104452381Y-98537203D01*
X104476190Y-98611607D01*
X104476190Y-98659226D01*
X104452381Y-98727679D01*
X104404762Y-98769345D01*
X104357143Y-98787202D01*
X104261905Y-98799107D01*
X104190476Y-98790178D01*
X104095238Y-98754464D01*
X104047619Y-98724702D01*
X104000000Y-98671131D01*
X103976190Y-98596726D01*
X103976190Y-98549107D01*
X104000000Y-98480655D01*
X104023810Y-98459821D01*
X102119048Y-92976190D02*
X102404762Y-92976190D01*
X102261905Y-93476190D02*
X102261905Y-92976190D01*
X102523810Y-92976190D02*
X102857143Y-93476190D01*
X102857143Y-92976190D02*
X102523810Y-93476190D01*
X95916667Y-93476190D02*
X95750000Y-93238095D01*
X95630953Y-93476190D02*
X95630953Y-92976190D01*
X95821429Y-92976190D01*
X95869048Y-93000000D01*
X95892857Y-93023810D01*
X95916667Y-93071429D01*
X95916667Y-93142857D01*
X95892857Y-93190476D01*
X95869048Y-93214286D01*
X95821429Y-93238095D01*
X95630953Y-93238095D01*
X96083334Y-92976190D02*
X96416667Y-93476190D01*
X96416667Y-92976190D02*
X96083334Y-93476190D01*
X94476190Y-99632440D02*
X94880952Y-99683035D01*
X94928571Y-99665178D01*
X94952381Y-99644345D01*
X94976190Y-99599702D01*
X94976190Y-99504464D01*
X94952381Y-99453869D01*
X94928571Y-99427083D01*
X94880952Y-99397321D01*
X94476190Y-99346726D01*
X94976190Y-98956845D02*
X94714286Y-98924107D01*
X94666667Y-98941963D01*
X94642857Y-98986606D01*
X94642857Y-99081844D01*
X94666667Y-99132439D01*
X94952381Y-98953869D02*
X94976190Y-99004464D01*
X94976190Y-99123511D01*
X94952381Y-99168154D01*
X94904762Y-99186011D01*
X94857143Y-99180059D01*
X94809524Y-99150296D01*
X94785714Y-99099701D01*
X94785714Y-98980654D01*
X94761905Y-98930059D01*
X94976190Y-98718749D02*
X94642857Y-98677082D01*
X94738095Y-98688987D02*
X94690476Y-98659225D01*
X94666667Y-98632439D01*
X94642857Y-98581844D01*
X94642857Y-98534225D01*
X94642857Y-98438987D02*
X94642857Y-98248511D01*
X94476190Y-98346725D02*
X94904762Y-98400296D01*
X94952381Y-98382440D01*
X94976190Y-98337797D01*
X94976190Y-98290178D01*
X88019345Y-97226190D02*
X88081845Y-96726190D01*
X88272321Y-96726190D01*
X88316964Y-96750000D01*
X88337797Y-96773810D01*
X88355654Y-96821429D01*
X88346726Y-96892857D01*
X88316964Y-96940476D01*
X88290178Y-96964286D01*
X88239583Y-96988095D01*
X88049107Y-96988095D01*
X88519345Y-97226190D02*
X88561012Y-96892857D01*
X88549107Y-96988095D02*
X88578869Y-96940476D01*
X88605655Y-96916667D01*
X88656250Y-96892857D01*
X88703869Y-96892857D01*
X88900297Y-97226190D02*
X88855654Y-97202381D01*
X88834822Y-97178571D01*
X88816964Y-97130952D01*
X88834821Y-96988095D01*
X88864584Y-96940476D01*
X88891369Y-96916667D01*
X88941964Y-96892857D01*
X89013393Y-96892857D01*
X89058036Y-96916667D01*
X89078869Y-96940476D01*
X89096726Y-96988095D01*
X89078869Y-97130952D01*
X89049107Y-97178571D01*
X89022321Y-97202381D01*
X88971726Y-97226190D01*
X88900297Y-97226190D01*
X89537202Y-96892857D02*
X89486607Y-97297619D01*
X89456845Y-97345238D01*
X89430059Y-97369048D01*
X89379464Y-97392857D01*
X89308036Y-97392857D01*
X89263393Y-97369048D01*
X89498511Y-97202381D02*
X89447916Y-97226190D01*
X89352678Y-97226190D01*
X89308035Y-97202381D01*
X89287203Y-97178571D01*
X89269345Y-97130952D01*
X89287202Y-96988095D01*
X89316965Y-96940476D01*
X89343750Y-96916667D01*
X89394345Y-96892857D01*
X89489583Y-96892857D01*
X89534226Y-96916667D01*
X89733631Y-97226190D02*
X89775298Y-96892857D01*
X89763393Y-96988095D02*
X89793155Y-96940476D01*
X89819941Y-96916667D01*
X89870536Y-96892857D01*
X89918155Y-96892857D01*
X90257440Y-97226190D02*
X90290178Y-96964286D01*
X90272322Y-96916667D01*
X90227679Y-96892857D01*
X90132441Y-96892857D01*
X90081846Y-96916667D01*
X90260416Y-97202381D02*
X90209821Y-97226190D01*
X90090774Y-97226190D01*
X90046131Y-97202381D01*
X90028274Y-97154762D01*
X90034226Y-97107143D01*
X90063989Y-97059524D01*
X90114584Y-97035714D01*
X90233631Y-97035714D01*
X90284226Y-97011905D01*
X90495536Y-97226190D02*
X90537203Y-96892857D01*
X90531251Y-96940476D02*
X90558036Y-96916667D01*
X90608631Y-96892857D01*
X90680060Y-96892857D01*
X90724703Y-96916667D01*
X90742559Y-96964286D01*
X90709821Y-97226190D01*
X90742559Y-96964286D02*
X90772322Y-96916667D01*
X90822917Y-96892857D01*
X90894345Y-96892857D01*
X90938989Y-96916667D01*
X90956845Y-96964286D01*
X90924107Y-97226190D01*
X93154762Y-95226190D02*
X92988095Y-94988095D01*
X92869048Y-95226190D02*
X92869048Y-94726190D01*
X93059524Y-94726190D01*
X93107143Y-94750000D01*
X93130952Y-94773810D01*
X93154762Y-94821429D01*
X93154762Y-94892857D01*
X93130952Y-94940476D01*
X93107143Y-94964286D01*
X93059524Y-94988095D01*
X92869048Y-94988095D01*
X93369048Y-94964286D02*
X93535714Y-94964286D01*
X93607143Y-95226190D02*
X93369048Y-95226190D01*
X93369048Y-94726190D01*
X93607143Y-94726190D01*
X93797619Y-95202381D02*
X93869048Y-95226190D01*
X93988095Y-95226190D01*
X94035714Y-95202381D01*
X94059524Y-95178571D01*
X94083333Y-95130952D01*
X94083333Y-95083333D01*
X94059524Y-95035714D01*
X94035714Y-95011905D01*
X93988095Y-94988095D01*
X93892857Y-94964286D01*
X93845238Y-94940476D01*
X93821429Y-94916667D01*
X93797619Y-94869048D01*
X93797619Y-94821429D01*
X93821429Y-94773810D01*
X93845238Y-94750000D01*
X93892857Y-94726190D01*
X94011905Y-94726190D01*
X94083333Y-94750000D01*
X94297619Y-94964286D02*
X94464285Y-94964286D01*
X94535714Y-95226190D02*
X94297619Y-95226190D01*
X94297619Y-94726190D01*
X94535714Y-94726190D01*
X94678571Y-94726190D02*
X94964285Y-94726190D01*
X94821428Y-95226190D02*
X94821428Y-94726190D01*
X92821429Y-92726190D02*
X93130952Y-92726190D01*
X92964286Y-92916667D01*
X93035714Y-92916667D01*
X93083333Y-92940476D01*
X93107143Y-92964286D01*
X93130952Y-93011905D01*
X93130952Y-93130952D01*
X93107143Y-93178571D01*
X93083333Y-93202381D01*
X93035714Y-93226190D01*
X92892857Y-93226190D01*
X92845238Y-93202381D01*
X92821429Y-93178571D01*
X93273809Y-92726190D02*
X93440476Y-93226190D01*
X93607142Y-92726190D01*
X93726190Y-92726190D02*
X94035713Y-92726190D01*
X93869047Y-92916667D01*
X93940475Y-92916667D01*
X93988094Y-92940476D01*
X94011904Y-92964286D01*
X94035713Y-93011905D01*
X94035713Y-93130952D01*
X94011904Y-93178571D01*
X93988094Y-93202381D01*
X93940475Y-93226190D01*
X93797618Y-93226190D01*
X93749999Y-93202381D01*
X93726190Y-93178571D01*
X93130952Y-90750000D02*
X93083333Y-90726190D01*
X93011905Y-90726190D01*
X92940476Y-90750000D01*
X92892857Y-90797619D01*
X92869048Y-90845238D01*
X92845238Y-90940476D01*
X92845238Y-91011905D01*
X92869048Y-91107143D01*
X92892857Y-91154762D01*
X92940476Y-91202381D01*
X93011905Y-91226190D01*
X93059524Y-91226190D01*
X93130952Y-91202381D01*
X93154762Y-91178571D01*
X93154762Y-91011905D01*
X93059524Y-91011905D01*
X93369048Y-91226190D02*
X93369048Y-90726190D01*
X93654762Y-91226190D01*
X93654762Y-90726190D01*
X93892858Y-91226190D02*
X93892858Y-90726190D01*
X94011905Y-90726190D01*
X94083334Y-90750000D01*
X94130953Y-90797619D01*
X94154762Y-90845238D01*
X94178572Y-90940476D01*
X94178572Y-91011905D01*
X94154762Y-91107143D01*
X94130953Y-91154762D01*
X94083334Y-91202381D01*
X94011905Y-91226190D01*
X93892858Y-91226190D01*
X92869048Y-89226190D02*
X92869048Y-88726190D01*
X93059524Y-88726190D01*
X93107143Y-88750000D01*
X93130952Y-88773810D01*
X93154762Y-88821429D01*
X93154762Y-88892857D01*
X93130952Y-88940476D01*
X93107143Y-88964286D01*
X93059524Y-88988095D01*
X92869048Y-88988095D01*
X93630952Y-88750000D02*
X93583333Y-88726190D01*
X93511905Y-88726190D01*
X93440476Y-88750000D01*
X93392857Y-88797619D01*
X93369048Y-88845238D01*
X93345238Y-88940476D01*
X93345238Y-89011905D01*
X93369048Y-89107143D01*
X93392857Y-89154762D01*
X93440476Y-89202381D01*
X93511905Y-89226190D01*
X93559524Y-89226190D01*
X93630952Y-89202381D01*
X93654762Y-89178571D01*
X93654762Y-89011905D01*
X93559524Y-89011905D01*
X93869048Y-88964286D02*
X94035714Y-88964286D01*
X94107143Y-89226190D02*
X93869048Y-89226190D01*
X93869048Y-88726190D01*
X94107143Y-88726190D01*
X94321429Y-89226190D02*
X94321429Y-88726190D01*
X94440476Y-88726190D01*
X94511905Y-88750000D01*
X94559524Y-88797619D01*
X94583333Y-88845238D01*
X94607143Y-88940476D01*
X94607143Y-89011905D01*
X94583333Y-89107143D01*
X94559524Y-89154762D01*
X94511905Y-89202381D01*
X94440476Y-89226190D01*
X94321429Y-89226190D01*
X92869048Y-87226190D02*
X92869048Y-86726190D01*
X93059524Y-86726190D01*
X93107143Y-86750000D01*
X93130952Y-86773810D01*
X93154762Y-86821429D01*
X93154762Y-86892857D01*
X93130952Y-86940476D01*
X93107143Y-86964286D01*
X93059524Y-86988095D01*
X92869048Y-86988095D01*
X93630952Y-86750000D02*
X93583333Y-86726190D01*
X93511905Y-86726190D01*
X93440476Y-86750000D01*
X93392857Y-86797619D01*
X93369048Y-86845238D01*
X93345238Y-86940476D01*
X93345238Y-87011905D01*
X93369048Y-87107143D01*
X93392857Y-87154762D01*
X93440476Y-87202381D01*
X93511905Y-87226190D01*
X93559524Y-87226190D01*
X93630952Y-87202381D01*
X93654762Y-87178571D01*
X93654762Y-87011905D01*
X93559524Y-87011905D01*
X93869048Y-86964286D02*
X94035714Y-86964286D01*
X94107143Y-87226190D02*
X93869048Y-87226190D01*
X93869048Y-86726190D01*
X94107143Y-86726190D01*
X94607143Y-87178571D02*
X94583333Y-87202381D01*
X94511905Y-87226190D01*
X94464286Y-87226190D01*
X94392857Y-87202381D01*
X94345238Y-87154762D01*
X94321429Y-87107143D01*
X94297619Y-87011905D01*
X94297619Y-86940476D01*
X94321429Y-86845238D01*
X94345238Y-86797619D01*
X94392857Y-86750000D01*
X94464286Y-86726190D01*
X94511905Y-86726190D01*
X94583333Y-86750000D01*
X94607143Y-86773810D01*
D14*
X94450000Y-65150000D02*
X94450000Y-60900000D01*
X96550000Y-65150000D02*
X96550000Y-60900000D01*
X94450000Y-65150000D02*
X96550000Y-65150000D01*
D15*
X117125000Y-82125000D02*
X116875000Y-82125000D01*
X117125000Y-89875000D02*
X116780000Y-89875000D01*
X98875000Y-89875000D02*
X99220000Y-89875000D01*
X98875000Y-82125000D02*
X99220000Y-82125000D01*
X117125000Y-82125000D02*
X117125000Y-89875000D01*
X98875000Y-82125000D02*
X98875000Y-89875000D01*
X116875000Y-82125000D02*
X116875000Y-80300000D01*
D14*
X116400000Y-99350000D02*
X116400000Y-98650000D01*
X117600000Y-98650000D02*
X117600000Y-99350000D01*
X99650000Y-75400000D02*
X100350000Y-75400000D01*
X100350000Y-76600000D02*
X99650000Y-76600000D01*
X114400000Y-99350000D02*
X114400000Y-98650000D01*
X115600000Y-98650000D02*
X115600000Y-99350000D01*
X99650000Y-73400000D02*
X100350000Y-73400000D01*
X100350000Y-74600000D02*
X99650000Y-74600000D01*
X127550000Y-95350000D02*
X127550000Y-99600000D01*
X125450000Y-95350000D02*
X125450000Y-99600000D01*
X127550000Y-95350000D02*
X125450000Y-95350000D01*
X104650000Y-60400000D02*
X105350000Y-60400000D01*
X105350000Y-61600000D02*
X104650000Y-61600000D01*
X108350000Y-92950000D02*
X112600000Y-92950000D01*
X108350000Y-95050000D02*
X112600000Y-95050000D01*
X108350000Y-92950000D02*
X108350000Y-95050000D01*
X103600000Y-74600000D02*
X102900000Y-74600000D01*
X102900000Y-73400000D02*
X103600000Y-73400000D01*
X109350000Y-61600000D02*
X108650000Y-61600000D01*
X108650000Y-60400000D02*
X109350000Y-60400000D01*
X130650000Y-64400000D02*
X131350000Y-64400000D01*
X131350000Y-65600000D02*
X130650000Y-65600000D01*
X135350000Y-65600000D02*
X134650000Y-65600000D01*
X134650000Y-64400000D02*
X135350000Y-64400000D01*
X130350000Y-72600000D02*
X129650000Y-72600000D01*
X129650000Y-71400000D02*
X130350000Y-71400000D01*
X95650000Y-73400000D02*
X96350000Y-73400000D01*
X96350000Y-74600000D02*
X95650000Y-74600000D01*
X152150000Y-64900000D02*
X152850000Y-64900000D01*
X152850000Y-66100000D02*
X152150000Y-66100000D01*
X152150000Y-62900000D02*
X152850000Y-62900000D01*
X152850000Y-64100000D02*
X152150000Y-64100000D01*
X156550000Y-73350000D02*
X156550000Y-77600000D01*
X154450000Y-73350000D02*
X154450000Y-77600000D01*
X156550000Y-73350000D02*
X154450000Y-73350000D01*
X147150000Y-83550000D02*
X142900000Y-83550000D01*
X147150000Y-81450000D02*
X142900000Y-81450000D01*
X147150000Y-83550000D02*
X147150000Y-81450000D01*
X156550000Y-91350000D02*
X156550000Y-95600000D01*
X154450000Y-91350000D02*
X154450000Y-95600000D01*
X156550000Y-91350000D02*
X154450000Y-91350000D01*
X150350000Y-81450000D02*
X154600000Y-81450000D01*
X150350000Y-83550000D02*
X154600000Y-83550000D01*
X150350000Y-81450000D02*
X150350000Y-83550000D01*
X162000000Y-59400000D02*
X170800000Y-59400000D01*
X170800000Y-59400000D02*
X170800000Y-68600000D01*
X156100000Y-62100000D02*
X156100000Y-59400000D01*
X156100000Y-59400000D02*
X158000000Y-59400000D01*
X170800000Y-68600000D02*
X156100000Y-68600000D01*
X156100000Y-68600000D02*
X156100000Y-66000000D01*
X126300000Y-92500000D02*
X126300000Y-91500000D01*
X126300000Y-91500000D02*
X124200000Y-91500000D01*
X126300000Y-92500000D02*
X124200000Y-92500000D01*
X126300000Y-90500000D02*
X126300000Y-89500000D01*
X126300000Y-89500000D02*
X124200000Y-89500000D01*
X126300000Y-90500000D02*
X124200000Y-90500000D01*
X115570000Y-46420000D02*
X115570000Y-46090000D01*
X115570000Y-46090000D02*
X124590000Y-46090000D01*
X124590000Y-46090000D02*
X124590000Y-46420000D01*
X115570000Y-49580000D02*
X115570000Y-49910000D01*
X115570000Y-49910000D02*
X124590000Y-49910000D01*
X124590000Y-49910000D02*
X124590000Y-49580000D01*
X116965000Y-46090000D02*
X116965000Y-49910000D01*
X102000000Y-96300000D02*
X103000000Y-96300000D01*
X103000000Y-96300000D02*
X103000000Y-94200000D01*
X102000000Y-96300000D02*
X102000000Y-94200000D01*
X95500000Y-96300000D02*
X96500000Y-96300000D01*
X96500000Y-96300000D02*
X96500000Y-94200000D01*
X95500000Y-96300000D02*
X95500000Y-94200000D01*
X126300000Y-88500000D02*
X126300000Y-87500000D01*
X126300000Y-87500000D02*
X124200000Y-87500000D01*
X126300000Y-88500000D02*
X124200000Y-88500000D01*
X146000000Y-48500000D02*
X146000000Y-46000000D01*
X146000000Y-56000000D02*
X146000000Y-53500000D01*
X158000000Y-56000000D02*
X158000000Y-53500000D01*
X158000000Y-46000000D02*
X158000000Y-48500000D01*
X147500000Y-51000000D02*
X156500000Y-51000000D01*
X147500000Y-48500000D02*
X147500000Y-53500000D01*
X156500000Y-48500000D02*
X156500000Y-53500000D01*
X162000000Y-49100000D02*
X162000000Y-48500000D01*
X142000000Y-52900000D02*
X142000000Y-53500000D01*
X142000000Y-53500000D02*
X162000000Y-53500000D01*
X162000000Y-53500000D02*
X162000000Y-52900000D01*
X162000000Y-48500000D02*
X142000000Y-48500000D01*
X142000000Y-48500000D02*
X142000000Y-49100000D01*
X164000000Y-49100000D02*
X164000000Y-46000000D01*
X140000000Y-52900000D02*
X140000000Y-56000000D01*
X140000000Y-56000000D02*
X164000000Y-56000000D01*
X164000000Y-56000000D02*
X164000000Y-52900000D01*
X164000000Y-46000000D02*
X140000000Y-46000000D01*
X140000000Y-46000000D02*
X140000000Y-49100000D01*
D15*
X118222000Y-51238000D02*
X118222000Y-52762000D01*
X121778000Y-51238000D02*
X121778000Y-52762000D01*
X111491000Y-58350000D02*
X111999000Y-58350000D01*
X137526000Y-45650000D02*
X132065000Y-48444000D01*
X132065000Y-48444000D02*
X132700000Y-45650000D01*
X109967000Y-49333000D02*
X107300000Y-45650000D01*
X107300000Y-45650000D02*
X107808000Y-48444000D01*
X107808000Y-48444000D02*
X102474000Y-45650000D01*
X109840000Y-54667000D02*
X107300000Y-58350000D01*
X107300000Y-58350000D02*
X107808000Y-55683000D01*
X107808000Y-55683000D02*
X102474000Y-58350000D01*
X104760000Y-54540000D02*
X102474000Y-58350000D01*
X104760000Y-49460000D02*
X102474000Y-45650000D01*
X128001000Y-45650000D02*
X128382000Y-45650000D01*
X128001000Y-58350000D02*
X128509000Y-58350000D01*
X130033000Y-54667000D02*
X132700000Y-58350000D01*
X132700000Y-58350000D02*
X132065000Y-55556000D01*
X132065000Y-55556000D02*
X137526000Y-58350000D01*
X135240000Y-54413000D02*
X137526000Y-55302000D01*
X137526000Y-55302000D02*
X136002000Y-53524000D01*
X137526000Y-58350000D02*
X135240000Y-54413000D01*
X135240000Y-49460000D02*
X137399000Y-48698000D01*
X137399000Y-48698000D02*
X135875000Y-50222000D01*
X137526000Y-45650000D02*
X135240000Y-49460000D01*
X130160000Y-49333000D02*
X132700000Y-45650000D01*
X128509000Y-58350000D02*
X130033000Y-54667000D01*
X128509000Y-45650000D02*
X130160000Y-49333000D01*
X111491000Y-58350000D02*
X109840000Y-54540000D01*
X111999000Y-45650000D02*
X111491000Y-45650000D01*
X111491000Y-45650000D02*
X109967000Y-49333000D01*
X102474000Y-55302000D02*
X104252000Y-53905000D01*
X102347000Y-48698000D02*
X104125000Y-50222000D01*
X102474000Y-55302000D02*
X104760000Y-54540000D01*
X102474000Y-48698000D02*
X104760000Y-49460000D01*
X120000000Y-52762000D02*
X111999000Y-52762000D01*
X111999000Y-52762000D02*
X111999000Y-58350000D01*
X120000000Y-52762000D02*
X128001000Y-52762000D01*
X128001000Y-52762000D02*
X128001000Y-58350000D01*
X120000000Y-51238000D02*
X111999000Y-51238000D01*
X111999000Y-51238000D02*
X111999000Y-45650000D01*
X120000000Y-51238000D02*
X128001000Y-51238000D01*
X128001000Y-51238000D02*
X128001000Y-45650000D01*
X147222000Y-79238000D02*
X147222000Y-80762000D01*
X150778000Y-79238000D02*
X150778000Y-80762000D01*
X140491000Y-86350000D02*
X140999000Y-86350000D01*
X166526000Y-73650000D02*
X161065000Y-76444000D01*
X161065000Y-76444000D02*
X161700000Y-73650000D01*
X138967000Y-77333000D02*
X136300000Y-73650000D01*
X136300000Y-73650000D02*
X136808000Y-76444000D01*
X136808000Y-76444000D02*
X131474000Y-73650000D01*
X138840000Y-82667000D02*
X136300000Y-86350000D01*
X136300000Y-86350000D02*
X136808000Y-83683000D01*
X136808000Y-83683000D02*
X131474000Y-86350000D01*
X133760000Y-82540000D02*
X131474000Y-86350000D01*
X133760000Y-77460000D02*
X131474000Y-73650000D01*
X157001000Y-73650000D02*
X157382000Y-73650000D01*
X157001000Y-86350000D02*
X157509000Y-86350000D01*
X159033000Y-82667000D02*
X161700000Y-86350000D01*
X161700000Y-86350000D02*
X161065000Y-83556000D01*
X161065000Y-83556000D02*
X166526000Y-86350000D01*
X164240000Y-82413000D02*
X166526000Y-83302000D01*
X166526000Y-83302000D02*
X165002000Y-81524000D01*
X166526000Y-86350000D02*
X164240000Y-82413000D01*
X164240000Y-77460000D02*
X166399000Y-76698000D01*
X166399000Y-76698000D02*
X164875000Y-78222000D01*
X166526000Y-73650000D02*
X164240000Y-77460000D01*
X159160000Y-77333000D02*
X161700000Y-73650000D01*
X157509000Y-86350000D02*
X159033000Y-82667000D01*
X157509000Y-73650000D02*
X159160000Y-77333000D01*
X140491000Y-86350000D02*
X138840000Y-82540000D01*
X140999000Y-73650000D02*
X140491000Y-73650000D01*
X140491000Y-73650000D02*
X138967000Y-77333000D01*
X131474000Y-83302000D02*
X133252000Y-81905000D01*
X131347000Y-76698000D02*
X133125000Y-78222000D01*
X131474000Y-83302000D02*
X133760000Y-82540000D01*
X131474000Y-76698000D02*
X133760000Y-77460000D01*
X149000000Y-80762000D02*
X140999000Y-80762000D01*
X140999000Y-80762000D02*
X140999000Y-86350000D01*
X149000000Y-80762000D02*
X157001000Y-80762000D01*
X157001000Y-80762000D02*
X157001000Y-86350000D01*
X149000000Y-79238000D02*
X140999000Y-79238000D01*
X140999000Y-79238000D02*
X140999000Y-73650000D01*
X149000000Y-79238000D02*
X157001000Y-79238000D01*
X157001000Y-79238000D02*
X157001000Y-73650000D01*
X147222000Y-97238000D02*
X147222000Y-98762000D01*
X150778000Y-97238000D02*
X150778000Y-98762000D01*
X140491000Y-104350000D02*
X140999000Y-104350000D01*
X166526000Y-91650000D02*
X161065000Y-94444000D01*
X161065000Y-94444000D02*
X161700000Y-91650000D01*
X138967000Y-95333000D02*
X136300000Y-91650000D01*
X136300000Y-91650000D02*
X136808000Y-94444000D01*
X136808000Y-94444000D02*
X131474000Y-91650000D01*
X138840000Y-100667000D02*
X136300000Y-104350000D01*
X136300000Y-104350000D02*
X136808000Y-101683000D01*
X136808000Y-101683000D02*
X131474000Y-104350000D01*
X133760000Y-100540000D02*
X131474000Y-104350000D01*
X133760000Y-95460000D02*
X131474000Y-91650000D01*
X157001000Y-91650000D02*
X157382000Y-91650000D01*
X157001000Y-104350000D02*
X157509000Y-104350000D01*
X159033000Y-100667000D02*
X161700000Y-104350000D01*
X161700000Y-104350000D02*
X161065000Y-101556000D01*
X161065000Y-101556000D02*
X166526000Y-104350000D01*
X164240000Y-100413000D02*
X166526000Y-101302000D01*
X166526000Y-101302000D02*
X165002000Y-99524000D01*
X166526000Y-104350000D02*
X164240000Y-100413000D01*
X164240000Y-95460000D02*
X166399000Y-94698000D01*
X166399000Y-94698000D02*
X164875000Y-96222000D01*
X166526000Y-91650000D02*
X164240000Y-95460000D01*
X159160000Y-95333000D02*
X161700000Y-91650000D01*
X157509000Y-104350000D02*
X159033000Y-100667000D01*
X157509000Y-91650000D02*
X159160000Y-95333000D01*
X140491000Y-104350000D02*
X138840000Y-100540000D01*
X140999000Y-91650000D02*
X140491000Y-91650000D01*
X140491000Y-91650000D02*
X138967000Y-95333000D01*
X131474000Y-101302000D02*
X133252000Y-99905000D01*
X131347000Y-94698000D02*
X133125000Y-96222000D01*
X131474000Y-101302000D02*
X133760000Y-100540000D01*
X131474000Y-94698000D02*
X133760000Y-95460000D01*
X149000000Y-98762000D02*
X140999000Y-98762000D01*
X140999000Y-98762000D02*
X140999000Y-104350000D01*
X149000000Y-98762000D02*
X157001000Y-98762000D01*
X157001000Y-98762000D02*
X157001000Y-104350000D01*
X149000000Y-97238000D02*
X140999000Y-97238000D01*
X140999000Y-97238000D02*
X140999000Y-91650000D01*
X149000000Y-97238000D02*
X157001000Y-97238000D01*
X157001000Y-97238000D02*
X157001000Y-91650000D01*
D14*
X143770000Y-67830000D02*
X146370000Y-67830000D01*
X146370000Y-67830000D02*
X146370000Y-65170000D01*
X146370000Y-65170000D02*
X143770000Y-65170000D01*
X143770000Y-65170000D02*
X143770000Y-67830000D01*
X142500000Y-67830000D02*
X141170000Y-67830000D01*
X141170000Y-67830000D02*
X141170000Y-66500000D01*
X162270000Y-72830000D02*
X164870000Y-72830000D01*
X164870000Y-72830000D02*
X164870000Y-70170000D01*
X164870000Y-70170000D02*
X162270000Y-70170000D01*
X162270000Y-70170000D02*
X162270000Y-72830000D01*
X161000000Y-72830000D02*
X159670000Y-72830000D01*
X159670000Y-72830000D02*
X159670000Y-71500000D01*
X162270000Y-90330000D02*
X164870000Y-90330000D01*
X164870000Y-90330000D02*
X164870000Y-87670000D01*
X164870000Y-87670000D02*
X162270000Y-87670000D01*
X162270000Y-87670000D02*
X162270000Y-90330000D01*
X161000000Y-90330000D02*
X159670000Y-90330000D01*
X159670000Y-90330000D02*
X159670000Y-89000000D01*
X133270000Y-90330000D02*
X140950000Y-90330000D01*
X140950000Y-90330000D02*
X140950000Y-87670000D01*
X140950000Y-87670000D02*
X133270000Y-87670000D01*
X133270000Y-87670000D02*
X133270000Y-90330000D01*
X132000000Y-90330000D02*
X130670000Y-90330000D01*
X130670000Y-90330000D02*
X130670000Y-89000000D01*
X89560000Y-96060000D02*
X89560000Y-94000000D01*
X89560000Y-94000000D02*
X87940000Y-94000000D01*
X87940000Y-94000000D02*
X87940000Y-96060000D01*
X87940000Y-96060000D02*
X89560000Y-96060000D01*
X87940000Y-95310000D02*
X87940000Y-94690000D01*
X87940000Y-94690000D02*
X83940000Y-94690000D01*
X83940000Y-94690000D02*
X83940000Y-95310000D01*
X83940000Y-95310000D02*
X87940000Y-95310000D01*
X90265000Y-95310000D02*
X89560000Y-95310000D01*
X90265000Y-94690000D02*
X89560000Y-94690000D01*
X87940000Y-95190000D02*
X83940000Y-95190000D01*
X87940000Y-95070000D02*
X83940000Y-95070000D01*
X87940000Y-94950000D02*
X83940000Y-94950000D01*
X87940000Y-94830000D02*
X83940000Y-94830000D01*
X87940000Y-94710000D02*
X83940000Y-94710000D01*
X89560000Y-94000000D02*
X89560000Y-92000000D01*
X89560000Y-92000000D02*
X87940000Y-92000000D01*
X87940000Y-92000000D02*
X87940000Y-94000000D01*
X87940000Y-94000000D02*
X89560000Y-94000000D01*
X87940000Y-93310000D02*
X87940000Y-92690000D01*
X87940000Y-92690000D02*
X83940000Y-92690000D01*
X83940000Y-92690000D02*
X83940000Y-93310000D01*
X83940000Y-93310000D02*
X87940000Y-93310000D01*
X90265000Y-93310000D02*
X89560000Y-93310000D01*
X90265000Y-92690000D02*
X89560000Y-92690000D01*
X89560000Y-92000000D02*
X89560000Y-90000000D01*
X89560000Y-90000000D02*
X87940000Y-90000000D01*
X87940000Y-90000000D02*
X87940000Y-92000000D01*
X87940000Y-92000000D02*
X89560000Y-92000000D01*
X87940000Y-91310000D02*
X87940000Y-90690000D01*
X87940000Y-90690000D02*
X83940000Y-90690000D01*
X83940000Y-90690000D02*
X83940000Y-91310000D01*
X83940000Y-91310000D02*
X87940000Y-91310000D01*
X90265000Y-91310000D02*
X89560000Y-91310000D01*
X90265000Y-90690000D02*
X89560000Y-90690000D01*
X89560000Y-90000000D02*
X89560000Y-88000000D01*
X89560000Y-88000000D02*
X87940000Y-88000000D01*
X87940000Y-88000000D02*
X87940000Y-90000000D01*
X87940000Y-90000000D02*
X89560000Y-90000000D01*
X87940000Y-89310000D02*
X87940000Y-88690000D01*
X87940000Y-88690000D02*
X83940000Y-88690000D01*
X83940000Y-88690000D02*
X83940000Y-89310000D01*
X83940000Y-89310000D02*
X87940000Y-89310000D01*
X90265000Y-89310000D02*
X89560000Y-89310000D01*
X90265000Y-88690000D02*
X89560000Y-88690000D01*
X89560000Y-88000000D02*
X89560000Y-85940000D01*
X89560000Y-85940000D02*
X87940000Y-85940000D01*
X87940000Y-85940000D02*
X87940000Y-88000000D01*
X87940000Y-88000000D02*
X89560000Y-88000000D01*
X87940000Y-87310000D02*
X87940000Y-86690000D01*
X87940000Y-86690000D02*
X83940000Y-86690000D01*
X83940000Y-86690000D02*
X83940000Y-87310000D01*
X83940000Y-87310000D02*
X87940000Y-87310000D01*
X90265000Y-87310000D02*
X89560000Y-87310000D01*
X90265000Y-86690000D02*
X89560000Y-86690000D01*
X92000000Y-95000000D02*
X92000000Y-96000000D01*
X92000000Y-96000000D02*
X91000000Y-96000000D01*
X102650000Y-100725000D02*
X102650000Y-97225000D01*
X102650000Y-97225000D02*
X95600000Y-97225000D01*
X95600000Y-97225000D02*
X95600000Y-100725000D01*
X95600000Y-100725000D02*
X102650000Y-100725000D01*
X99125000Y-97775000D02*
X102100000Y-97775000D01*
X102100000Y-97775000D02*
X102100000Y-98500000D01*
X102100000Y-98500000D02*
X102300000Y-98500000D01*
X102300000Y-98500000D02*
X102300000Y-99300000D01*
X102300000Y-99300000D02*
X102100000Y-99300000D01*
X102100000Y-99300000D02*
X102100000Y-100175000D01*
X102100000Y-100175000D02*
X99125000Y-100175000D01*
X99125000Y-97775000D02*
X96150000Y-97775000D01*
X96150000Y-97775000D02*
X96150000Y-98500000D01*
X96150000Y-98500000D02*
X95950000Y-98500000D01*
X95950000Y-98500000D02*
X95950000Y-99300000D01*
X95950000Y-99300000D02*
X96150000Y-99300000D01*
X96150000Y-99300000D02*
X96150000Y-100175000D01*
X96150000Y-100175000D02*
X99125000Y-100175000D01*
X102900000Y-96975000D02*
X102900000Y-97975000D01*
X102900000Y-96975000D02*
X101900000Y-96975000D01*
X112150000Y-100725000D02*
X112150000Y-97225000D01*
X112150000Y-97225000D02*
X105100000Y-97225000D01*
X105100000Y-97225000D02*
X105100000Y-100725000D01*
X105100000Y-100725000D02*
X112150000Y-100725000D01*
X108625000Y-97775000D02*
X111600000Y-97775000D01*
X111600000Y-97775000D02*
X111600000Y-98500000D01*
X111600000Y-98500000D02*
X111800000Y-98500000D01*
X111800000Y-98500000D02*
X111800000Y-99300000D01*
X111800000Y-99300000D02*
X111600000Y-99300000D01*
X111600000Y-99300000D02*
X111600000Y-100175000D01*
X111600000Y-100175000D02*
X108625000Y-100175000D01*
X108625000Y-97775000D02*
X105650000Y-97775000D01*
X105650000Y-97775000D02*
X105650000Y-98500000D01*
X105650000Y-98500000D02*
X105450000Y-98500000D01*
X105450000Y-98500000D02*
X105450000Y-99300000D01*
X105450000Y-99300000D02*
X105650000Y-99300000D01*
X105650000Y-99300000D02*
X105650000Y-100175000D01*
X105650000Y-100175000D02*
X108625000Y-100175000D01*
X112400000Y-96975000D02*
X112400000Y-97975000D01*
X112400000Y-96975000D02*
X111400000Y-96975000D01*
X87350000Y-45700000D02*
X87350000Y-58300000D01*
X87350000Y-58300000D02*
X97700000Y-58300000D01*
X97700000Y-58300000D02*
X97700000Y-57350000D01*
X97700000Y-57350000D02*
X98200000Y-57600000D01*
X98200000Y-57600000D02*
X98200000Y-55700000D01*
X98200000Y-55700000D02*
X98200000Y-55650000D01*
X98200000Y-55650000D02*
X97700000Y-55900000D01*
X97700000Y-55900000D02*
X97700000Y-50500000D01*
X97700000Y-50500000D02*
X98200000Y-50800000D01*
X98200000Y-50800000D02*
X98200000Y-45700000D01*
X98200000Y-45700000D02*
X87350000Y-45700000D01*
X114320000Y-95500000D02*
X114320000Y-94500000D01*
X115680000Y-94500000D02*
X115680000Y-95500000D01*
X99500000Y-65320000D02*
X100500000Y-65320000D01*
X100500000Y-66680000D02*
X99500000Y-66680000D01*
X116320000Y-95500000D02*
X116320000Y-94500000D01*
X117680000Y-94500000D02*
X117680000Y-95500000D01*
X99500000Y-63320000D02*
X100500000Y-63320000D01*
X100500000Y-64680000D02*
X99500000Y-64680000D01*
X119280000Y-78500000D02*
X119280000Y-79500000D01*
X117920000Y-79500000D02*
X117920000Y-78500000D01*
X115680000Y-66000000D02*
X115680000Y-67000000D01*
X114320000Y-67000000D02*
X114320000Y-66000000D01*
X114180000Y-61500000D02*
X114180000Y-62500000D01*
X112820000Y-62500000D02*
X112820000Y-61500000D01*
X114180000Y-66000000D02*
X114180000Y-67000000D01*
X112820000Y-67000000D02*
X112820000Y-66000000D01*
X112680000Y-66000000D02*
X112680000Y-67000000D01*
X111320000Y-67000000D02*
X111320000Y-66000000D01*
X121500000Y-92680000D02*
X120500000Y-92680000D01*
X120500000Y-91320000D02*
X121500000Y-91320000D01*
X121500000Y-90680000D02*
X120500000Y-90680000D01*
X120500000Y-89320000D02*
X121500000Y-89320000D01*
X104930000Y-94000000D02*
X104930000Y-95000000D01*
X103570000Y-95000000D02*
X103570000Y-94000000D01*
X106930000Y-94000000D02*
X106930000Y-95000000D01*
X105570000Y-95000000D02*
X105570000Y-94000000D01*
X145120000Y-61600000D02*
X145120000Y-60400000D01*
X146880000Y-60400000D02*
X146880000Y-61600000D01*
X143120000Y-61600000D02*
X143120000Y-60400000D01*
X144880000Y-60400000D02*
X144880000Y-61600000D01*
X141120000Y-61600000D02*
X141120000Y-60400000D01*
X142880000Y-60400000D02*
X142880000Y-61600000D01*
X139120000Y-61600000D02*
X139120000Y-60400000D01*
X140880000Y-60400000D02*
X140880000Y-61600000D01*
X137120000Y-61600000D02*
X137120000Y-60400000D01*
X138880000Y-60400000D02*
X138880000Y-61600000D01*
X135120000Y-61600000D02*
X135120000Y-60400000D01*
X136880000Y-60400000D02*
X136880000Y-61600000D01*
X133120000Y-61600000D02*
X133120000Y-60400000D01*
X134880000Y-60400000D02*
X134880000Y-61600000D01*
X131120000Y-61600000D02*
X131120000Y-60400000D01*
X132880000Y-60400000D02*
X132880000Y-61600000D01*
X129120000Y-61600000D02*
X129120000Y-60400000D01*
X130880000Y-60400000D02*
X130880000Y-61600000D01*
X127120000Y-61600000D02*
X127120000Y-60400000D01*
X128880000Y-60400000D02*
X128880000Y-61600000D01*
X91500000Y-68680000D02*
X90500000Y-68680000D01*
X90500000Y-67320000D02*
X91500000Y-67320000D01*
X91500000Y-66680000D02*
X90500000Y-66680000D01*
X90500000Y-65320000D02*
X91500000Y-65320000D01*
X134500000Y-72680000D02*
X133500000Y-72680000D01*
X133500000Y-71320000D02*
X134500000Y-71320000D01*
X91500000Y-70680000D02*
X90500000Y-70680000D01*
X90500000Y-69320000D02*
X91500000Y-69320000D01*
X96500000Y-76680000D02*
X95500000Y-76680000D01*
X95500000Y-75320000D02*
X96500000Y-75320000D01*
X91500000Y-72680000D02*
X90500000Y-72680000D01*
X90500000Y-71320000D02*
X91500000Y-71320000D01*
X91500000Y-74680000D02*
X90500000Y-74680000D01*
X90500000Y-73320000D02*
X91500000Y-73320000D01*
X91500000Y-76680000D02*
X90500000Y-76680000D01*
X90500000Y-75320000D02*
X91500000Y-75320000D01*
X156180000Y-70500000D02*
X156180000Y-71500000D01*
X154820000Y-71500000D02*
X154820000Y-70500000D01*
X156180000Y-88500000D02*
X156180000Y-89500000D01*
X154820000Y-89500000D02*
X154820000Y-88500000D01*
X120320000Y-66500000D02*
X120320000Y-65500000D01*
X121680000Y-65500000D02*
X121680000Y-66500000D01*
X117320000Y-66500000D02*
X117320000Y-65500000D01*
X118680000Y-65500000D02*
X118680000Y-66500000D01*
X89820000Y-82000000D02*
X89820000Y-81000000D01*
X91180000Y-81000000D02*
X91180000Y-82000000D01*
X124100000Y-72920000D02*
X125100000Y-72920000D01*
X125100000Y-74280000D02*
X124100000Y-74280000D01*
X100320000Y-95000000D02*
X100320000Y-94000000D01*
X101680000Y-94000000D02*
X101680000Y-95000000D01*
X97070000Y-95000000D02*
X97070000Y-94000000D01*
X98430000Y-94000000D02*
X98430000Y-95000000D01*
X121500000Y-88680000D02*
X120500000Y-88680000D01*
X120500000Y-87320000D02*
X121500000Y-87320000D01*
X126800000Y-78850000D02*
X127050000Y-78850000D01*
X127050000Y-78850000D02*
X127050000Y-85150000D01*
X127050000Y-85150000D02*
X126800000Y-85150000D01*
X122300000Y-78850000D02*
X124900000Y-78850000D01*
X120400000Y-85150000D02*
X120150000Y-85150000D01*
X120150000Y-85150000D02*
X120150000Y-78850000D01*
X120150000Y-78850000D02*
X120400000Y-78850000D01*
X124900000Y-85150000D02*
X122300000Y-85150000D01*
D15*
X104675000Y-62375000D02*
X104675000Y-62475000D01*
X109325000Y-62375000D02*
X109325000Y-62575000D01*
X109325000Y-65625000D02*
X109325000Y-65425000D01*
X104675000Y-65625000D02*
X104675000Y-65425000D01*
X104675000Y-62375000D02*
X109325000Y-62375000D01*
X104675000Y-65625000D02*
X109325000Y-65625000D01*
X104675000Y-62475000D02*
X103325000Y-62475000D01*
X118425000Y-99075000D02*
X118475000Y-99075000D01*
X118425000Y-94925000D02*
X118570000Y-94925000D01*
X123575000Y-94925000D02*
X123430000Y-94925000D01*
X123575000Y-99075000D02*
X123430000Y-99075000D01*
X118425000Y-99075000D02*
X118425000Y-94925000D01*
X123575000Y-99075000D02*
X123575000Y-94925000D01*
X118475000Y-99075000D02*
X118475000Y-100475000D01*
X95925000Y-67425000D02*
X95925000Y-67475000D01*
X100075000Y-67425000D02*
X100075000Y-67570000D01*
X100075000Y-72575000D02*
X100075000Y-72430000D01*
X95925000Y-72575000D02*
X95925000Y-72430000D01*
X95925000Y-67425000D02*
X100075000Y-67425000D01*
X95925000Y-72575000D02*
X100075000Y-72575000D01*
X95925000Y-67475000D02*
X94525000Y-67475000D01*
X109075000Y-72575000D02*
X109075000Y-72525000D01*
X104925000Y-72575000D02*
X104925000Y-72430000D01*
X104925000Y-67425000D02*
X104925000Y-67570000D01*
X109075000Y-67425000D02*
X109075000Y-67570000D01*
X109075000Y-72575000D02*
X104925000Y-72575000D01*
X109075000Y-67425000D02*
X104925000Y-67425000D01*
X109075000Y-72525000D02*
X110475000Y-72525000D01*
D14*
X114690000Y-53680000D02*
X124930000Y-53680000D01*
X114690000Y-58321000D02*
X116205000Y-58321000D01*
X118336000Y-58321000D02*
X118745000Y-58321000D01*
X120875000Y-58321000D02*
X121285000Y-58321000D01*
X123415000Y-58321000D02*
X124930000Y-58321000D01*
X114690000Y-53680000D02*
X114690000Y-58321000D01*
X124930000Y-53680000D02*
X124930000Y-58321000D01*
X114690000Y-55189000D02*
X124930000Y-55189000D01*
X117960000Y-53680000D02*
X117960000Y-55189000D01*
X121660000Y-53680000D02*
X121660000Y-55189000D01*
X116000000Y-58321000D02*
X116000000Y-60951000D01*
X118540000Y-58321000D02*
X118540000Y-60935000D01*
X121080000Y-58321000D02*
X121080000Y-60935000D01*
X123620000Y-58321000D02*
X123620000Y-60935000D01*
D15*
X123325000Y-70175000D02*
X123500000Y-70175000D01*
X123325000Y-66825000D02*
X123575000Y-66825000D01*
X126675000Y-66825000D02*
X126425000Y-66825000D01*
X126675000Y-70175000D02*
X126425000Y-70175000D01*
X123325000Y-70175000D02*
X123325000Y-66825000D01*
X126675000Y-70175000D02*
X126675000Y-66825000D01*
X123500000Y-70175000D02*
X123500000Y-71425000D01*
D14*
X88470000Y-63850000D02*
X92070000Y-63850000D01*
X88431522Y-63838478D02*
G75*
G02X90270000Y-59400000I1838478J1838478D01*
G01*
X92108478Y-63838478D02*
G75*
G03X90270000Y-59400000I-1838478J1838478D01*
G01*
D15*
X131325000Y-66325000D02*
X131325000Y-66500000D01*
X134675000Y-66325000D02*
X134675000Y-66575000D01*
X134675000Y-69675000D02*
X134675000Y-69425000D01*
X131325000Y-69675000D02*
X131325000Y-69425000D01*
X131325000Y-66325000D02*
X134675000Y-66325000D01*
X131325000Y-69675000D02*
X134675000Y-69675000D01*
X131325000Y-66500000D02*
X130075000Y-66500000D01*
D14*
X154221000Y-78820000D02*
X143980000Y-78820000D01*
X154221000Y-74179000D02*
X151865000Y-74179000D01*
X149735000Y-74179000D02*
X148465000Y-74179000D01*
X146335000Y-74179000D02*
X143980000Y-74179000D01*
X154221000Y-78820000D02*
X154221000Y-74179000D01*
X143980000Y-78820000D02*
X143980000Y-74179000D01*
X154221000Y-77311000D02*
X143980000Y-77311000D01*
X150950000Y-78820000D02*
X150950000Y-77311000D01*
X147250000Y-78820000D02*
X147250000Y-77311000D01*
X152500000Y-74179000D02*
X152500000Y-71549000D01*
X149100000Y-74179000D02*
X149100000Y-71565000D01*
X145700000Y-74179000D02*
X145700000Y-71565000D01*
X154221000Y-96820000D02*
X143980000Y-96820000D01*
X154221000Y-92179000D02*
X151865000Y-92179000D01*
X149735000Y-92179000D02*
X148465000Y-92179000D01*
X146335000Y-92179000D02*
X143980000Y-92179000D01*
X154221000Y-96820000D02*
X154221000Y-92179000D01*
X143980000Y-96820000D02*
X143980000Y-92179000D01*
X154221000Y-95311000D02*
X143980000Y-95311000D01*
X150950000Y-96820000D02*
X150950000Y-95311000D01*
X147250000Y-96820000D02*
X147250000Y-95311000D01*
X152500000Y-92179000D02*
X152500000Y-89549000D01*
X149100000Y-92179000D02*
X149100000Y-89565000D01*
X145700000Y-92179000D02*
X145700000Y-89565000D01*
D16*
X95750000Y-62616666D02*
X95783333Y-62650000D01*
X95816667Y-62750000D01*
X95816667Y-62816666D01*
X95783333Y-62916666D01*
X95716667Y-62983333D01*
X95650000Y-63016666D01*
X95516667Y-63050000D01*
X95416667Y-63050000D01*
X95283333Y-63016666D01*
X95216667Y-62983333D01*
X95150000Y-62916666D01*
X95116667Y-62816666D01*
X95116667Y-62750000D01*
X95150000Y-62650000D01*
X95183333Y-62616666D01*
X95116667Y-62016666D02*
X95116667Y-62150000D01*
X95150000Y-62216666D01*
X95183333Y-62250000D01*
X95283333Y-62316666D01*
X95416667Y-62350000D01*
X95683333Y-62350000D01*
X95750000Y-62316666D01*
X95783333Y-62283333D01*
X95816667Y-62216666D01*
X95816667Y-62083333D01*
X95783333Y-62016666D01*
X95750000Y-61983333D01*
X95683333Y-61950000D01*
X95516667Y-61950000D01*
X95450000Y-61983333D01*
X95416667Y-62016666D01*
X95383333Y-62083333D01*
X95383333Y-62216666D01*
X95416667Y-62283333D01*
X95450000Y-62316666D01*
X95516667Y-62350000D01*
D15*
X98402381Y-89333333D02*
X97402381Y-89333333D01*
X98354762Y-89333333D02*
X98402381Y-89428571D01*
X98402381Y-89619048D01*
X98354762Y-89714286D01*
X98307143Y-89761905D01*
X98211905Y-89809524D01*
X97926190Y-89809524D01*
X97830952Y-89761905D01*
X97783333Y-89714286D01*
X97735714Y-89619048D01*
X97735714Y-89428571D01*
X97783333Y-89333333D01*
X98354762Y-88904762D02*
X98402381Y-88809524D01*
X98402381Y-88619048D01*
X98354762Y-88523809D01*
X98259524Y-88476190D01*
X98211905Y-88476190D01*
X98116667Y-88523809D01*
X98069048Y-88619048D01*
X98069048Y-88761905D01*
X98021429Y-88857143D01*
X97926190Y-88904762D01*
X97878571Y-88904762D01*
X97783333Y-88857143D01*
X97735714Y-88761905D01*
X97735714Y-88619048D01*
X97783333Y-88523809D01*
X98402381Y-88047619D02*
X97402381Y-88047619D01*
X97402381Y-87666666D01*
X97450000Y-87571428D01*
X97497619Y-87523809D01*
X97592857Y-87476190D01*
X97735714Y-87476190D01*
X97830952Y-87523809D01*
X97878571Y-87571428D01*
X97926190Y-87666666D01*
X97926190Y-88047619D01*
X98402381Y-87047619D02*
X97402381Y-87047619D01*
X98307143Y-86000000D02*
X98354762Y-86047619D01*
X98402381Y-86190476D01*
X98402381Y-86285714D01*
X98354762Y-86428572D01*
X98259524Y-86523810D01*
X98164286Y-86571429D01*
X97973810Y-86619048D01*
X97830952Y-86619048D01*
X97640476Y-86571429D01*
X97545238Y-86523810D01*
X97450000Y-86428572D01*
X97402381Y-86285714D01*
X97402381Y-86190476D01*
X97450000Y-86047619D01*
X97497619Y-86000000D01*
X97402381Y-85666667D02*
X97402381Y-85047619D01*
X97783333Y-85380953D01*
X97783333Y-85238095D01*
X97830952Y-85142857D01*
X97878571Y-85095238D01*
X97973810Y-85047619D01*
X98211905Y-85047619D01*
X98307143Y-85095238D01*
X98354762Y-85142857D01*
X98402381Y-85238095D01*
X98402381Y-85523810D01*
X98354762Y-85619048D01*
X98307143Y-85666667D01*
X97402381Y-84714286D02*
X97402381Y-84095238D01*
X97783333Y-84428572D01*
X97783333Y-84285714D01*
X97830952Y-84190476D01*
X97878571Y-84142857D01*
X97973810Y-84095238D01*
X98211905Y-84095238D01*
X98307143Y-84142857D01*
X98354762Y-84190476D01*
X98402381Y-84285714D01*
X98402381Y-84571429D01*
X98354762Y-84666667D01*
X98307143Y-84714286D01*
X97878571Y-83666667D02*
X97878571Y-83333333D01*
X98402381Y-83190476D02*
X98402381Y-83666667D01*
X97402381Y-83666667D01*
X97402381Y-83190476D01*
X98402381Y-82761905D02*
X97402381Y-82761905D01*
X97402381Y-82380952D01*
X97450000Y-82285714D01*
X97497619Y-82238095D01*
X97592857Y-82190476D01*
X97735714Y-82190476D01*
X97830952Y-82238095D01*
X97878571Y-82285714D01*
X97926190Y-82380952D01*
X97926190Y-82761905D01*
D17*
X117178571Y-99083333D02*
X117202381Y-99107143D01*
X117226190Y-99178571D01*
X117226190Y-99226190D01*
X117202381Y-99297619D01*
X117154762Y-99345238D01*
X117107143Y-99369047D01*
X117011905Y-99392857D01*
X116940476Y-99392857D01*
X116845238Y-99369047D01*
X116797619Y-99345238D01*
X116750000Y-99297619D01*
X116726190Y-99226190D01*
X116726190Y-99178571D01*
X116750000Y-99107143D01*
X116773810Y-99083333D01*
X117226190Y-98607143D02*
X117226190Y-98892857D01*
X117226190Y-98750000D02*
X116726190Y-98750000D01*
X116797619Y-98797619D01*
X116845238Y-98845238D01*
X116869048Y-98892857D01*
X99916667Y-76178571D02*
X99892857Y-76202381D01*
X99821429Y-76226190D01*
X99773810Y-76226190D01*
X99702381Y-76202381D01*
X99654762Y-76154762D01*
X99630953Y-76107143D01*
X99607143Y-76011905D01*
X99607143Y-75940476D01*
X99630953Y-75845238D01*
X99654762Y-75797619D01*
X99702381Y-75750000D01*
X99773810Y-75726190D01*
X99821429Y-75726190D01*
X99892857Y-75750000D01*
X99916667Y-75773810D01*
X100107143Y-75773810D02*
X100130953Y-75750000D01*
X100178572Y-75726190D01*
X100297619Y-75726190D01*
X100345238Y-75750000D01*
X100369048Y-75773810D01*
X100392857Y-75821429D01*
X100392857Y-75869048D01*
X100369048Y-75940476D01*
X100083334Y-76226190D01*
X100392857Y-76226190D01*
X115178571Y-99083333D02*
X115202381Y-99107143D01*
X115226190Y-99178571D01*
X115226190Y-99226190D01*
X115202381Y-99297619D01*
X115154762Y-99345238D01*
X115107143Y-99369047D01*
X115011905Y-99392857D01*
X114940476Y-99392857D01*
X114845238Y-99369047D01*
X114797619Y-99345238D01*
X114750000Y-99297619D01*
X114726190Y-99226190D01*
X114726190Y-99178571D01*
X114750000Y-99107143D01*
X114773810Y-99083333D01*
X114726190Y-98916666D02*
X114726190Y-98607143D01*
X114916667Y-98773809D01*
X114916667Y-98702381D01*
X114940476Y-98654762D01*
X114964286Y-98630952D01*
X115011905Y-98607143D01*
X115130952Y-98607143D01*
X115178571Y-98630952D01*
X115202381Y-98654762D01*
X115226190Y-98702381D01*
X115226190Y-98845238D01*
X115202381Y-98892857D01*
X115178571Y-98916666D01*
X99916667Y-74178571D02*
X99892857Y-74202381D01*
X99821429Y-74226190D01*
X99773810Y-74226190D01*
X99702381Y-74202381D01*
X99654762Y-74154762D01*
X99630953Y-74107143D01*
X99607143Y-74011905D01*
X99607143Y-73940476D01*
X99630953Y-73845238D01*
X99654762Y-73797619D01*
X99702381Y-73750000D01*
X99773810Y-73726190D01*
X99821429Y-73726190D01*
X99892857Y-73750000D01*
X99916667Y-73773810D01*
X100345238Y-73892857D02*
X100345238Y-74226190D01*
X100226191Y-73702381D02*
X100107143Y-74059524D01*
X100416667Y-74059524D01*
D16*
X126750000Y-98116666D02*
X126783333Y-98150000D01*
X126816667Y-98250000D01*
X126816667Y-98316666D01*
X126783333Y-98416666D01*
X126716667Y-98483333D01*
X126650000Y-98516666D01*
X126516667Y-98550000D01*
X126416667Y-98550000D01*
X126283333Y-98516666D01*
X126216667Y-98483333D01*
X126150000Y-98416666D01*
X126116667Y-98316666D01*
X126116667Y-98250000D01*
X126150000Y-98150000D01*
X126183333Y-98116666D01*
X126116667Y-97483333D02*
X126116667Y-97816666D01*
X126450000Y-97850000D01*
X126416667Y-97816666D01*
X126383333Y-97750000D01*
X126383333Y-97583333D01*
X126416667Y-97516666D01*
X126450000Y-97483333D01*
X126516667Y-97450000D01*
X126683333Y-97450000D01*
X126750000Y-97483333D01*
X126783333Y-97516666D01*
X126816667Y-97583333D01*
X126816667Y-97750000D01*
X126783333Y-97816666D01*
X126750000Y-97850000D01*
D17*
X104916667Y-61178571D02*
X104892857Y-61202381D01*
X104821429Y-61226190D01*
X104773810Y-61226190D01*
X104702381Y-61202381D01*
X104654762Y-61154762D01*
X104630953Y-61107143D01*
X104607143Y-61011905D01*
X104607143Y-60940476D01*
X104630953Y-60845238D01*
X104654762Y-60797619D01*
X104702381Y-60750000D01*
X104773810Y-60726190D01*
X104821429Y-60726190D01*
X104892857Y-60750000D01*
X104916667Y-60773810D01*
X105083334Y-60726190D02*
X105416667Y-60726190D01*
X105202381Y-61226190D01*
D16*
X110883334Y-94250000D02*
X110850000Y-94283333D01*
X110750000Y-94316667D01*
X110683334Y-94316667D01*
X110583334Y-94283333D01*
X110516667Y-94216667D01*
X110483334Y-94150000D01*
X110450000Y-94016667D01*
X110450000Y-93916667D01*
X110483334Y-93783333D01*
X110516667Y-93716667D01*
X110583334Y-93650000D01*
X110683334Y-93616667D01*
X110750000Y-93616667D01*
X110850000Y-93650000D01*
X110883334Y-93683333D01*
X111283334Y-93916667D02*
X111216667Y-93883333D01*
X111183334Y-93850000D01*
X111150000Y-93783333D01*
X111150000Y-93750000D01*
X111183334Y-93683333D01*
X111216667Y-93650000D01*
X111283334Y-93616667D01*
X111416667Y-93616667D01*
X111483334Y-93650000D01*
X111516667Y-93683333D01*
X111550000Y-93750000D01*
X111550000Y-93783333D01*
X111516667Y-93850000D01*
X111483334Y-93883333D01*
X111416667Y-93916667D01*
X111283334Y-93916667D01*
X111216667Y-93950000D01*
X111183334Y-93983333D01*
X111150000Y-94050000D01*
X111150000Y-94183333D01*
X111183334Y-94250000D01*
X111216667Y-94283333D01*
X111283334Y-94316667D01*
X111416667Y-94316667D01*
X111483334Y-94283333D01*
X111516667Y-94250000D01*
X111550000Y-94183333D01*
X111550000Y-94050000D01*
X111516667Y-93983333D01*
X111483334Y-93950000D01*
X111416667Y-93916667D01*
D17*
X103166667Y-74178571D02*
X103142857Y-74202381D01*
X103071429Y-74226190D01*
X103023810Y-74226190D01*
X102952381Y-74202381D01*
X102904762Y-74154762D01*
X102880953Y-74107143D01*
X102857143Y-74011905D01*
X102857143Y-73940476D01*
X102880953Y-73845238D01*
X102904762Y-73797619D01*
X102952381Y-73750000D01*
X103023810Y-73726190D01*
X103071429Y-73726190D01*
X103142857Y-73750000D01*
X103166667Y-73773810D01*
X103404762Y-74226190D02*
X103500000Y-74226190D01*
X103547619Y-74202381D01*
X103571429Y-74178571D01*
X103619048Y-74107143D01*
X103642857Y-74011905D01*
X103642857Y-73821429D01*
X103619048Y-73773810D01*
X103595238Y-73750000D01*
X103547619Y-73726190D01*
X103452381Y-73726190D01*
X103404762Y-73750000D01*
X103380953Y-73773810D01*
X103357143Y-73821429D01*
X103357143Y-73940476D01*
X103380953Y-73988095D01*
X103404762Y-74011905D01*
X103452381Y-74035714D01*
X103547619Y-74035714D01*
X103595238Y-74011905D01*
X103619048Y-73988095D01*
X103642857Y-73940476D01*
X108678572Y-61178571D02*
X108654762Y-61202381D01*
X108583334Y-61226190D01*
X108535715Y-61226190D01*
X108464286Y-61202381D01*
X108416667Y-61154762D01*
X108392858Y-61107143D01*
X108369048Y-61011905D01*
X108369048Y-60940476D01*
X108392858Y-60845238D01*
X108416667Y-60797619D01*
X108464286Y-60750000D01*
X108535715Y-60726190D01*
X108583334Y-60726190D01*
X108654762Y-60750000D01*
X108678572Y-60773810D01*
X109154762Y-61226190D02*
X108869048Y-61226190D01*
X109011905Y-61226190D02*
X109011905Y-60726190D01*
X108964286Y-60797619D01*
X108916667Y-60845238D01*
X108869048Y-60869048D01*
X109464286Y-60726190D02*
X109511905Y-60726190D01*
X109559524Y-60750000D01*
X109583333Y-60773810D01*
X109607143Y-60821429D01*
X109630952Y-60916667D01*
X109630952Y-61035714D01*
X109607143Y-61130952D01*
X109583333Y-61178571D01*
X109559524Y-61202381D01*
X109511905Y-61226190D01*
X109464286Y-61226190D01*
X109416667Y-61202381D01*
X109392857Y-61178571D01*
X109369048Y-61130952D01*
X109345238Y-61035714D01*
X109345238Y-60916667D01*
X109369048Y-60821429D01*
X109392857Y-60773810D01*
X109416667Y-60750000D01*
X109464286Y-60726190D01*
X130678572Y-65178571D02*
X130654762Y-65202381D01*
X130583334Y-65226190D01*
X130535715Y-65226190D01*
X130464286Y-65202381D01*
X130416667Y-65154762D01*
X130392858Y-65107143D01*
X130369048Y-65011905D01*
X130369048Y-64940476D01*
X130392858Y-64845238D01*
X130416667Y-64797619D01*
X130464286Y-64750000D01*
X130535715Y-64726190D01*
X130583334Y-64726190D01*
X130654762Y-64750000D01*
X130678572Y-64773810D01*
X131154762Y-65226190D02*
X130869048Y-65226190D01*
X131011905Y-65226190D02*
X131011905Y-64726190D01*
X130964286Y-64797619D01*
X130916667Y-64845238D01*
X130869048Y-64869048D01*
X131630952Y-65226190D02*
X131345238Y-65226190D01*
X131488095Y-65226190D02*
X131488095Y-64726190D01*
X131440476Y-64797619D01*
X131392857Y-64845238D01*
X131345238Y-64869048D01*
X134678572Y-65178571D02*
X134654762Y-65202381D01*
X134583334Y-65226190D01*
X134535715Y-65226190D01*
X134464286Y-65202381D01*
X134416667Y-65154762D01*
X134392858Y-65107143D01*
X134369048Y-65011905D01*
X134369048Y-64940476D01*
X134392858Y-64845238D01*
X134416667Y-64797619D01*
X134464286Y-64750000D01*
X134535715Y-64726190D01*
X134583334Y-64726190D01*
X134654762Y-64750000D01*
X134678572Y-64773810D01*
X135154762Y-65226190D02*
X134869048Y-65226190D01*
X135011905Y-65226190D02*
X135011905Y-64726190D01*
X134964286Y-64797619D01*
X134916667Y-64845238D01*
X134869048Y-64869048D01*
X135345238Y-64773810D02*
X135369048Y-64750000D01*
X135416667Y-64726190D01*
X135535714Y-64726190D01*
X135583333Y-64750000D01*
X135607143Y-64773810D01*
X135630952Y-64821429D01*
X135630952Y-64869048D01*
X135607143Y-64940476D01*
X135321429Y-65226190D01*
X135630952Y-65226190D01*
X129678572Y-72178571D02*
X129654762Y-72202381D01*
X129583334Y-72226190D01*
X129535715Y-72226190D01*
X129464286Y-72202381D01*
X129416667Y-72154762D01*
X129392858Y-72107143D01*
X129369048Y-72011905D01*
X129369048Y-71940476D01*
X129392858Y-71845238D01*
X129416667Y-71797619D01*
X129464286Y-71750000D01*
X129535715Y-71726190D01*
X129583334Y-71726190D01*
X129654762Y-71750000D01*
X129678572Y-71773810D01*
X130154762Y-72226190D02*
X129869048Y-72226190D01*
X130011905Y-72226190D02*
X130011905Y-71726190D01*
X129964286Y-71797619D01*
X129916667Y-71845238D01*
X129869048Y-71869048D01*
X130321429Y-71726190D02*
X130630952Y-71726190D01*
X130464286Y-71916667D01*
X130535714Y-71916667D01*
X130583333Y-71940476D01*
X130607143Y-71964286D01*
X130630952Y-72011905D01*
X130630952Y-72130952D01*
X130607143Y-72178571D01*
X130583333Y-72202381D01*
X130535714Y-72226190D01*
X130392857Y-72226190D01*
X130345238Y-72202381D01*
X130321429Y-72178571D01*
X95678572Y-74178571D02*
X95654762Y-74202381D01*
X95583334Y-74226190D01*
X95535715Y-74226190D01*
X95464286Y-74202381D01*
X95416667Y-74154762D01*
X95392858Y-74107143D01*
X95369048Y-74011905D01*
X95369048Y-73940476D01*
X95392858Y-73845238D01*
X95416667Y-73797619D01*
X95464286Y-73750000D01*
X95535715Y-73726190D01*
X95583334Y-73726190D01*
X95654762Y-73750000D01*
X95678572Y-73773810D01*
X96154762Y-74226190D02*
X95869048Y-74226190D01*
X96011905Y-74226190D02*
X96011905Y-73726190D01*
X95964286Y-73797619D01*
X95916667Y-73845238D01*
X95869048Y-73869048D01*
X96583333Y-73892857D02*
X96583333Y-74226190D01*
X96464286Y-73702381D02*
X96345238Y-74059524D01*
X96654762Y-74059524D01*
X152178572Y-65678571D02*
X152154762Y-65702381D01*
X152083334Y-65726190D01*
X152035715Y-65726190D01*
X151964286Y-65702381D01*
X151916667Y-65654762D01*
X151892858Y-65607143D01*
X151869048Y-65511905D01*
X151869048Y-65440476D01*
X151892858Y-65345238D01*
X151916667Y-65297619D01*
X151964286Y-65250000D01*
X152035715Y-65226190D01*
X152083334Y-65226190D01*
X152154762Y-65250000D01*
X152178572Y-65273810D01*
X152654762Y-65726190D02*
X152369048Y-65726190D01*
X152511905Y-65726190D02*
X152511905Y-65226190D01*
X152464286Y-65297619D01*
X152416667Y-65345238D01*
X152369048Y-65369048D01*
X153107143Y-65226190D02*
X152869048Y-65226190D01*
X152845238Y-65464286D01*
X152869048Y-65440476D01*
X152916667Y-65416667D01*
X153035714Y-65416667D01*
X153083333Y-65440476D01*
X153107143Y-65464286D01*
X153130952Y-65511905D01*
X153130952Y-65630952D01*
X153107143Y-65678571D01*
X153083333Y-65702381D01*
X153035714Y-65726190D01*
X152916667Y-65726190D01*
X152869048Y-65702381D01*
X152845238Y-65678571D01*
X152178572Y-63678571D02*
X152154762Y-63702381D01*
X152083334Y-63726190D01*
X152035715Y-63726190D01*
X151964286Y-63702381D01*
X151916667Y-63654762D01*
X151892858Y-63607143D01*
X151869048Y-63511905D01*
X151869048Y-63440476D01*
X151892858Y-63345238D01*
X151916667Y-63297619D01*
X151964286Y-63250000D01*
X152035715Y-63226190D01*
X152083334Y-63226190D01*
X152154762Y-63250000D01*
X152178572Y-63273810D01*
X152654762Y-63726190D02*
X152369048Y-63726190D01*
X152511905Y-63726190D02*
X152511905Y-63226190D01*
X152464286Y-63297619D01*
X152416667Y-63345238D01*
X152369048Y-63369048D01*
X153083333Y-63226190D02*
X152988095Y-63226190D01*
X152940476Y-63250000D01*
X152916667Y-63273810D01*
X152869048Y-63345238D01*
X152845238Y-63440476D01*
X152845238Y-63630952D01*
X152869048Y-63678571D01*
X152892857Y-63702381D01*
X152940476Y-63726190D01*
X153035714Y-63726190D01*
X153083333Y-63702381D01*
X153107143Y-63678571D01*
X153130952Y-63630952D01*
X153130952Y-63511905D01*
X153107143Y-63464286D01*
X153083333Y-63440476D01*
X153035714Y-63416667D01*
X152940476Y-63416667D01*
X152892857Y-63440476D01*
X152869048Y-63464286D01*
X152845238Y-63511905D01*
D16*
X155750000Y-76450000D02*
X155783333Y-76483334D01*
X155816667Y-76583334D01*
X155816667Y-76650000D01*
X155783333Y-76750000D01*
X155716667Y-76816667D01*
X155650000Y-76850000D01*
X155516667Y-76883334D01*
X155416667Y-76883334D01*
X155283333Y-76850000D01*
X155216667Y-76816667D01*
X155150000Y-76750000D01*
X155116667Y-76650000D01*
X155116667Y-76583334D01*
X155150000Y-76483334D01*
X155183333Y-76450000D01*
X155816667Y-75783334D02*
X155816667Y-76183334D01*
X155816667Y-75983334D02*
X155116667Y-75983334D01*
X155216667Y-76050000D01*
X155283333Y-76116667D01*
X155316667Y-76183334D01*
X155116667Y-75550000D02*
X155116667Y-75083333D01*
X155816667Y-75383333D01*
X144050000Y-82750000D02*
X144016666Y-82783333D01*
X143916666Y-82816667D01*
X143850000Y-82816667D01*
X143750000Y-82783333D01*
X143683333Y-82716667D01*
X143650000Y-82650000D01*
X143616666Y-82516667D01*
X143616666Y-82416667D01*
X143650000Y-82283333D01*
X143683333Y-82216667D01*
X143750000Y-82150000D01*
X143850000Y-82116667D01*
X143916666Y-82116667D01*
X144016666Y-82150000D01*
X144050000Y-82183333D01*
X144716666Y-82816667D02*
X144316666Y-82816667D01*
X144516666Y-82816667D02*
X144516666Y-82116667D01*
X144450000Y-82216667D01*
X144383333Y-82283333D01*
X144316666Y-82316667D01*
X145116667Y-82416667D02*
X145050000Y-82383333D01*
X145016667Y-82350000D01*
X144983333Y-82283333D01*
X144983333Y-82250000D01*
X145016667Y-82183333D01*
X145050000Y-82150000D01*
X145116667Y-82116667D01*
X145250000Y-82116667D01*
X145316667Y-82150000D01*
X145350000Y-82183333D01*
X145383333Y-82250000D01*
X145383333Y-82283333D01*
X145350000Y-82350000D01*
X145316667Y-82383333D01*
X145250000Y-82416667D01*
X145116667Y-82416667D01*
X145050000Y-82450000D01*
X145016667Y-82483333D01*
X144983333Y-82550000D01*
X144983333Y-82683333D01*
X145016667Y-82750000D01*
X145050000Y-82783333D01*
X145116667Y-82816667D01*
X145250000Y-82816667D01*
X145316667Y-82783333D01*
X145350000Y-82750000D01*
X145383333Y-82683333D01*
X145383333Y-82550000D01*
X145350000Y-82483333D01*
X145316667Y-82450000D01*
X145250000Y-82416667D01*
X155750000Y-94450000D02*
X155783333Y-94483334D01*
X155816667Y-94583334D01*
X155816667Y-94650000D01*
X155783333Y-94750000D01*
X155716667Y-94816667D01*
X155650000Y-94850000D01*
X155516667Y-94883334D01*
X155416667Y-94883334D01*
X155283333Y-94850000D01*
X155216667Y-94816667D01*
X155150000Y-94750000D01*
X155116667Y-94650000D01*
X155116667Y-94583334D01*
X155150000Y-94483334D01*
X155183333Y-94450000D01*
X155816667Y-93783334D02*
X155816667Y-94183334D01*
X155816667Y-93983334D02*
X155116667Y-93983334D01*
X155216667Y-94050000D01*
X155283333Y-94116667D01*
X155316667Y-94183334D01*
X155816667Y-93450000D02*
X155816667Y-93316667D01*
X155783333Y-93250000D01*
X155750000Y-93216667D01*
X155650000Y-93150000D01*
X155516667Y-93116667D01*
X155250000Y-93116667D01*
X155183333Y-93150000D01*
X155150000Y-93183333D01*
X155116667Y-93250000D01*
X155116667Y-93383333D01*
X155150000Y-93450000D01*
X155183333Y-93483333D01*
X155250000Y-93516667D01*
X155416667Y-93516667D01*
X155483333Y-93483333D01*
X155516667Y-93450000D01*
X155550000Y-93383333D01*
X155550000Y-93250000D01*
X155516667Y-93183333D01*
X155483333Y-93150000D01*
X155416667Y-93116667D01*
X152550000Y-82750000D02*
X152516666Y-82783333D01*
X152416666Y-82816667D01*
X152350000Y-82816667D01*
X152250000Y-82783333D01*
X152183333Y-82716667D01*
X152150000Y-82650000D01*
X152116666Y-82516667D01*
X152116666Y-82416667D01*
X152150000Y-82283333D01*
X152183333Y-82216667D01*
X152250000Y-82150000D01*
X152350000Y-82116667D01*
X152416666Y-82116667D01*
X152516666Y-82150000D01*
X152550000Y-82183333D01*
X152816666Y-82183333D02*
X152850000Y-82150000D01*
X152916666Y-82116667D01*
X153083333Y-82116667D01*
X153150000Y-82150000D01*
X153183333Y-82183333D01*
X153216666Y-82250000D01*
X153216666Y-82316667D01*
X153183333Y-82416667D01*
X152783333Y-82816667D01*
X153216666Y-82816667D01*
X153650000Y-82116667D02*
X153716667Y-82116667D01*
X153783333Y-82150000D01*
X153816667Y-82183333D01*
X153850000Y-82250000D01*
X153883333Y-82383333D01*
X153883333Y-82550000D01*
X153850000Y-82683333D01*
X153816667Y-82750000D01*
X153783333Y-82783333D01*
X153716667Y-82816667D01*
X153650000Y-82816667D01*
X153583333Y-82783333D01*
X153550000Y-82750000D01*
X153516667Y-82683333D01*
X153483333Y-82550000D01*
X153483333Y-82383333D01*
X153516667Y-82250000D01*
X153550000Y-82183333D01*
X153583333Y-82150000D01*
X153650000Y-82116667D01*
D17*
X124630953Y-92226190D02*
X124630953Y-91726190D01*
X124750000Y-91726190D01*
X124821429Y-91750000D01*
X124869048Y-91797619D01*
X124892857Y-91845238D01*
X124916667Y-91940476D01*
X124916667Y-92011905D01*
X124892857Y-92107143D01*
X124869048Y-92154762D01*
X124821429Y-92202381D01*
X124750000Y-92226190D01*
X124630953Y-92226190D01*
X125392857Y-92226190D02*
X125107143Y-92226190D01*
X125250000Y-92226190D02*
X125250000Y-91726190D01*
X125202381Y-91797619D01*
X125154762Y-91845238D01*
X125107143Y-91869048D01*
X124630953Y-90226190D02*
X124630953Y-89726190D01*
X124750000Y-89726190D01*
X124821429Y-89750000D01*
X124869048Y-89797619D01*
X124892857Y-89845238D01*
X124916667Y-89940476D01*
X124916667Y-90011905D01*
X124892857Y-90107143D01*
X124869048Y-90154762D01*
X124821429Y-90202381D01*
X124750000Y-90226190D01*
X124630953Y-90226190D01*
X125107143Y-89773810D02*
X125130953Y-89750000D01*
X125178572Y-89726190D01*
X125297619Y-89726190D01*
X125345238Y-89750000D01*
X125369048Y-89773810D01*
X125392857Y-89821429D01*
X125392857Y-89869048D01*
X125369048Y-89940476D01*
X125083334Y-90226190D01*
X125392857Y-90226190D01*
D15*
X119341905Y-48452381D02*
X119341905Y-47452381D01*
X119580000Y-47452381D01*
X119722858Y-47500000D01*
X119818096Y-47595238D01*
X119865715Y-47690476D01*
X119913334Y-47880952D01*
X119913334Y-48023810D01*
X119865715Y-48214286D01*
X119818096Y-48309524D01*
X119722858Y-48404762D01*
X119580000Y-48452381D01*
X119341905Y-48452381D01*
X120246667Y-47452381D02*
X120865715Y-47452381D01*
X120532381Y-47833333D01*
X120675239Y-47833333D01*
X120770477Y-47880952D01*
X120818096Y-47928571D01*
X120865715Y-48023810D01*
X120865715Y-48261905D01*
X120818096Y-48357143D01*
X120770477Y-48404762D01*
X120675239Y-48452381D01*
X120389524Y-48452381D01*
X120294286Y-48404762D01*
X120246667Y-48357143D01*
D17*
X102726190Y-95369047D02*
X102226190Y-95369047D01*
X102226190Y-95250000D01*
X102250000Y-95178571D01*
X102297619Y-95130952D01*
X102345238Y-95107143D01*
X102440476Y-95083333D01*
X102511905Y-95083333D01*
X102607143Y-95107143D01*
X102654762Y-95130952D01*
X102702381Y-95178571D01*
X102726190Y-95250000D01*
X102726190Y-95369047D01*
X102392857Y-94654762D02*
X102726190Y-94654762D01*
X102202381Y-94773809D02*
X102559524Y-94892857D01*
X102559524Y-94583333D01*
X96246190Y-95329047D02*
X95746190Y-95329047D01*
X95746190Y-95210000D01*
X95770000Y-95138571D01*
X95817619Y-95090952D01*
X95865238Y-95067143D01*
X95960476Y-95043333D01*
X96031905Y-95043333D01*
X96127143Y-95067143D01*
X96174762Y-95090952D01*
X96222381Y-95138571D01*
X96246190Y-95210000D01*
X96246190Y-95329047D01*
X95746190Y-94590952D02*
X95746190Y-94829047D01*
X95984286Y-94852857D01*
X95960476Y-94829047D01*
X95936667Y-94781428D01*
X95936667Y-94662381D01*
X95960476Y-94614762D01*
X95984286Y-94590952D01*
X96031905Y-94567143D01*
X96150952Y-94567143D01*
X96198571Y-94590952D01*
X96222381Y-94614762D01*
X96246190Y-94662381D01*
X96246190Y-94781428D01*
X96222381Y-94829047D01*
X96198571Y-94852857D01*
X124630953Y-88226190D02*
X124630953Y-87726190D01*
X124750000Y-87726190D01*
X124821429Y-87750000D01*
X124869048Y-87797619D01*
X124892857Y-87845238D01*
X124916667Y-87940476D01*
X124916667Y-88011905D01*
X124892857Y-88107143D01*
X124869048Y-88154762D01*
X124821429Y-88202381D01*
X124750000Y-88226190D01*
X124630953Y-88226190D01*
X125345238Y-87726190D02*
X125250000Y-87726190D01*
X125202381Y-87750000D01*
X125178572Y-87773810D01*
X125130953Y-87845238D01*
X125107143Y-87940476D01*
X125107143Y-88130952D01*
X125130953Y-88178571D01*
X125154762Y-88202381D01*
X125202381Y-88226190D01*
X125297619Y-88226190D01*
X125345238Y-88202381D01*
X125369048Y-88178571D01*
X125392857Y-88130952D01*
X125392857Y-88011905D01*
X125369048Y-87964286D01*
X125345238Y-87940476D01*
X125297619Y-87916667D01*
X125202381Y-87916667D01*
X125154762Y-87940476D01*
X125130953Y-87964286D01*
X125107143Y-88011905D01*
D15*
X99000000Y-46952381D02*
X99190477Y-46952381D01*
X99285715Y-47000000D01*
X99380953Y-47095238D01*
X99428572Y-47285714D01*
X99428572Y-47619048D01*
X99380953Y-47809524D01*
X99285715Y-47904762D01*
X99190477Y-47952381D01*
X99000000Y-47952381D01*
X98904762Y-47904762D01*
X98809524Y-47809524D01*
X98761905Y-47619048D01*
X98761905Y-47285714D01*
X98809524Y-47095238D01*
X98904762Y-47000000D01*
X99000000Y-46952381D01*
X99857143Y-46952381D02*
X99857143Y-47761905D01*
X99904762Y-47857143D01*
X99952381Y-47904762D01*
X100047619Y-47952381D01*
X100238096Y-47952381D01*
X100333334Y-47904762D01*
X100380953Y-47857143D01*
X100428572Y-47761905D01*
X100428572Y-46952381D01*
X100761905Y-46952381D02*
X101333334Y-46952381D01*
X101047619Y-47952381D02*
X101047619Y-46952381D01*
D17*
X115226190Y-95083333D02*
X114988095Y-95250000D01*
X115226190Y-95369047D02*
X114726190Y-95369047D01*
X114726190Y-95178571D01*
X114750000Y-95130952D01*
X114773810Y-95107143D01*
X114821429Y-95083333D01*
X114892857Y-95083333D01*
X114940476Y-95107143D01*
X114964286Y-95130952D01*
X114988095Y-95178571D01*
X114988095Y-95369047D01*
X115226190Y-94607143D02*
X115226190Y-94892857D01*
X115226190Y-94750000D02*
X114726190Y-94750000D01*
X114797619Y-94797619D01*
X114845238Y-94845238D01*
X114869048Y-94892857D01*
X99916667Y-66226190D02*
X99750000Y-65988095D01*
X99630953Y-66226190D02*
X99630953Y-65726190D01*
X99821429Y-65726190D01*
X99869048Y-65750000D01*
X99892857Y-65773810D01*
X99916667Y-65821429D01*
X99916667Y-65892857D01*
X99892857Y-65940476D01*
X99869048Y-65964286D01*
X99821429Y-65988095D01*
X99630953Y-65988095D01*
X100107143Y-65773810D02*
X100130953Y-65750000D01*
X100178572Y-65726190D01*
X100297619Y-65726190D01*
X100345238Y-65750000D01*
X100369048Y-65773810D01*
X100392857Y-65821429D01*
X100392857Y-65869048D01*
X100369048Y-65940476D01*
X100083334Y-66226190D01*
X100392857Y-66226190D01*
X117226190Y-95083333D02*
X116988095Y-95250000D01*
X117226190Y-95369047D02*
X116726190Y-95369047D01*
X116726190Y-95178571D01*
X116750000Y-95130952D01*
X116773810Y-95107143D01*
X116821429Y-95083333D01*
X116892857Y-95083333D01*
X116940476Y-95107143D01*
X116964286Y-95130952D01*
X116988095Y-95178571D01*
X116988095Y-95369047D01*
X116726190Y-94916666D02*
X116726190Y-94607143D01*
X116916667Y-94773809D01*
X116916667Y-94702381D01*
X116940476Y-94654762D01*
X116964286Y-94630952D01*
X117011905Y-94607143D01*
X117130952Y-94607143D01*
X117178571Y-94630952D01*
X117202381Y-94654762D01*
X117226190Y-94702381D01*
X117226190Y-94845238D01*
X117202381Y-94892857D01*
X117178571Y-94916666D01*
X99916667Y-64226190D02*
X99750000Y-63988095D01*
X99630953Y-64226190D02*
X99630953Y-63726190D01*
X99821429Y-63726190D01*
X99869048Y-63750000D01*
X99892857Y-63773810D01*
X99916667Y-63821429D01*
X99916667Y-63892857D01*
X99892857Y-63940476D01*
X99869048Y-63964286D01*
X99821429Y-63988095D01*
X99630953Y-63988095D01*
X100345238Y-63892857D02*
X100345238Y-64226190D01*
X100226191Y-63702381D02*
X100107143Y-64059524D01*
X100416667Y-64059524D01*
X118826190Y-79083333D02*
X118588095Y-79250000D01*
X118826190Y-79369047D02*
X118326190Y-79369047D01*
X118326190Y-79178571D01*
X118350000Y-79130952D01*
X118373810Y-79107143D01*
X118421429Y-79083333D01*
X118492857Y-79083333D01*
X118540476Y-79107143D01*
X118564286Y-79130952D01*
X118588095Y-79178571D01*
X118588095Y-79369047D01*
X118326190Y-78630952D02*
X118326190Y-78869047D01*
X118564286Y-78892857D01*
X118540476Y-78869047D01*
X118516667Y-78821428D01*
X118516667Y-78702381D01*
X118540476Y-78654762D01*
X118564286Y-78630952D01*
X118611905Y-78607143D01*
X118730952Y-78607143D01*
X118778571Y-78630952D01*
X118802381Y-78654762D01*
X118826190Y-78702381D01*
X118826190Y-78821428D01*
X118802381Y-78869047D01*
X118778571Y-78892857D01*
X115226190Y-66583333D02*
X114988095Y-66750000D01*
X115226190Y-66869047D02*
X114726190Y-66869047D01*
X114726190Y-66678571D01*
X114750000Y-66630952D01*
X114773810Y-66607143D01*
X114821429Y-66583333D01*
X114892857Y-66583333D01*
X114940476Y-66607143D01*
X114964286Y-66630952D01*
X114988095Y-66678571D01*
X114988095Y-66869047D01*
X114726190Y-66154762D02*
X114726190Y-66250000D01*
X114750000Y-66297619D01*
X114773810Y-66321428D01*
X114845238Y-66369047D01*
X114940476Y-66392857D01*
X115130952Y-66392857D01*
X115178571Y-66369047D01*
X115202381Y-66345238D01*
X115226190Y-66297619D01*
X115226190Y-66202381D01*
X115202381Y-66154762D01*
X115178571Y-66130952D01*
X115130952Y-66107143D01*
X115011905Y-66107143D01*
X114964286Y-66130952D01*
X114940476Y-66154762D01*
X114916667Y-66202381D01*
X114916667Y-66297619D01*
X114940476Y-66345238D01*
X114964286Y-66369047D01*
X115011905Y-66392857D01*
X113726190Y-62083333D02*
X113488095Y-62250000D01*
X113726190Y-62369047D02*
X113226190Y-62369047D01*
X113226190Y-62178571D01*
X113250000Y-62130952D01*
X113273810Y-62107143D01*
X113321429Y-62083333D01*
X113392857Y-62083333D01*
X113440476Y-62107143D01*
X113464286Y-62130952D01*
X113488095Y-62178571D01*
X113488095Y-62369047D01*
X113226190Y-61916666D02*
X113226190Y-61583333D01*
X113726190Y-61797619D01*
X113726190Y-66583333D02*
X113488095Y-66750000D01*
X113726190Y-66869047D02*
X113226190Y-66869047D01*
X113226190Y-66678571D01*
X113250000Y-66630952D01*
X113273810Y-66607143D01*
X113321429Y-66583333D01*
X113392857Y-66583333D01*
X113440476Y-66607143D01*
X113464286Y-66630952D01*
X113488095Y-66678571D01*
X113488095Y-66869047D01*
X113440476Y-66297619D02*
X113416667Y-66345238D01*
X113392857Y-66369047D01*
X113345238Y-66392857D01*
X113321429Y-66392857D01*
X113273810Y-66369047D01*
X113250000Y-66345238D01*
X113226190Y-66297619D01*
X113226190Y-66202381D01*
X113250000Y-66154762D01*
X113273810Y-66130952D01*
X113321429Y-66107143D01*
X113345238Y-66107143D01*
X113392857Y-66130952D01*
X113416667Y-66154762D01*
X113440476Y-66202381D01*
X113440476Y-66297619D01*
X113464286Y-66345238D01*
X113488095Y-66369047D01*
X113535714Y-66392857D01*
X113630952Y-66392857D01*
X113678571Y-66369047D01*
X113702381Y-66345238D01*
X113726190Y-66297619D01*
X113726190Y-66202381D01*
X113702381Y-66154762D01*
X113678571Y-66130952D01*
X113630952Y-66107143D01*
X113535714Y-66107143D01*
X113488095Y-66130952D01*
X113464286Y-66154762D01*
X113440476Y-66202381D01*
X112226190Y-66583333D02*
X111988095Y-66750000D01*
X112226190Y-66869047D02*
X111726190Y-66869047D01*
X111726190Y-66678571D01*
X111750000Y-66630952D01*
X111773810Y-66607143D01*
X111821429Y-66583333D01*
X111892857Y-66583333D01*
X111940476Y-66607143D01*
X111964286Y-66630952D01*
X111988095Y-66678571D01*
X111988095Y-66869047D01*
X112226190Y-66345238D02*
X112226190Y-66250000D01*
X112202381Y-66202381D01*
X112178571Y-66178571D01*
X112107143Y-66130952D01*
X112011905Y-66107143D01*
X111821429Y-66107143D01*
X111773810Y-66130952D01*
X111750000Y-66154762D01*
X111726190Y-66202381D01*
X111726190Y-66297619D01*
X111750000Y-66345238D01*
X111773810Y-66369047D01*
X111821429Y-66392857D01*
X111940476Y-66392857D01*
X111988095Y-66369047D01*
X112011905Y-66345238D01*
X112035714Y-66297619D01*
X112035714Y-66202381D01*
X112011905Y-66154762D01*
X111988095Y-66130952D01*
X111940476Y-66107143D01*
X120678572Y-92226190D02*
X120511905Y-91988095D01*
X120392858Y-92226190D02*
X120392858Y-91726190D01*
X120583334Y-91726190D01*
X120630953Y-91750000D01*
X120654762Y-91773810D01*
X120678572Y-91821429D01*
X120678572Y-91892857D01*
X120654762Y-91940476D01*
X120630953Y-91964286D01*
X120583334Y-91988095D01*
X120392858Y-91988095D01*
X121154762Y-92226190D02*
X120869048Y-92226190D01*
X121011905Y-92226190D02*
X121011905Y-91726190D01*
X120964286Y-91797619D01*
X120916667Y-91845238D01*
X120869048Y-91869048D01*
X121464286Y-91726190D02*
X121511905Y-91726190D01*
X121559524Y-91750000D01*
X121583333Y-91773810D01*
X121607143Y-91821429D01*
X121630952Y-91916667D01*
X121630952Y-92035714D01*
X121607143Y-92130952D01*
X121583333Y-92178571D01*
X121559524Y-92202381D01*
X121511905Y-92226190D01*
X121464286Y-92226190D01*
X121416667Y-92202381D01*
X121392857Y-92178571D01*
X121369048Y-92130952D01*
X121345238Y-92035714D01*
X121345238Y-91916667D01*
X121369048Y-91821429D01*
X121392857Y-91773810D01*
X121416667Y-91750000D01*
X121464286Y-91726190D01*
X120678572Y-90226190D02*
X120511905Y-89988095D01*
X120392858Y-90226190D02*
X120392858Y-89726190D01*
X120583334Y-89726190D01*
X120630953Y-89750000D01*
X120654762Y-89773810D01*
X120678572Y-89821429D01*
X120678572Y-89892857D01*
X120654762Y-89940476D01*
X120630953Y-89964286D01*
X120583334Y-89988095D01*
X120392858Y-89988095D01*
X121154762Y-90226190D02*
X120869048Y-90226190D01*
X121011905Y-90226190D02*
X121011905Y-89726190D01*
X120964286Y-89797619D01*
X120916667Y-89845238D01*
X120869048Y-89869048D01*
X121630952Y-90226190D02*
X121345238Y-90226190D01*
X121488095Y-90226190D02*
X121488095Y-89726190D01*
X121440476Y-89797619D01*
X121392857Y-89845238D01*
X121345238Y-89869048D01*
X104476190Y-94821428D02*
X104238095Y-94988095D01*
X104476190Y-95107142D02*
X103976190Y-95107142D01*
X103976190Y-94916666D01*
X104000000Y-94869047D01*
X104023810Y-94845238D01*
X104071429Y-94821428D01*
X104142857Y-94821428D01*
X104190476Y-94845238D01*
X104214286Y-94869047D01*
X104238095Y-94916666D01*
X104238095Y-95107142D01*
X104476190Y-94345238D02*
X104476190Y-94630952D01*
X104476190Y-94488095D02*
X103976190Y-94488095D01*
X104047619Y-94535714D01*
X104095238Y-94583333D01*
X104119048Y-94630952D01*
X104023810Y-94154762D02*
X104000000Y-94130952D01*
X103976190Y-94083333D01*
X103976190Y-93964286D01*
X104000000Y-93916667D01*
X104023810Y-93892857D01*
X104071429Y-93869048D01*
X104119048Y-93869048D01*
X104190476Y-93892857D01*
X104476190Y-94178571D01*
X104476190Y-93869048D01*
X106476190Y-94821428D02*
X106238095Y-94988095D01*
X106476190Y-95107142D02*
X105976190Y-95107142D01*
X105976190Y-94916666D01*
X106000000Y-94869047D01*
X106023810Y-94845238D01*
X106071429Y-94821428D01*
X106142857Y-94821428D01*
X106190476Y-94845238D01*
X106214286Y-94869047D01*
X106238095Y-94916666D01*
X106238095Y-95107142D01*
X106476190Y-94345238D02*
X106476190Y-94630952D01*
X106476190Y-94488095D02*
X105976190Y-94488095D01*
X106047619Y-94535714D01*
X106095238Y-94583333D01*
X106119048Y-94630952D01*
X105976190Y-94178571D02*
X105976190Y-93869048D01*
X106166667Y-94035714D01*
X106166667Y-93964286D01*
X106190476Y-93916667D01*
X106214286Y-93892857D01*
X106261905Y-93869048D01*
X106380952Y-93869048D01*
X106428571Y-93892857D01*
X106452381Y-93916667D01*
X106476190Y-93964286D01*
X106476190Y-94107143D01*
X106452381Y-94154762D01*
X106428571Y-94178571D01*
X146226190Y-61321428D02*
X145988095Y-61488095D01*
X146226190Y-61607142D02*
X145726190Y-61607142D01*
X145726190Y-61416666D01*
X145750000Y-61369047D01*
X145773810Y-61345238D01*
X145821429Y-61321428D01*
X145892857Y-61321428D01*
X145940476Y-61345238D01*
X145964286Y-61369047D01*
X145988095Y-61416666D01*
X145988095Y-61607142D01*
X146226190Y-60845238D02*
X146226190Y-61130952D01*
X146226190Y-60988095D02*
X145726190Y-60988095D01*
X145797619Y-61035714D01*
X145845238Y-61083333D01*
X145869048Y-61130952D01*
X145892857Y-60416667D02*
X146226190Y-60416667D01*
X145702381Y-60535714D02*
X146059524Y-60654762D01*
X146059524Y-60345238D01*
X144226190Y-61321428D02*
X143988095Y-61488095D01*
X144226190Y-61607142D02*
X143726190Y-61607142D01*
X143726190Y-61416666D01*
X143750000Y-61369047D01*
X143773810Y-61345238D01*
X143821429Y-61321428D01*
X143892857Y-61321428D01*
X143940476Y-61345238D01*
X143964286Y-61369047D01*
X143988095Y-61416666D01*
X143988095Y-61607142D01*
X144226190Y-60845238D02*
X144226190Y-61130952D01*
X144226190Y-60988095D02*
X143726190Y-60988095D01*
X143797619Y-61035714D01*
X143845238Y-61083333D01*
X143869048Y-61130952D01*
X143726190Y-60392857D02*
X143726190Y-60630952D01*
X143964286Y-60654762D01*
X143940476Y-60630952D01*
X143916667Y-60583333D01*
X143916667Y-60464286D01*
X143940476Y-60416667D01*
X143964286Y-60392857D01*
X144011905Y-60369048D01*
X144130952Y-60369048D01*
X144178571Y-60392857D01*
X144202381Y-60416667D01*
X144226190Y-60464286D01*
X144226190Y-60583333D01*
X144202381Y-60630952D01*
X144178571Y-60654762D01*
X142226190Y-61321428D02*
X141988095Y-61488095D01*
X142226190Y-61607142D02*
X141726190Y-61607142D01*
X141726190Y-61416666D01*
X141750000Y-61369047D01*
X141773810Y-61345238D01*
X141821429Y-61321428D01*
X141892857Y-61321428D01*
X141940476Y-61345238D01*
X141964286Y-61369047D01*
X141988095Y-61416666D01*
X141988095Y-61607142D01*
X142226190Y-60845238D02*
X142226190Y-61130952D01*
X142226190Y-60988095D02*
X141726190Y-60988095D01*
X141797619Y-61035714D01*
X141845238Y-61083333D01*
X141869048Y-61130952D01*
X141726190Y-60416667D02*
X141726190Y-60511905D01*
X141750000Y-60559524D01*
X141773810Y-60583333D01*
X141845238Y-60630952D01*
X141940476Y-60654762D01*
X142130952Y-60654762D01*
X142178571Y-60630952D01*
X142202381Y-60607143D01*
X142226190Y-60559524D01*
X142226190Y-60464286D01*
X142202381Y-60416667D01*
X142178571Y-60392857D01*
X142130952Y-60369048D01*
X142011905Y-60369048D01*
X141964286Y-60392857D01*
X141940476Y-60416667D01*
X141916667Y-60464286D01*
X141916667Y-60559524D01*
X141940476Y-60607143D01*
X141964286Y-60630952D01*
X142011905Y-60654762D01*
X140226190Y-61321428D02*
X139988095Y-61488095D01*
X140226190Y-61607142D02*
X139726190Y-61607142D01*
X139726190Y-61416666D01*
X139750000Y-61369047D01*
X139773810Y-61345238D01*
X139821429Y-61321428D01*
X139892857Y-61321428D01*
X139940476Y-61345238D01*
X139964286Y-61369047D01*
X139988095Y-61416666D01*
X139988095Y-61607142D01*
X140226190Y-60845238D02*
X140226190Y-61130952D01*
X140226190Y-60988095D02*
X139726190Y-60988095D01*
X139797619Y-61035714D01*
X139845238Y-61083333D01*
X139869048Y-61130952D01*
X139726190Y-60678571D02*
X139726190Y-60345238D01*
X140226190Y-60559524D01*
X138226190Y-61321428D02*
X137988095Y-61488095D01*
X138226190Y-61607142D02*
X137726190Y-61607142D01*
X137726190Y-61416666D01*
X137750000Y-61369047D01*
X137773810Y-61345238D01*
X137821429Y-61321428D01*
X137892857Y-61321428D01*
X137940476Y-61345238D01*
X137964286Y-61369047D01*
X137988095Y-61416666D01*
X137988095Y-61607142D01*
X138226190Y-60845238D02*
X138226190Y-61130952D01*
X138226190Y-60988095D02*
X137726190Y-60988095D01*
X137797619Y-61035714D01*
X137845238Y-61083333D01*
X137869048Y-61130952D01*
X137940476Y-60559524D02*
X137916667Y-60607143D01*
X137892857Y-60630952D01*
X137845238Y-60654762D01*
X137821429Y-60654762D01*
X137773810Y-60630952D01*
X137750000Y-60607143D01*
X137726190Y-60559524D01*
X137726190Y-60464286D01*
X137750000Y-60416667D01*
X137773810Y-60392857D01*
X137821429Y-60369048D01*
X137845238Y-60369048D01*
X137892857Y-60392857D01*
X137916667Y-60416667D01*
X137940476Y-60464286D01*
X137940476Y-60559524D01*
X137964286Y-60607143D01*
X137988095Y-60630952D01*
X138035714Y-60654762D01*
X138130952Y-60654762D01*
X138178571Y-60630952D01*
X138202381Y-60607143D01*
X138226190Y-60559524D01*
X138226190Y-60464286D01*
X138202381Y-60416667D01*
X138178571Y-60392857D01*
X138130952Y-60369048D01*
X138035714Y-60369048D01*
X137988095Y-60392857D01*
X137964286Y-60416667D01*
X137940476Y-60464286D01*
X136226190Y-61321428D02*
X135988095Y-61488095D01*
X136226190Y-61607142D02*
X135726190Y-61607142D01*
X135726190Y-61416666D01*
X135750000Y-61369047D01*
X135773810Y-61345238D01*
X135821429Y-61321428D01*
X135892857Y-61321428D01*
X135940476Y-61345238D01*
X135964286Y-61369047D01*
X135988095Y-61416666D01*
X135988095Y-61607142D01*
X136226190Y-60845238D02*
X136226190Y-61130952D01*
X136226190Y-60988095D02*
X135726190Y-60988095D01*
X135797619Y-61035714D01*
X135845238Y-61083333D01*
X135869048Y-61130952D01*
X136226190Y-60607143D02*
X136226190Y-60511905D01*
X136202381Y-60464286D01*
X136178571Y-60440476D01*
X136107143Y-60392857D01*
X136011905Y-60369048D01*
X135821429Y-60369048D01*
X135773810Y-60392857D01*
X135750000Y-60416667D01*
X135726190Y-60464286D01*
X135726190Y-60559524D01*
X135750000Y-60607143D01*
X135773810Y-60630952D01*
X135821429Y-60654762D01*
X135940476Y-60654762D01*
X135988095Y-60630952D01*
X136011905Y-60607143D01*
X136035714Y-60559524D01*
X136035714Y-60464286D01*
X136011905Y-60416667D01*
X135988095Y-60392857D01*
X135940476Y-60369048D01*
X134226190Y-61321428D02*
X133988095Y-61488095D01*
X134226190Y-61607142D02*
X133726190Y-61607142D01*
X133726190Y-61416666D01*
X133750000Y-61369047D01*
X133773810Y-61345238D01*
X133821429Y-61321428D01*
X133892857Y-61321428D01*
X133940476Y-61345238D01*
X133964286Y-61369047D01*
X133988095Y-61416666D01*
X133988095Y-61607142D01*
X133773810Y-61130952D02*
X133750000Y-61107142D01*
X133726190Y-61059523D01*
X133726190Y-60940476D01*
X133750000Y-60892857D01*
X133773810Y-60869047D01*
X133821429Y-60845238D01*
X133869048Y-60845238D01*
X133940476Y-60869047D01*
X134226190Y-61154761D01*
X134226190Y-60845238D01*
X133726190Y-60535714D02*
X133726190Y-60488095D01*
X133750000Y-60440476D01*
X133773810Y-60416667D01*
X133821429Y-60392857D01*
X133916667Y-60369048D01*
X134035714Y-60369048D01*
X134130952Y-60392857D01*
X134178571Y-60416667D01*
X134202381Y-60440476D01*
X134226190Y-60488095D01*
X134226190Y-60535714D01*
X134202381Y-60583333D01*
X134178571Y-60607143D01*
X134130952Y-60630952D01*
X134035714Y-60654762D01*
X133916667Y-60654762D01*
X133821429Y-60630952D01*
X133773810Y-60607143D01*
X133750000Y-60583333D01*
X133726190Y-60535714D01*
X132226190Y-61321428D02*
X131988095Y-61488095D01*
X132226190Y-61607142D02*
X131726190Y-61607142D01*
X131726190Y-61416666D01*
X131750000Y-61369047D01*
X131773810Y-61345238D01*
X131821429Y-61321428D01*
X131892857Y-61321428D01*
X131940476Y-61345238D01*
X131964286Y-61369047D01*
X131988095Y-61416666D01*
X131988095Y-61607142D01*
X131773810Y-61130952D02*
X131750000Y-61107142D01*
X131726190Y-61059523D01*
X131726190Y-60940476D01*
X131750000Y-60892857D01*
X131773810Y-60869047D01*
X131821429Y-60845238D01*
X131869048Y-60845238D01*
X131940476Y-60869047D01*
X132226190Y-61154761D01*
X132226190Y-60845238D01*
X132226190Y-60369048D02*
X132226190Y-60654762D01*
X132226190Y-60511905D02*
X131726190Y-60511905D01*
X131797619Y-60559524D01*
X131845238Y-60607143D01*
X131869048Y-60654762D01*
X130226190Y-61321428D02*
X129988095Y-61488095D01*
X130226190Y-61607142D02*
X129726190Y-61607142D01*
X129726190Y-61416666D01*
X129750000Y-61369047D01*
X129773810Y-61345238D01*
X129821429Y-61321428D01*
X129892857Y-61321428D01*
X129940476Y-61345238D01*
X129964286Y-61369047D01*
X129988095Y-61416666D01*
X129988095Y-61607142D01*
X129773810Y-61130952D02*
X129750000Y-61107142D01*
X129726190Y-61059523D01*
X129726190Y-60940476D01*
X129750000Y-60892857D01*
X129773810Y-60869047D01*
X129821429Y-60845238D01*
X129869048Y-60845238D01*
X129940476Y-60869047D01*
X130226190Y-61154761D01*
X130226190Y-60845238D01*
X129773810Y-60654762D02*
X129750000Y-60630952D01*
X129726190Y-60583333D01*
X129726190Y-60464286D01*
X129750000Y-60416667D01*
X129773810Y-60392857D01*
X129821429Y-60369048D01*
X129869048Y-60369048D01*
X129940476Y-60392857D01*
X130226190Y-60678571D01*
X130226190Y-60369048D01*
X128226190Y-61321428D02*
X127988095Y-61488095D01*
X128226190Y-61607142D02*
X127726190Y-61607142D01*
X127726190Y-61416666D01*
X127750000Y-61369047D01*
X127773810Y-61345238D01*
X127821429Y-61321428D01*
X127892857Y-61321428D01*
X127940476Y-61345238D01*
X127964286Y-61369047D01*
X127988095Y-61416666D01*
X127988095Y-61607142D01*
X127773810Y-61130952D02*
X127750000Y-61107142D01*
X127726190Y-61059523D01*
X127726190Y-60940476D01*
X127750000Y-60892857D01*
X127773810Y-60869047D01*
X127821429Y-60845238D01*
X127869048Y-60845238D01*
X127940476Y-60869047D01*
X128226190Y-61154761D01*
X128226190Y-60845238D01*
X127726190Y-60678571D02*
X127726190Y-60369048D01*
X127916667Y-60535714D01*
X127916667Y-60464286D01*
X127940476Y-60416667D01*
X127964286Y-60392857D01*
X128011905Y-60369048D01*
X128130952Y-60369048D01*
X128178571Y-60392857D01*
X128202381Y-60416667D01*
X128226190Y-60464286D01*
X128226190Y-60607143D01*
X128202381Y-60654762D01*
X128178571Y-60678571D01*
X90678572Y-68226190D02*
X90511905Y-67988095D01*
X90392858Y-68226190D02*
X90392858Y-67726190D01*
X90583334Y-67726190D01*
X90630953Y-67750000D01*
X90654762Y-67773810D01*
X90678572Y-67821429D01*
X90678572Y-67892857D01*
X90654762Y-67940476D01*
X90630953Y-67964286D01*
X90583334Y-67988095D01*
X90392858Y-67988095D01*
X90869048Y-67773810D02*
X90892858Y-67750000D01*
X90940477Y-67726190D01*
X91059524Y-67726190D01*
X91107143Y-67750000D01*
X91130953Y-67773810D01*
X91154762Y-67821429D01*
X91154762Y-67869048D01*
X91130953Y-67940476D01*
X90845239Y-68226190D01*
X91154762Y-68226190D01*
X91583333Y-67892857D02*
X91583333Y-68226190D01*
X91464286Y-67702381D02*
X91345238Y-68059524D01*
X91654762Y-68059524D01*
X90678572Y-66226190D02*
X90511905Y-65988095D01*
X90392858Y-66226190D02*
X90392858Y-65726190D01*
X90583334Y-65726190D01*
X90630953Y-65750000D01*
X90654762Y-65773810D01*
X90678572Y-65821429D01*
X90678572Y-65892857D01*
X90654762Y-65940476D01*
X90630953Y-65964286D01*
X90583334Y-65988095D01*
X90392858Y-65988095D01*
X90869048Y-65773810D02*
X90892858Y-65750000D01*
X90940477Y-65726190D01*
X91059524Y-65726190D01*
X91107143Y-65750000D01*
X91130953Y-65773810D01*
X91154762Y-65821429D01*
X91154762Y-65869048D01*
X91130953Y-65940476D01*
X90845239Y-66226190D01*
X91154762Y-66226190D01*
X91607143Y-65726190D02*
X91369048Y-65726190D01*
X91345238Y-65964286D01*
X91369048Y-65940476D01*
X91416667Y-65916667D01*
X91535714Y-65916667D01*
X91583333Y-65940476D01*
X91607143Y-65964286D01*
X91630952Y-66011905D01*
X91630952Y-66130952D01*
X91607143Y-66178571D01*
X91583333Y-66202381D01*
X91535714Y-66226190D01*
X91416667Y-66226190D01*
X91369048Y-66202381D01*
X91345238Y-66178571D01*
X133678572Y-72226190D02*
X133511905Y-71988095D01*
X133392858Y-72226190D02*
X133392858Y-71726190D01*
X133583334Y-71726190D01*
X133630953Y-71750000D01*
X133654762Y-71773810D01*
X133678572Y-71821429D01*
X133678572Y-71892857D01*
X133654762Y-71940476D01*
X133630953Y-71964286D01*
X133583334Y-71988095D01*
X133392858Y-71988095D01*
X133869048Y-71773810D02*
X133892858Y-71750000D01*
X133940477Y-71726190D01*
X134059524Y-71726190D01*
X134107143Y-71750000D01*
X134130953Y-71773810D01*
X134154762Y-71821429D01*
X134154762Y-71869048D01*
X134130953Y-71940476D01*
X133845239Y-72226190D01*
X134154762Y-72226190D01*
X134583333Y-71726190D02*
X134488095Y-71726190D01*
X134440476Y-71750000D01*
X134416667Y-71773810D01*
X134369048Y-71845238D01*
X134345238Y-71940476D01*
X134345238Y-72130952D01*
X134369048Y-72178571D01*
X134392857Y-72202381D01*
X134440476Y-72226190D01*
X134535714Y-72226190D01*
X134583333Y-72202381D01*
X134607143Y-72178571D01*
X134630952Y-72130952D01*
X134630952Y-72011905D01*
X134607143Y-71964286D01*
X134583333Y-71940476D01*
X134535714Y-71916667D01*
X134440476Y-71916667D01*
X134392857Y-71940476D01*
X134369048Y-71964286D01*
X134345238Y-72011905D01*
X90678572Y-70226190D02*
X90511905Y-69988095D01*
X90392858Y-70226190D02*
X90392858Y-69726190D01*
X90583334Y-69726190D01*
X90630953Y-69750000D01*
X90654762Y-69773810D01*
X90678572Y-69821429D01*
X90678572Y-69892857D01*
X90654762Y-69940476D01*
X90630953Y-69964286D01*
X90583334Y-69988095D01*
X90392858Y-69988095D01*
X90869048Y-69773810D02*
X90892858Y-69750000D01*
X90940477Y-69726190D01*
X91059524Y-69726190D01*
X91107143Y-69750000D01*
X91130953Y-69773810D01*
X91154762Y-69821429D01*
X91154762Y-69869048D01*
X91130953Y-69940476D01*
X90845239Y-70226190D01*
X91154762Y-70226190D01*
X91321429Y-69726190D02*
X91654762Y-69726190D01*
X91440476Y-70226190D01*
X95678572Y-76226190D02*
X95511905Y-75988095D01*
X95392858Y-76226190D02*
X95392858Y-75726190D01*
X95583334Y-75726190D01*
X95630953Y-75750000D01*
X95654762Y-75773810D01*
X95678572Y-75821429D01*
X95678572Y-75892857D01*
X95654762Y-75940476D01*
X95630953Y-75964286D01*
X95583334Y-75988095D01*
X95392858Y-75988095D01*
X95869048Y-75773810D02*
X95892858Y-75750000D01*
X95940477Y-75726190D01*
X96059524Y-75726190D01*
X96107143Y-75750000D01*
X96130953Y-75773810D01*
X96154762Y-75821429D01*
X96154762Y-75869048D01*
X96130953Y-75940476D01*
X95845239Y-76226190D01*
X96154762Y-76226190D01*
X96440476Y-75940476D02*
X96392857Y-75916667D01*
X96369048Y-75892857D01*
X96345238Y-75845238D01*
X96345238Y-75821429D01*
X96369048Y-75773810D01*
X96392857Y-75750000D01*
X96440476Y-75726190D01*
X96535714Y-75726190D01*
X96583333Y-75750000D01*
X96607143Y-75773810D01*
X96630952Y-75821429D01*
X96630952Y-75845238D01*
X96607143Y-75892857D01*
X96583333Y-75916667D01*
X96535714Y-75940476D01*
X96440476Y-75940476D01*
X96392857Y-75964286D01*
X96369048Y-75988095D01*
X96345238Y-76035714D01*
X96345238Y-76130952D01*
X96369048Y-76178571D01*
X96392857Y-76202381D01*
X96440476Y-76226190D01*
X96535714Y-76226190D01*
X96583333Y-76202381D01*
X96607143Y-76178571D01*
X96630952Y-76130952D01*
X96630952Y-76035714D01*
X96607143Y-75988095D01*
X96583333Y-75964286D01*
X96535714Y-75940476D01*
X90678572Y-72226190D02*
X90511905Y-71988095D01*
X90392858Y-72226190D02*
X90392858Y-71726190D01*
X90583334Y-71726190D01*
X90630953Y-71750000D01*
X90654762Y-71773810D01*
X90678572Y-71821429D01*
X90678572Y-71892857D01*
X90654762Y-71940476D01*
X90630953Y-71964286D01*
X90583334Y-71988095D01*
X90392858Y-71988095D01*
X90869048Y-71773810D02*
X90892858Y-71750000D01*
X90940477Y-71726190D01*
X91059524Y-71726190D01*
X91107143Y-71750000D01*
X91130953Y-71773810D01*
X91154762Y-71821429D01*
X91154762Y-71869048D01*
X91130953Y-71940476D01*
X90845239Y-72226190D01*
X91154762Y-72226190D01*
X91392857Y-72226190D02*
X91488095Y-72226190D01*
X91535714Y-72202381D01*
X91559524Y-72178571D01*
X91607143Y-72107143D01*
X91630952Y-72011905D01*
X91630952Y-71821429D01*
X91607143Y-71773810D01*
X91583333Y-71750000D01*
X91535714Y-71726190D01*
X91440476Y-71726190D01*
X91392857Y-71750000D01*
X91369048Y-71773810D01*
X91345238Y-71821429D01*
X91345238Y-71940476D01*
X91369048Y-71988095D01*
X91392857Y-72011905D01*
X91440476Y-72035714D01*
X91535714Y-72035714D01*
X91583333Y-72011905D01*
X91607143Y-71988095D01*
X91630952Y-71940476D01*
X90678572Y-74226190D02*
X90511905Y-73988095D01*
X90392858Y-74226190D02*
X90392858Y-73726190D01*
X90583334Y-73726190D01*
X90630953Y-73750000D01*
X90654762Y-73773810D01*
X90678572Y-73821429D01*
X90678572Y-73892857D01*
X90654762Y-73940476D01*
X90630953Y-73964286D01*
X90583334Y-73988095D01*
X90392858Y-73988095D01*
X90845239Y-73726190D02*
X91154762Y-73726190D01*
X90988096Y-73916667D01*
X91059524Y-73916667D01*
X91107143Y-73940476D01*
X91130953Y-73964286D01*
X91154762Y-74011905D01*
X91154762Y-74130952D01*
X91130953Y-74178571D01*
X91107143Y-74202381D01*
X91059524Y-74226190D01*
X90916667Y-74226190D01*
X90869048Y-74202381D01*
X90845239Y-74178571D01*
X91464286Y-73726190D02*
X91511905Y-73726190D01*
X91559524Y-73750000D01*
X91583333Y-73773810D01*
X91607143Y-73821429D01*
X91630952Y-73916667D01*
X91630952Y-74035714D01*
X91607143Y-74130952D01*
X91583333Y-74178571D01*
X91559524Y-74202381D01*
X91511905Y-74226190D01*
X91464286Y-74226190D01*
X91416667Y-74202381D01*
X91392857Y-74178571D01*
X91369048Y-74130952D01*
X91345238Y-74035714D01*
X91345238Y-73916667D01*
X91369048Y-73821429D01*
X91392857Y-73773810D01*
X91416667Y-73750000D01*
X91464286Y-73726190D01*
X90678572Y-76226190D02*
X90511905Y-75988095D01*
X90392858Y-76226190D02*
X90392858Y-75726190D01*
X90583334Y-75726190D01*
X90630953Y-75750000D01*
X90654762Y-75773810D01*
X90678572Y-75821429D01*
X90678572Y-75892857D01*
X90654762Y-75940476D01*
X90630953Y-75964286D01*
X90583334Y-75988095D01*
X90392858Y-75988095D01*
X90845239Y-75726190D02*
X91154762Y-75726190D01*
X90988096Y-75916667D01*
X91059524Y-75916667D01*
X91107143Y-75940476D01*
X91130953Y-75964286D01*
X91154762Y-76011905D01*
X91154762Y-76130952D01*
X91130953Y-76178571D01*
X91107143Y-76202381D01*
X91059524Y-76226190D01*
X90916667Y-76226190D01*
X90869048Y-76202381D01*
X90845239Y-76178571D01*
X91630952Y-76226190D02*
X91345238Y-76226190D01*
X91488095Y-76226190D02*
X91488095Y-75726190D01*
X91440476Y-75797619D01*
X91392857Y-75845238D01*
X91345238Y-75869048D01*
X155726190Y-71321428D02*
X155488095Y-71488095D01*
X155726190Y-71607142D02*
X155226190Y-71607142D01*
X155226190Y-71416666D01*
X155250000Y-71369047D01*
X155273810Y-71345238D01*
X155321429Y-71321428D01*
X155392857Y-71321428D01*
X155440476Y-71345238D01*
X155464286Y-71369047D01*
X155488095Y-71416666D01*
X155488095Y-71607142D01*
X155226190Y-71154761D02*
X155226190Y-70845238D01*
X155416667Y-71011904D01*
X155416667Y-70940476D01*
X155440476Y-70892857D01*
X155464286Y-70869047D01*
X155511905Y-70845238D01*
X155630952Y-70845238D01*
X155678571Y-70869047D01*
X155702381Y-70892857D01*
X155726190Y-70940476D01*
X155726190Y-71083333D01*
X155702381Y-71130952D01*
X155678571Y-71154761D01*
X155273810Y-70654762D02*
X155250000Y-70630952D01*
X155226190Y-70583333D01*
X155226190Y-70464286D01*
X155250000Y-70416667D01*
X155273810Y-70392857D01*
X155321429Y-70369048D01*
X155369048Y-70369048D01*
X155440476Y-70392857D01*
X155726190Y-70678571D01*
X155726190Y-70369048D01*
X155726190Y-89321428D02*
X155488095Y-89488095D01*
X155726190Y-89607142D02*
X155226190Y-89607142D01*
X155226190Y-89416666D01*
X155250000Y-89369047D01*
X155273810Y-89345238D01*
X155321429Y-89321428D01*
X155392857Y-89321428D01*
X155440476Y-89345238D01*
X155464286Y-89369047D01*
X155488095Y-89416666D01*
X155488095Y-89607142D01*
X155226190Y-89154761D02*
X155226190Y-88845238D01*
X155416667Y-89011904D01*
X155416667Y-88940476D01*
X155440476Y-88892857D01*
X155464286Y-88869047D01*
X155511905Y-88845238D01*
X155630952Y-88845238D01*
X155678571Y-88869047D01*
X155702381Y-88892857D01*
X155726190Y-88940476D01*
X155726190Y-89083333D01*
X155702381Y-89130952D01*
X155678571Y-89154761D01*
X155226190Y-88678571D02*
X155226190Y-88369048D01*
X155416667Y-88535714D01*
X155416667Y-88464286D01*
X155440476Y-88416667D01*
X155464286Y-88392857D01*
X155511905Y-88369048D01*
X155630952Y-88369048D01*
X155678571Y-88392857D01*
X155702381Y-88416667D01*
X155726190Y-88464286D01*
X155726190Y-88607143D01*
X155702381Y-88654762D01*
X155678571Y-88678571D01*
X121226190Y-66321428D02*
X120988095Y-66488095D01*
X121226190Y-66607142D02*
X120726190Y-66607142D01*
X120726190Y-66416666D01*
X120750000Y-66369047D01*
X120773810Y-66345238D01*
X120821429Y-66321428D01*
X120892857Y-66321428D01*
X120940476Y-66345238D01*
X120964286Y-66369047D01*
X120988095Y-66416666D01*
X120988095Y-66607142D01*
X120726190Y-66154761D02*
X120726190Y-65845238D01*
X120916667Y-66011904D01*
X120916667Y-65940476D01*
X120940476Y-65892857D01*
X120964286Y-65869047D01*
X121011905Y-65845238D01*
X121130952Y-65845238D01*
X121178571Y-65869047D01*
X121202381Y-65892857D01*
X121226190Y-65940476D01*
X121226190Y-66083333D01*
X121202381Y-66130952D01*
X121178571Y-66154761D01*
X120892857Y-65416667D02*
X121226190Y-65416667D01*
X120702381Y-65535714D02*
X121059524Y-65654762D01*
X121059524Y-65345238D01*
X118226190Y-66321428D02*
X117988095Y-66488095D01*
X118226190Y-66607142D02*
X117726190Y-66607142D01*
X117726190Y-66416666D01*
X117750000Y-66369047D01*
X117773810Y-66345238D01*
X117821429Y-66321428D01*
X117892857Y-66321428D01*
X117940476Y-66345238D01*
X117964286Y-66369047D01*
X117988095Y-66416666D01*
X117988095Y-66607142D01*
X117726190Y-66154761D02*
X117726190Y-65845238D01*
X117916667Y-66011904D01*
X117916667Y-65940476D01*
X117940476Y-65892857D01*
X117964286Y-65869047D01*
X118011905Y-65845238D01*
X118130952Y-65845238D01*
X118178571Y-65869047D01*
X118202381Y-65892857D01*
X118226190Y-65940476D01*
X118226190Y-66083333D01*
X118202381Y-66130952D01*
X118178571Y-66154761D01*
X117726190Y-65392857D02*
X117726190Y-65630952D01*
X117964286Y-65654762D01*
X117940476Y-65630952D01*
X117916667Y-65583333D01*
X117916667Y-65464286D01*
X117940476Y-65416667D01*
X117964286Y-65392857D01*
X118011905Y-65369048D01*
X118130952Y-65369048D01*
X118178571Y-65392857D01*
X118202381Y-65416667D01*
X118226190Y-65464286D01*
X118226190Y-65583333D01*
X118202381Y-65630952D01*
X118178571Y-65654762D01*
X90726190Y-81821428D02*
X90488095Y-81988095D01*
X90726190Y-82107142D02*
X90226190Y-82107142D01*
X90226190Y-81916666D01*
X90250000Y-81869047D01*
X90273810Y-81845238D01*
X90321429Y-81821428D01*
X90392857Y-81821428D01*
X90440476Y-81845238D01*
X90464286Y-81869047D01*
X90488095Y-81916666D01*
X90488095Y-82107142D01*
X90226190Y-81654761D02*
X90226190Y-81345238D01*
X90416667Y-81511904D01*
X90416667Y-81440476D01*
X90440476Y-81392857D01*
X90464286Y-81369047D01*
X90511905Y-81345238D01*
X90630952Y-81345238D01*
X90678571Y-81369047D01*
X90702381Y-81392857D01*
X90726190Y-81440476D01*
X90726190Y-81583333D01*
X90702381Y-81630952D01*
X90678571Y-81654761D01*
X90226190Y-80916667D02*
X90226190Y-81011905D01*
X90250000Y-81059524D01*
X90273810Y-81083333D01*
X90345238Y-81130952D01*
X90440476Y-81154762D01*
X90630952Y-81154762D01*
X90678571Y-81130952D01*
X90702381Y-81107143D01*
X90726190Y-81059524D01*
X90726190Y-80964286D01*
X90702381Y-80916667D01*
X90678571Y-80892857D01*
X90630952Y-80869048D01*
X90511905Y-80869048D01*
X90464286Y-80892857D01*
X90440476Y-80916667D01*
X90416667Y-80964286D01*
X90416667Y-81059524D01*
X90440476Y-81107143D01*
X90464286Y-81130952D01*
X90511905Y-81154762D01*
X124278572Y-73826190D02*
X124111905Y-73588095D01*
X123992858Y-73826190D02*
X123992858Y-73326190D01*
X124183334Y-73326190D01*
X124230953Y-73350000D01*
X124254762Y-73373810D01*
X124278572Y-73421429D01*
X124278572Y-73492857D01*
X124254762Y-73540476D01*
X124230953Y-73564286D01*
X124183334Y-73588095D01*
X123992858Y-73588095D01*
X124445239Y-73326190D02*
X124754762Y-73326190D01*
X124588096Y-73516667D01*
X124659524Y-73516667D01*
X124707143Y-73540476D01*
X124730953Y-73564286D01*
X124754762Y-73611905D01*
X124754762Y-73730952D01*
X124730953Y-73778571D01*
X124707143Y-73802381D01*
X124659524Y-73826190D01*
X124516667Y-73826190D01*
X124469048Y-73802381D01*
X124445239Y-73778571D01*
X124921429Y-73326190D02*
X125254762Y-73326190D01*
X125040476Y-73826190D01*
X101226190Y-94821428D02*
X100988095Y-94988095D01*
X101226190Y-95107142D02*
X100726190Y-95107142D01*
X100726190Y-94916666D01*
X100750000Y-94869047D01*
X100773810Y-94845238D01*
X100821429Y-94821428D01*
X100892857Y-94821428D01*
X100940476Y-94845238D01*
X100964286Y-94869047D01*
X100988095Y-94916666D01*
X100988095Y-95107142D01*
X100726190Y-94654761D02*
X100726190Y-94345238D01*
X100916667Y-94511904D01*
X100916667Y-94440476D01*
X100940476Y-94392857D01*
X100964286Y-94369047D01*
X101011905Y-94345238D01*
X101130952Y-94345238D01*
X101178571Y-94369047D01*
X101202381Y-94392857D01*
X101226190Y-94440476D01*
X101226190Y-94583333D01*
X101202381Y-94630952D01*
X101178571Y-94654761D01*
X100940476Y-94059524D02*
X100916667Y-94107143D01*
X100892857Y-94130952D01*
X100845238Y-94154762D01*
X100821429Y-94154762D01*
X100773810Y-94130952D01*
X100750000Y-94107143D01*
X100726190Y-94059524D01*
X100726190Y-93964286D01*
X100750000Y-93916667D01*
X100773810Y-93892857D01*
X100821429Y-93869048D01*
X100845238Y-93869048D01*
X100892857Y-93892857D01*
X100916667Y-93916667D01*
X100940476Y-93964286D01*
X100940476Y-94059524D01*
X100964286Y-94107143D01*
X100988095Y-94130952D01*
X101035714Y-94154762D01*
X101130952Y-94154762D01*
X101178571Y-94130952D01*
X101202381Y-94107143D01*
X101226190Y-94059524D01*
X101226190Y-93964286D01*
X101202381Y-93916667D01*
X101178571Y-93892857D01*
X101130952Y-93869048D01*
X101035714Y-93869048D01*
X100988095Y-93892857D01*
X100964286Y-93916667D01*
X100940476Y-93964286D01*
X97976190Y-94821428D02*
X97738095Y-94988095D01*
X97976190Y-95107142D02*
X97476190Y-95107142D01*
X97476190Y-94916666D01*
X97500000Y-94869047D01*
X97523810Y-94845238D01*
X97571429Y-94821428D01*
X97642857Y-94821428D01*
X97690476Y-94845238D01*
X97714286Y-94869047D01*
X97738095Y-94916666D01*
X97738095Y-95107142D01*
X97476190Y-94654761D02*
X97476190Y-94345238D01*
X97666667Y-94511904D01*
X97666667Y-94440476D01*
X97690476Y-94392857D01*
X97714286Y-94369047D01*
X97761905Y-94345238D01*
X97880952Y-94345238D01*
X97928571Y-94369047D01*
X97952381Y-94392857D01*
X97976190Y-94440476D01*
X97976190Y-94583333D01*
X97952381Y-94630952D01*
X97928571Y-94654761D01*
X97976190Y-94107143D02*
X97976190Y-94011905D01*
X97952381Y-93964286D01*
X97928571Y-93940476D01*
X97857143Y-93892857D01*
X97761905Y-93869048D01*
X97571429Y-93869048D01*
X97523810Y-93892857D01*
X97500000Y-93916667D01*
X97476190Y-93964286D01*
X97476190Y-94059524D01*
X97500000Y-94107143D01*
X97523810Y-94130952D01*
X97571429Y-94154762D01*
X97690476Y-94154762D01*
X97738095Y-94130952D01*
X97761905Y-94107143D01*
X97785714Y-94059524D01*
X97785714Y-93964286D01*
X97761905Y-93916667D01*
X97738095Y-93892857D01*
X97690476Y-93869048D01*
X120678572Y-88226190D02*
X120511905Y-87988095D01*
X120392858Y-88226190D02*
X120392858Y-87726190D01*
X120583334Y-87726190D01*
X120630953Y-87750000D01*
X120654762Y-87773810D01*
X120678572Y-87821429D01*
X120678572Y-87892857D01*
X120654762Y-87940476D01*
X120630953Y-87964286D01*
X120583334Y-87988095D01*
X120392858Y-87988095D01*
X121107143Y-87892857D02*
X121107143Y-88226190D01*
X120988096Y-87702381D02*
X120869048Y-88059524D01*
X121178572Y-88059524D01*
X121464286Y-87726190D02*
X121511905Y-87726190D01*
X121559524Y-87750000D01*
X121583333Y-87773810D01*
X121607143Y-87821429D01*
X121630952Y-87916667D01*
X121630952Y-88035714D01*
X121607143Y-88130952D01*
X121583333Y-88178571D01*
X121559524Y-88202381D01*
X121511905Y-88226190D01*
X121464286Y-88226190D01*
X121416667Y-88202381D01*
X121392857Y-88178571D01*
X121369048Y-88130952D01*
X121345238Y-88035714D01*
X121345238Y-87916667D01*
X121369048Y-87821429D01*
X121392857Y-87773810D01*
X121416667Y-87750000D01*
X121464286Y-87726190D01*
X127476190Y-94678571D02*
X127976190Y-94511904D01*
X127476190Y-94345238D01*
X127976190Y-94178571D02*
X127642857Y-94178571D01*
X127738095Y-94178571D02*
X127690476Y-94154762D01*
X127666667Y-94130952D01*
X127642857Y-94083333D01*
X127642857Y-94035714D01*
X127952381Y-93678571D02*
X127976190Y-93726190D01*
X127976190Y-93821428D01*
X127952381Y-93869047D01*
X127904762Y-93892857D01*
X127714286Y-93892857D01*
X127666667Y-93869047D01*
X127642857Y-93821428D01*
X127642857Y-93726190D01*
X127666667Y-93678571D01*
X127714286Y-93654762D01*
X127761905Y-93654762D01*
X127809524Y-93892857D01*
X127642857Y-93511905D02*
X127642857Y-93321429D01*
X127976190Y-93440476D02*
X127547619Y-93440476D01*
X127500000Y-93416667D01*
X127476190Y-93369048D01*
X127476190Y-93321429D01*
X100321429Y-59726190D02*
X100488096Y-60226190D01*
X100654762Y-59726190D01*
X100821429Y-60226190D02*
X100821429Y-59892857D01*
X100821429Y-59988095D02*
X100845238Y-59940476D01*
X100869048Y-59916667D01*
X100916667Y-59892857D01*
X100964286Y-59892857D01*
X101321429Y-60202381D02*
X101273810Y-60226190D01*
X101178572Y-60226190D01*
X101130953Y-60202381D01*
X101107143Y-60154762D01*
X101107143Y-59964286D01*
X101130953Y-59916667D01*
X101178572Y-59892857D01*
X101273810Y-59892857D01*
X101321429Y-59916667D01*
X101345238Y-59964286D01*
X101345238Y-60011905D01*
X101107143Y-60059524D01*
X101488095Y-59892857D02*
X101678571Y-59892857D01*
X101559524Y-60226190D02*
X101559524Y-59797619D01*
X101583333Y-59750000D01*
X101630952Y-59726190D01*
X101678571Y-59726190D01*
D10*
X108800000Y-57783333D02*
X108900000Y-57816667D01*
X109066667Y-57816667D01*
X109133334Y-57783333D01*
X109166667Y-57750000D01*
X109200000Y-57683333D01*
X109200000Y-57616667D01*
X109166667Y-57550000D01*
X109133334Y-57516667D01*
X109066667Y-57483333D01*
X108933334Y-57450000D01*
X108866667Y-57416667D01*
X108833334Y-57383333D01*
X108800000Y-57316667D01*
X108800000Y-57250000D01*
X108833334Y-57183333D01*
X108866667Y-57150000D01*
X108933334Y-57116667D01*
X109100000Y-57116667D01*
X109200000Y-57150000D01*
X109766667Y-57783333D02*
X109700001Y-57816667D01*
X109566667Y-57816667D01*
X109500001Y-57783333D01*
X109466667Y-57716667D01*
X109466667Y-57450000D01*
X109500001Y-57383333D01*
X109566667Y-57350000D01*
X109700001Y-57350000D01*
X109766667Y-57383333D01*
X109800001Y-57450000D01*
X109800001Y-57516667D01*
X109466667Y-57583333D01*
X110000001Y-57350000D02*
X110266667Y-57350000D01*
X110100001Y-57116667D02*
X110100001Y-57716667D01*
X110133334Y-57783333D01*
X110200001Y-57816667D01*
X110266667Y-57816667D01*
X95450001Y-79616667D02*
X95683334Y-80316667D01*
X95916667Y-79616667D01*
X96250001Y-80316667D02*
X96183334Y-80283333D01*
X96150001Y-80250000D01*
X96116667Y-80183333D01*
X96116667Y-79983333D01*
X96150001Y-79916667D01*
X96183334Y-79883333D01*
X96250001Y-79850000D01*
X96350001Y-79850000D01*
X96416667Y-79883333D01*
X96450001Y-79916667D01*
X96483334Y-79983333D01*
X96483334Y-80183333D01*
X96450001Y-80250000D01*
X96416667Y-80283333D01*
X96350001Y-80316667D01*
X96250001Y-80316667D01*
X126850000Y-66533333D02*
X126950000Y-66566667D01*
X127116667Y-66566667D01*
X127183334Y-66533333D01*
X127216667Y-66500000D01*
X127250000Y-66433333D01*
X127250000Y-66366667D01*
X127216667Y-66300000D01*
X127183334Y-66266667D01*
X127116667Y-66233333D01*
X126983334Y-66200000D01*
X126916667Y-66166667D01*
X126883334Y-66133333D01*
X126850000Y-66066667D01*
X126850000Y-66000000D01*
X126883334Y-65933333D01*
X126916667Y-65900000D01*
X126983334Y-65866667D01*
X127150000Y-65866667D01*
X127250000Y-65900000D01*
X127816667Y-66533333D02*
X127750001Y-66566667D01*
X127616667Y-66566667D01*
X127550001Y-66533333D01*
X127516667Y-66466667D01*
X127516667Y-66200000D01*
X127550001Y-66133333D01*
X127616667Y-66100000D01*
X127750001Y-66100000D01*
X127816667Y-66133333D01*
X127850001Y-66200000D01*
X127850001Y-66266667D01*
X127516667Y-66333333D01*
X128150001Y-66100000D02*
X128150001Y-66566667D01*
X128150001Y-66166667D02*
X128183334Y-66133333D01*
X128250001Y-66100000D01*
X128350001Y-66100000D01*
X128416667Y-66133333D01*
X128450001Y-66200000D01*
X128450001Y-66566667D01*
X128750000Y-66533333D02*
X128816667Y-66566667D01*
X128950000Y-66566667D01*
X129016667Y-66533333D01*
X129050000Y-66466667D01*
X129050000Y-66433333D01*
X129016667Y-66366667D01*
X128950000Y-66333333D01*
X128850000Y-66333333D01*
X128783334Y-66300000D01*
X128750000Y-66233333D01*
X128750000Y-66200000D01*
X128783334Y-66133333D01*
X128850000Y-66100000D01*
X128950000Y-66100000D01*
X129016667Y-66133333D01*
X129616667Y-66533333D02*
X129550001Y-66566667D01*
X129416667Y-66566667D01*
X129350001Y-66533333D01*
X129316667Y-66466667D01*
X129316667Y-66200000D01*
X129350001Y-66133333D01*
X129416667Y-66100000D01*
X129550001Y-66100000D01*
X129616667Y-66133333D01*
X129650001Y-66200000D01*
X129650001Y-66266667D01*
X129316667Y-66333333D01*
X116716668Y-69116667D02*
X117116668Y-69116667D01*
X116916668Y-69816667D02*
X116916668Y-69116667D01*
X117616667Y-69783333D02*
X117550001Y-69816667D01*
X117416667Y-69816667D01*
X117350001Y-69783333D01*
X117316667Y-69716667D01*
X117316667Y-69450000D01*
X117350001Y-69383333D01*
X117416667Y-69350000D01*
X117550001Y-69350000D01*
X117616667Y-69383333D01*
X117650001Y-69450000D01*
X117650001Y-69516667D01*
X117316667Y-69583333D01*
X117950001Y-69816667D02*
X117950001Y-69350000D01*
X117950001Y-69416667D02*
X117983334Y-69383333D01*
X118050001Y-69350000D01*
X118150001Y-69350000D01*
X118216667Y-69383333D01*
X118250001Y-69450000D01*
X118250001Y-69816667D01*
X118250001Y-69450000D02*
X118283334Y-69383333D01*
X118350001Y-69350000D01*
X118450001Y-69350000D01*
X118516667Y-69383333D01*
X118550001Y-69450000D01*
X118550001Y-69816667D01*
X118883334Y-69350000D02*
X118883334Y-70050000D01*
X118883334Y-69383333D02*
X118950000Y-69350000D01*
X119083334Y-69350000D01*
X119150000Y-69383333D01*
X119183334Y-69416667D01*
X119216667Y-69483333D01*
X119216667Y-69683333D01*
X119183334Y-69750000D01*
X119150000Y-69783333D01*
X119083334Y-69816667D01*
X118950000Y-69816667D01*
X118883334Y-69783333D01*
X113650001Y-69816667D02*
X113650001Y-69116667D01*
X113983334Y-69816667D02*
X113983334Y-69350000D01*
X113983334Y-69416667D02*
X114016667Y-69383333D01*
X114083334Y-69350000D01*
X114183334Y-69350000D01*
X114250000Y-69383333D01*
X114283334Y-69450000D01*
X114283334Y-69816667D01*
X114283334Y-69450000D02*
X114316667Y-69383333D01*
X114383334Y-69350000D01*
X114483334Y-69350000D01*
X114550000Y-69383333D01*
X114583334Y-69450000D01*
X114583334Y-69816667D01*
X115016667Y-69816667D02*
X114950000Y-69783333D01*
X114916667Y-69750000D01*
X114883333Y-69683333D01*
X114883333Y-69483333D01*
X114916667Y-69416667D01*
X114950000Y-69383333D01*
X115016667Y-69350000D01*
X115116667Y-69350000D01*
X115183333Y-69383333D01*
X115216667Y-69416667D01*
X115250000Y-69483333D01*
X115250000Y-69683333D01*
X115216667Y-69750000D01*
X115183333Y-69783333D01*
X115116667Y-69816667D01*
X115016667Y-69816667D01*
X115550000Y-69350000D02*
X115550000Y-69816667D01*
X115550000Y-69416667D02*
X115583333Y-69383333D01*
X115650000Y-69350000D01*
X115750000Y-69350000D01*
X115816666Y-69383333D01*
X115850000Y-69450000D01*
X115850000Y-69816667D01*
D15*
X98857143Y-53452381D02*
X99190476Y-54452381D01*
X99523810Y-53452381D01*
X100000000Y-54452381D02*
X99904762Y-54404762D01*
X99857143Y-54357143D01*
X99809524Y-54261905D01*
X99809524Y-53976190D01*
X99857143Y-53880952D01*
X99904762Y-53833333D01*
X100000000Y-53785714D01*
X100142858Y-53785714D01*
X100238096Y-53833333D01*
X100285715Y-53880952D01*
X100333334Y-53976190D01*
X100333334Y-54261905D01*
X100285715Y-54357143D01*
X100238096Y-54404762D01*
X100142858Y-54452381D01*
X100000000Y-54452381D01*
X101190477Y-53785714D02*
X101190477Y-54452381D01*
X100761905Y-53785714D02*
X100761905Y-54309524D01*
X100809524Y-54404762D01*
X100904762Y-54452381D01*
X101047620Y-54452381D01*
X101142858Y-54404762D01*
X101190477Y-54357143D01*
X101523810Y-53785714D02*
X101904762Y-53785714D01*
X101666667Y-53452381D02*
X101666667Y-54309524D01*
X101714286Y-54404762D01*
X101809524Y-54452381D01*
X101904762Y-54452381D01*
X102238096Y-54071429D02*
X103000001Y-54071429D01*
X102619049Y-54452381D02*
X102619049Y-53690476D01*
X105166667Y-65866667D02*
X105566667Y-65866667D01*
X105366667Y-66566667D02*
X105366667Y-65866667D01*
X106133333Y-66566667D02*
X105800000Y-66566667D01*
X105800000Y-65866667D01*
X106766667Y-66500000D02*
X106733333Y-66533333D01*
X106633333Y-66566667D01*
X106566667Y-66566667D01*
X106466667Y-66533333D01*
X106400000Y-66466667D01*
X106366667Y-66400000D01*
X106333333Y-66266667D01*
X106333333Y-66166667D01*
X106366667Y-66033333D01*
X106400000Y-65966667D01*
X106466667Y-65900000D01*
X106566667Y-65866667D01*
X106633333Y-65866667D01*
X106733333Y-65900000D01*
X106766667Y-65933333D01*
X107033333Y-65933333D02*
X107066667Y-65900000D01*
X107133333Y-65866667D01*
X107300000Y-65866667D01*
X107366667Y-65900000D01*
X107400000Y-65933333D01*
X107433333Y-66000000D01*
X107433333Y-66066667D01*
X107400000Y-66166667D01*
X107000000Y-66566667D01*
X107433333Y-66566667D01*
X107666667Y-65866667D02*
X108133334Y-65866667D01*
X107833334Y-66566667D01*
X108366667Y-65933333D02*
X108400001Y-65900000D01*
X108466667Y-65866667D01*
X108633334Y-65866667D01*
X108700001Y-65900000D01*
X108733334Y-65933333D01*
X108766667Y-66000000D01*
X108766667Y-66066667D01*
X108733334Y-66166667D01*
X108333334Y-66566667D01*
X108766667Y-66566667D01*
X124816667Y-99266667D02*
X124116667Y-99266667D01*
X124616667Y-99033334D01*
X124116667Y-98800001D01*
X124816667Y-98800001D01*
X124750000Y-98066667D02*
X124783333Y-98100001D01*
X124816667Y-98200001D01*
X124816667Y-98266667D01*
X124783333Y-98366667D01*
X124716667Y-98433334D01*
X124650000Y-98466667D01*
X124516667Y-98500001D01*
X124416667Y-98500001D01*
X124283333Y-98466667D01*
X124216667Y-98433334D01*
X124150000Y-98366667D01*
X124116667Y-98266667D01*
X124116667Y-98200001D01*
X124150000Y-98100001D01*
X124183333Y-98066667D01*
X124816667Y-97766667D02*
X124116667Y-97766667D01*
X124116667Y-97500001D01*
X124150000Y-97433334D01*
X124183333Y-97400001D01*
X124250000Y-97366667D01*
X124350000Y-97366667D01*
X124416667Y-97400001D01*
X124450000Y-97433334D01*
X124483333Y-97500001D01*
X124483333Y-97766667D01*
X124816667Y-96700001D02*
X124816667Y-97100001D01*
X124816667Y-96900001D02*
X124116667Y-96900001D01*
X124216667Y-96966667D01*
X124283333Y-97033334D01*
X124316667Y-97100001D01*
X124116667Y-96066667D02*
X124116667Y-96400000D01*
X124450000Y-96433334D01*
X124416667Y-96400000D01*
X124383333Y-96333334D01*
X124383333Y-96166667D01*
X124416667Y-96100000D01*
X124450000Y-96066667D01*
X124516667Y-96033334D01*
X124683333Y-96033334D01*
X124750000Y-96066667D01*
X124783333Y-96100000D01*
X124816667Y-96166667D01*
X124816667Y-96333334D01*
X124783333Y-96400000D01*
X124750000Y-96433334D01*
X124116667Y-95600000D02*
X124116667Y-95533333D01*
X124150000Y-95466667D01*
X124183333Y-95433333D01*
X124250000Y-95400000D01*
X124383333Y-95366667D01*
X124550000Y-95366667D01*
X124683333Y-95400000D01*
X124750000Y-95433333D01*
X124783333Y-95466667D01*
X124816667Y-95533333D01*
X124816667Y-95600000D01*
X124783333Y-95666667D01*
X124750000Y-95700000D01*
X124683333Y-95733333D01*
X124550000Y-95766667D01*
X124383333Y-95766667D01*
X124250000Y-95733333D01*
X124183333Y-95700000D01*
X124150000Y-95666667D01*
X124116667Y-95600000D01*
X124816667Y-94700000D02*
X124816667Y-95100000D01*
X124816667Y-94900000D02*
X124116667Y-94900000D01*
X124216667Y-94966666D01*
X124283333Y-95033333D01*
X124316667Y-95100000D01*
X94233333Y-67066667D02*
X94233333Y-66366667D01*
X94466666Y-66866667D01*
X94699999Y-66366667D01*
X94699999Y-67066667D01*
X95433333Y-67000000D02*
X95399999Y-67033333D01*
X95299999Y-67066667D01*
X95233333Y-67066667D01*
X95133333Y-67033333D01*
X95066666Y-66966667D01*
X95033333Y-66900000D01*
X94999999Y-66766667D01*
X94999999Y-66666667D01*
X95033333Y-66533333D01*
X95066666Y-66466667D01*
X95133333Y-66400000D01*
X95233333Y-66366667D01*
X95299999Y-66366667D01*
X95399999Y-66400000D01*
X95433333Y-66433333D01*
X95733333Y-67066667D02*
X95733333Y-66366667D01*
X95999999Y-66366667D01*
X96066666Y-66400000D01*
X96099999Y-66433333D01*
X96133333Y-66500000D01*
X96133333Y-66600000D01*
X96099999Y-66666667D01*
X96066666Y-66700000D01*
X95999999Y-66733333D01*
X95733333Y-66733333D01*
X96799999Y-67066667D02*
X96399999Y-67066667D01*
X96599999Y-67066667D02*
X96599999Y-66366667D01*
X96533333Y-66466667D01*
X96466666Y-66533333D01*
X96399999Y-66566667D01*
X97433333Y-66366667D02*
X97100000Y-66366667D01*
X97066666Y-66700000D01*
X97100000Y-66666667D01*
X97166666Y-66633333D01*
X97333333Y-66633333D01*
X97400000Y-66666667D01*
X97433333Y-66700000D01*
X97466666Y-66766667D01*
X97466666Y-66933333D01*
X97433333Y-67000000D01*
X97400000Y-67033333D01*
X97333333Y-67066667D01*
X97166666Y-67066667D01*
X97100000Y-67033333D01*
X97066666Y-67000000D01*
X97900000Y-66366667D02*
X97966667Y-66366667D01*
X98033333Y-66400000D01*
X98066667Y-66433333D01*
X98100000Y-66500000D01*
X98133333Y-66633333D01*
X98133333Y-66800000D01*
X98100000Y-66933333D01*
X98066667Y-67000000D01*
X98033333Y-67033333D01*
X97966667Y-67066667D01*
X97900000Y-67066667D01*
X97833333Y-67033333D01*
X97800000Y-67000000D01*
X97766667Y-66933333D01*
X97733333Y-66800000D01*
X97733333Y-66633333D01*
X97766667Y-66500000D01*
X97800000Y-66433333D01*
X97833333Y-66400000D01*
X97900000Y-66366667D01*
X98800000Y-67066667D02*
X98400000Y-67066667D01*
X98600000Y-67066667D02*
X98600000Y-66366667D01*
X98533334Y-66466667D01*
X98466667Y-66533333D01*
X98400000Y-66566667D01*
X106033333Y-72866667D02*
X106433333Y-72866667D01*
X106233333Y-73566667D02*
X106233333Y-72866667D01*
X106999999Y-73566667D02*
X106666666Y-73566667D01*
X106666666Y-72866667D01*
X107133333Y-72866667D02*
X107366666Y-73566667D01*
X107599999Y-72866667D01*
X108166666Y-72866667D02*
X107833333Y-72866667D01*
X107799999Y-73200000D01*
X107833333Y-73166667D01*
X107899999Y-73133333D01*
X108066666Y-73133333D01*
X108133333Y-73166667D01*
X108166666Y-73200000D01*
X108199999Y-73266667D01*
X108199999Y-73433333D01*
X108166666Y-73500000D01*
X108133333Y-73533333D01*
X108066666Y-73566667D01*
X107899999Y-73566667D01*
X107833333Y-73533333D01*
X107799999Y-73500000D01*
X108800000Y-72866667D02*
X108666666Y-72866667D01*
X108600000Y-72900000D01*
X108566666Y-72933333D01*
X108500000Y-73033333D01*
X108466666Y-73166667D01*
X108466666Y-73433333D01*
X108500000Y-73500000D01*
X108533333Y-73533333D01*
X108600000Y-73566667D01*
X108733333Y-73566667D01*
X108800000Y-73533333D01*
X108833333Y-73500000D01*
X108866666Y-73433333D01*
X108866666Y-73266667D01*
X108833333Y-73200000D01*
X108800000Y-73166667D01*
X108733333Y-73133333D01*
X108600000Y-73133333D01*
X108533333Y-73166667D01*
X108500000Y-73200000D01*
X108466666Y-73266667D01*
X109533333Y-73566667D02*
X109133333Y-73566667D01*
X109333333Y-73566667D02*
X109333333Y-72866667D01*
X109266667Y-72966667D01*
X109200000Y-73033333D01*
X109133333Y-73066667D01*
X110133334Y-72866667D02*
X110000000Y-72866667D01*
X109933334Y-72900000D01*
X109900000Y-72933333D01*
X109833334Y-73033333D01*
X109800000Y-73166667D01*
X109800000Y-73433333D01*
X109833334Y-73500000D01*
X109866667Y-73533333D01*
X109933334Y-73566667D01*
X110066667Y-73566667D01*
X110133334Y-73533333D01*
X110166667Y-73500000D01*
X110200000Y-73433333D01*
X110200000Y-73266667D01*
X110166667Y-73200000D01*
X110133334Y-73166667D01*
X110066667Y-73133333D01*
X109933334Y-73133333D01*
X109866667Y-73166667D01*
X109833334Y-73200000D01*
X109800000Y-73266667D01*
X110900001Y-73500000D02*
X110866667Y-73533333D01*
X110766667Y-73566667D01*
X110700001Y-73566667D01*
X110600001Y-73533333D01*
X110533334Y-73466667D01*
X110500001Y-73400000D01*
X110466667Y-73266667D01*
X110466667Y-73166667D01*
X110500001Y-73033333D01*
X110533334Y-72966667D01*
X110600001Y-72900000D01*
X110700001Y-72866667D01*
X110766667Y-72866667D01*
X110866667Y-72900000D01*
X110900001Y-72933333D01*
X118023810Y-56452381D02*
X117547619Y-56452381D01*
X117547619Y-55452381D01*
X118214286Y-55452381D02*
X118785715Y-55452381D01*
X118500000Y-56452381D02*
X118500000Y-55452381D01*
X119023810Y-55452381D02*
X119642858Y-55452381D01*
X119309524Y-55833333D01*
X119452382Y-55833333D01*
X119547620Y-55880952D01*
X119595239Y-55928571D01*
X119642858Y-56023810D01*
X119642858Y-56261905D01*
X119595239Y-56357143D01*
X119547620Y-56404762D01*
X119452382Y-56452381D01*
X119166667Y-56452381D01*
X119071429Y-56404762D01*
X119023810Y-56357143D01*
X120261905Y-55452381D02*
X120357144Y-55452381D01*
X120452382Y-55500000D01*
X120500001Y-55547619D01*
X120547620Y-55642857D01*
X120595239Y-55833333D01*
X120595239Y-56071429D01*
X120547620Y-56261905D01*
X120500001Y-56357143D01*
X120452382Y-56404762D01*
X120357144Y-56452381D01*
X120261905Y-56452381D01*
X120166667Y-56404762D01*
X120119048Y-56357143D01*
X120071429Y-56261905D01*
X120023810Y-56071429D01*
X120023810Y-55833333D01*
X120071429Y-55642857D01*
X120119048Y-55547619D01*
X120166667Y-55500000D01*
X120261905Y-55452381D01*
X121166667Y-55880952D02*
X121071429Y-55833333D01*
X121023810Y-55785714D01*
X120976191Y-55690476D01*
X120976191Y-55642857D01*
X121023810Y-55547619D01*
X121071429Y-55500000D01*
X121166667Y-55452381D01*
X121357144Y-55452381D01*
X121452382Y-55500000D01*
X121500001Y-55547619D01*
X121547620Y-55642857D01*
X121547620Y-55690476D01*
X121500001Y-55785714D01*
X121452382Y-55833333D01*
X121357144Y-55880952D01*
X121166667Y-55880952D01*
X121071429Y-55928571D01*
X121023810Y-55976190D01*
X120976191Y-56071429D01*
X120976191Y-56261905D01*
X121023810Y-56357143D01*
X121071429Y-56404762D01*
X121166667Y-56452381D01*
X121357144Y-56452381D01*
X121452382Y-56404762D01*
X121500001Y-56357143D01*
X121547620Y-56261905D01*
X121547620Y-56071429D01*
X121500001Y-55976190D01*
X121452382Y-55928571D01*
X121357144Y-55880952D01*
X122500001Y-56452381D02*
X121928572Y-56452381D01*
X122214286Y-56452381D02*
X122214286Y-55452381D01*
X122119048Y-55595238D01*
X122023810Y-55690476D01*
X121928572Y-55738095D01*
X122816667Y-70766667D02*
X122116667Y-70766667D01*
X122616667Y-70533334D01*
X122116667Y-70300001D01*
X122816667Y-70300001D01*
X122750000Y-69566667D02*
X122783333Y-69600001D01*
X122816667Y-69700001D01*
X122816667Y-69766667D01*
X122783333Y-69866667D01*
X122716667Y-69933334D01*
X122650000Y-69966667D01*
X122516667Y-70000001D01*
X122416667Y-70000001D01*
X122283333Y-69966667D01*
X122216667Y-69933334D01*
X122150000Y-69866667D01*
X122116667Y-69766667D01*
X122116667Y-69700001D01*
X122150000Y-69600001D01*
X122183333Y-69566667D01*
X122816667Y-69266667D02*
X122116667Y-69266667D01*
X122116667Y-69000001D01*
X122150000Y-68933334D01*
X122183333Y-68900001D01*
X122250000Y-68866667D01*
X122350000Y-68866667D01*
X122416667Y-68900001D01*
X122450000Y-68933334D01*
X122483333Y-69000001D01*
X122483333Y-69266667D01*
X122350000Y-68266667D02*
X122816667Y-68266667D01*
X122083333Y-68433334D02*
X122583333Y-68600001D01*
X122583333Y-68166667D01*
X122816667Y-67533334D02*
X122816667Y-67933334D01*
X122816667Y-67733334D02*
X122116667Y-67733334D01*
X122216667Y-67800000D01*
X122283333Y-67866667D01*
X122316667Y-67933334D01*
X122116667Y-67300000D02*
X122116667Y-66866667D01*
X122383333Y-67100000D01*
X122383333Y-67000000D01*
X122416667Y-66933333D01*
X122450000Y-66900000D01*
X122516667Y-66866667D01*
X122683333Y-66866667D01*
X122750000Y-66900000D01*
X122783333Y-66933333D01*
X122816667Y-67000000D01*
X122816667Y-67200000D01*
X122783333Y-67266667D01*
X122750000Y-67300000D01*
X122816667Y-66200000D02*
X122816667Y-66600000D01*
X122816667Y-66400000D02*
X122116667Y-66400000D01*
X122216667Y-66466666D01*
X122283333Y-66533333D01*
X122316667Y-66600000D01*
D17*
X89869048Y-59976190D02*
X89869048Y-60380952D01*
X89892857Y-60428571D01*
X89916667Y-60452381D01*
X89964286Y-60476190D01*
X90059524Y-60476190D01*
X90107143Y-60452381D01*
X90130952Y-60428571D01*
X90154762Y-60380952D01*
X90154762Y-59976190D01*
X90464286Y-60190476D02*
X90416667Y-60166667D01*
X90392858Y-60142857D01*
X90369048Y-60095238D01*
X90369048Y-60071429D01*
X90392858Y-60023810D01*
X90416667Y-60000000D01*
X90464286Y-59976190D01*
X90559524Y-59976190D01*
X90607143Y-60000000D01*
X90630953Y-60023810D01*
X90654762Y-60071429D01*
X90654762Y-60095238D01*
X90630953Y-60142857D01*
X90607143Y-60166667D01*
X90559524Y-60190476D01*
X90464286Y-60190476D01*
X90416667Y-60214286D01*
X90392858Y-60238095D01*
X90369048Y-60285714D01*
X90369048Y-60380952D01*
X90392858Y-60428571D01*
X90416667Y-60452381D01*
X90464286Y-60476190D01*
X90559524Y-60476190D01*
X90607143Y-60452381D01*
X90630953Y-60428571D01*
X90654762Y-60380952D01*
X90654762Y-60285714D01*
X90630953Y-60238095D01*
X90607143Y-60214286D01*
X90559524Y-60190476D01*
D15*
X130800000Y-70916667D02*
X130800000Y-70216667D01*
X131033333Y-70716667D01*
X131266666Y-70216667D01*
X131266666Y-70916667D01*
X131566666Y-70716667D02*
X131900000Y-70716667D01*
X131500000Y-70916667D02*
X131733333Y-70216667D01*
X131966666Y-70916667D01*
X132133333Y-70216667D02*
X132600000Y-70916667D01*
X132600000Y-70216667D02*
X132133333Y-70916667D01*
X133166667Y-70450000D02*
X133166667Y-70916667D01*
X133000000Y-70183333D02*
X132833333Y-70683333D01*
X133266667Y-70683333D01*
X133666667Y-70216667D02*
X133733334Y-70216667D01*
X133800000Y-70250000D01*
X133833334Y-70283333D01*
X133866667Y-70350000D01*
X133900000Y-70483333D01*
X133900000Y-70650000D01*
X133866667Y-70783333D01*
X133833334Y-70850000D01*
X133800000Y-70883333D01*
X133733334Y-70916667D01*
X133666667Y-70916667D01*
X133600000Y-70883333D01*
X133566667Y-70850000D01*
X133533334Y-70783333D01*
X133500000Y-70650000D01*
X133500000Y-70483333D01*
X133533334Y-70350000D01*
X133566667Y-70283333D01*
X133600000Y-70250000D01*
X133666667Y-70216667D01*
X134300001Y-70516667D02*
X134233334Y-70483333D01*
X134200001Y-70450000D01*
X134166667Y-70383333D01*
X134166667Y-70350000D01*
X134200001Y-70283333D01*
X134233334Y-70250000D01*
X134300001Y-70216667D01*
X134433334Y-70216667D01*
X134500001Y-70250000D01*
X134533334Y-70283333D01*
X134566667Y-70350000D01*
X134566667Y-70383333D01*
X134533334Y-70450000D01*
X134500001Y-70483333D01*
X134433334Y-70516667D01*
X134300001Y-70516667D01*
X134233334Y-70550000D01*
X134200001Y-70583333D01*
X134166667Y-70650000D01*
X134166667Y-70783333D01*
X134200001Y-70850000D01*
X134233334Y-70883333D01*
X134300001Y-70916667D01*
X134433334Y-70916667D01*
X134500001Y-70883333D01*
X134533334Y-70850000D01*
X134566667Y-70783333D01*
X134566667Y-70650000D01*
X134533334Y-70583333D01*
X134500001Y-70550000D01*
X134433334Y-70516667D01*
X135000001Y-70216667D02*
X135066668Y-70216667D01*
X135133334Y-70250000D01*
X135166668Y-70283333D01*
X135200001Y-70350000D01*
X135233334Y-70483333D01*
X135233334Y-70650000D01*
X135200001Y-70783333D01*
X135166668Y-70850000D01*
X135133334Y-70883333D01*
X135066668Y-70916667D01*
X135000001Y-70916667D01*
X134933334Y-70883333D01*
X134900001Y-70850000D01*
X134866668Y-70783333D01*
X134833334Y-70650000D01*
X134833334Y-70483333D01*
X134866668Y-70350000D01*
X134900001Y-70283333D01*
X134933334Y-70250000D01*
X135000001Y-70216667D01*
X147523810Y-76952381D02*
X147047619Y-76952381D01*
X147047619Y-75952381D01*
X147714286Y-75952381D02*
X148285715Y-75952381D01*
X148000000Y-76952381D02*
X148000000Y-75952381D01*
X148523810Y-75952381D02*
X149142858Y-75952381D01*
X148809524Y-76333333D01*
X148952382Y-76333333D01*
X149047620Y-76380952D01*
X149095239Y-76428571D01*
X149142858Y-76523810D01*
X149142858Y-76761905D01*
X149095239Y-76857143D01*
X149047620Y-76904762D01*
X148952382Y-76952381D01*
X148666667Y-76952381D01*
X148571429Y-76904762D01*
X148523810Y-76857143D01*
X149761905Y-75952381D02*
X149857144Y-75952381D01*
X149952382Y-76000000D01*
X150000001Y-76047619D01*
X150047620Y-76142857D01*
X150095239Y-76333333D01*
X150095239Y-76571429D01*
X150047620Y-76761905D01*
X150000001Y-76857143D01*
X149952382Y-76904762D01*
X149857144Y-76952381D01*
X149761905Y-76952381D01*
X149666667Y-76904762D01*
X149619048Y-76857143D01*
X149571429Y-76761905D01*
X149523810Y-76571429D01*
X149523810Y-76333333D01*
X149571429Y-76142857D01*
X149619048Y-76047619D01*
X149666667Y-76000000D01*
X149761905Y-75952381D01*
X150666667Y-76380952D02*
X150571429Y-76333333D01*
X150523810Y-76285714D01*
X150476191Y-76190476D01*
X150476191Y-76142857D01*
X150523810Y-76047619D01*
X150571429Y-76000000D01*
X150666667Y-75952381D01*
X150857144Y-75952381D01*
X150952382Y-76000000D01*
X151000001Y-76047619D01*
X151047620Y-76142857D01*
X151047620Y-76190476D01*
X151000001Y-76285714D01*
X150952382Y-76333333D01*
X150857144Y-76380952D01*
X150666667Y-76380952D01*
X150571429Y-76428571D01*
X150523810Y-76476190D01*
X150476191Y-76571429D01*
X150476191Y-76761905D01*
X150523810Y-76857143D01*
X150571429Y-76904762D01*
X150666667Y-76952381D01*
X150857144Y-76952381D01*
X150952382Y-76904762D01*
X151000001Y-76857143D01*
X151047620Y-76761905D01*
X151047620Y-76571429D01*
X151000001Y-76476190D01*
X150952382Y-76428571D01*
X150857144Y-76380952D01*
X151666667Y-75952381D02*
X151761906Y-75952381D01*
X151857144Y-76000000D01*
X151904763Y-76047619D01*
X151952382Y-76142857D01*
X152000001Y-76333333D01*
X152000001Y-76571429D01*
X151952382Y-76761905D01*
X151904763Y-76857143D01*
X151857144Y-76904762D01*
X151761906Y-76952381D01*
X151666667Y-76952381D01*
X151571429Y-76904762D01*
X151523810Y-76857143D01*
X151476191Y-76761905D01*
X151428572Y-76571429D01*
X151428572Y-76333333D01*
X151476191Y-76142857D01*
X151523810Y-76047619D01*
X151571429Y-76000000D01*
X151666667Y-75952381D01*
X146523810Y-94952381D02*
X146047619Y-94952381D01*
X146047619Y-93952381D01*
X146714286Y-93952381D02*
X147285715Y-93952381D01*
X147000000Y-94952381D02*
X147000000Y-93952381D01*
X147523810Y-93952381D02*
X148142858Y-93952381D01*
X147809524Y-94333333D01*
X147952382Y-94333333D01*
X148047620Y-94380952D01*
X148095239Y-94428571D01*
X148142858Y-94523810D01*
X148142858Y-94761905D01*
X148095239Y-94857143D01*
X148047620Y-94904762D01*
X147952382Y-94952381D01*
X147666667Y-94952381D01*
X147571429Y-94904762D01*
X147523810Y-94857143D01*
X148761905Y-93952381D02*
X148857144Y-93952381D01*
X148952382Y-94000000D01*
X149000001Y-94047619D01*
X149047620Y-94142857D01*
X149095239Y-94333333D01*
X149095239Y-94571429D01*
X149047620Y-94761905D01*
X149000001Y-94857143D01*
X148952382Y-94904762D01*
X148857144Y-94952381D01*
X148761905Y-94952381D01*
X148666667Y-94904762D01*
X148619048Y-94857143D01*
X148571429Y-94761905D01*
X148523810Y-94571429D01*
X148523810Y-94333333D01*
X148571429Y-94142857D01*
X148619048Y-94047619D01*
X148666667Y-94000000D01*
X148761905Y-93952381D01*
X149666667Y-94380952D02*
X149571429Y-94333333D01*
X149523810Y-94285714D01*
X149476191Y-94190476D01*
X149476191Y-94142857D01*
X149523810Y-94047619D01*
X149571429Y-94000000D01*
X149666667Y-93952381D01*
X149857144Y-93952381D01*
X149952382Y-94000000D01*
X150000001Y-94047619D01*
X150047620Y-94142857D01*
X150047620Y-94190476D01*
X150000001Y-94285714D01*
X149952382Y-94333333D01*
X149857144Y-94380952D01*
X149666667Y-94380952D01*
X149571429Y-94428571D01*
X149523810Y-94476190D01*
X149476191Y-94571429D01*
X149476191Y-94761905D01*
X149523810Y-94857143D01*
X149571429Y-94904762D01*
X149666667Y-94952381D01*
X149857144Y-94952381D01*
X149952382Y-94904762D01*
X150000001Y-94857143D01*
X150047620Y-94761905D01*
X150047620Y-94571429D01*
X150000001Y-94476190D01*
X149952382Y-94428571D01*
X149857144Y-94380952D01*
X150666667Y-93952381D02*
X150761906Y-93952381D01*
X150857144Y-94000000D01*
X150904763Y-94047619D01*
X150952382Y-94142857D01*
X151000001Y-94333333D01*
X151000001Y-94571429D01*
X150952382Y-94761905D01*
X150904763Y-94857143D01*
X150857144Y-94904762D01*
X150761906Y-94952381D01*
X150666667Y-94952381D01*
X150571429Y-94904762D01*
X150523810Y-94857143D01*
X150476191Y-94761905D01*
X150428572Y-94571429D01*
X150428572Y-94333333D01*
X150476191Y-94142857D01*
X150523810Y-94047619D01*
X150571429Y-94000000D01*
X150666667Y-93952381D01*
M02*
