G04 #@! TF.FileFunction,Profile,NP*
%FSLAX46Y46*%
G04 Gerber Fmt 4.6, Leading zero omitted, Abs format (unit mm)*
G04 Created by KiCad (PCBNEW 4.0.7-e2-6376~58~ubuntu16.04.1) date Fri Dec 29 21:47:46 2017*
%MOMM*%
%LPD*%
G01*
G04 APERTURE LIST*
%ADD10C,0.100000*%
G04 APERTURE END LIST*
D10*
X163500000Y-63000000D02*
X163500000Y-65000000D01*
X162500000Y-63000000D02*
X162500000Y-65000000D01*
X163500000Y-65000000D02*
G75*
G03X163500000Y-65000000I-500000J0D01*
G01*
X163500000Y-63000000D02*
G75*
G03X163500000Y-63000000I-500000J0D01*
G01*
X156500000Y-63000000D02*
X156500000Y-65000000D01*
X157500000Y-63000000D02*
X157500000Y-65000000D01*
X157500000Y-65000000D02*
G75*
G03X157500000Y-65000000I-500000J0D01*
G01*
X157500000Y-63000000D02*
G75*
G03X157500000Y-63000000I-500000J0D01*
G01*
X159000000Y-59750000D02*
X161000000Y-59750000D01*
X159000000Y-58750000D02*
X161000000Y-58750000D01*
X161500000Y-59250000D02*
G75*
G03X161500000Y-59250000I-500000J0D01*
G01*
X159500000Y-59250000D02*
G75*
G03X159500000Y-59250000I-500000J0D01*
G01*
X162500000Y-51750000D02*
X163250000Y-51750000D01*
X163250000Y-50250000D02*
X162500000Y-50250000D01*
X164000000Y-51000000D02*
G75*
G03X164000000Y-51000000I-750000J0D01*
G01*
X163290569Y-51000000D02*
G75*
G03X163290569Y-51000000I-790569J0D01*
G01*
X140500000Y-51750000D02*
X141250000Y-51750000D01*
X140500000Y-50250000D02*
X141250000Y-50250000D01*
X142000000Y-51000000D02*
G75*
G03X142000000Y-51000000I-750000J0D01*
G01*
X141250000Y-51000000D02*
G75*
G03X141250000Y-51000000I-750000J0D01*
G01*
X90750000Y-52500000D02*
G75*
G03X90750000Y-52500000I-750000J0D01*
G01*
X95750000Y-51500000D02*
X95750000Y-52500000D01*
X94250000Y-51500000D02*
X94250000Y-52500000D01*
X95750000Y-52500000D02*
G75*
G03X95750000Y-52500000I-750000J0D01*
G01*
X95750000Y-51500000D02*
G75*
G03X95750000Y-51500000I-750000J0D01*
G01*
X90750000Y-51500000D02*
X90750000Y-52500000D01*
X89250000Y-51500000D02*
X89250000Y-52500000D01*
X90750000Y-51500000D02*
G75*
G03X90750000Y-51500000I-750000J0D01*
G01*
X157000000Y-65000000D02*
X157000000Y-63250000D01*
X166000000Y-102000000D02*
X166000000Y-45000000D01*
X87000000Y-45000000D02*
X124000000Y-45000000D01*
X87000000Y-102000000D02*
X87000000Y-45000000D01*
X88000000Y-102000000D02*
X87000000Y-102000000D01*
X90000000Y-102000000D02*
X88000000Y-102000000D01*
X93000000Y-102000000D02*
X90000000Y-102000000D01*
X166000000Y-102000000D02*
X93000000Y-102000000D01*
X166000000Y-101000000D02*
X166000000Y-102000000D01*
X124000000Y-45000000D02*
X166000000Y-45000000D01*
M02*
