G04 #@! TF.FileFunction,Soldermask,Bot*
%FSLAX46Y46*%
G04 Gerber Fmt 4.6, Leading zero omitted, Abs format (unit mm)*
G04 Created by KiCad (PCBNEW 4.0.7-e2-6376~58~ubuntu16.04.1) date Fri Dec 29 21:47:46 2017*
%MOMM*%
%LPD*%
G01*
G04 APERTURE LIST*
%ADD10C,0.100000*%
%ADD11R,3.500000X3.500000*%
%ADD12R,2.800000X2.800000*%
%ADD13O,2.800000X2.800000*%
%ADD14O,4.000000X2.500000*%
%ADD15C,5.999480*%
%ADD16R,1.700000X1.700000*%
%ADD17O,1.700000X1.700000*%
%ADD18R,1.350000X1.350000*%
%ADD19O,1.350000X1.350000*%
%ADD20R,0.850000X0.850000*%
%ADD21C,0.850000*%
%ADD22R,1.980000X3.960000*%
%ADD23O,1.980000X3.960000*%
%ADD24R,1.800000X1.800000*%
%ADD25O,1.800000X1.800000*%
%ADD26O,0.900000X1.500000*%
%ADD27R,0.900000X1.500000*%
G04 APERTURE END LIST*
D10*
D11*
X157000000Y-64000000D03*
X163000000Y-64000000D03*
X160000000Y-59300000D03*
D12*
X115000000Y-48000000D03*
D13*
X125160000Y-48000000D03*
D14*
X163000000Y-51000000D03*
X141000000Y-51000000D03*
D15*
X132700000Y-52000000D03*
X107300000Y-52000000D03*
X161700000Y-80000000D03*
X136300000Y-80000000D03*
X161700000Y-98000000D03*
X136300000Y-98000000D03*
D16*
X142500000Y-66500000D03*
D17*
X145040000Y-66500000D03*
D16*
X161000000Y-71500000D03*
D17*
X163540000Y-71500000D03*
D16*
X161000000Y-89000000D03*
D17*
X163540000Y-89000000D03*
D16*
X132000000Y-89000000D03*
D17*
X134540000Y-89000000D03*
X137080000Y-89000000D03*
X139620000Y-89000000D03*
D18*
X91000000Y-95000000D03*
D19*
X91000000Y-93000000D03*
X91000000Y-91000000D03*
X91000000Y-89000000D03*
X91000000Y-87000000D03*
D20*
X101000000Y-98500000D03*
D21*
X99750000Y-98500000D03*
X98500000Y-98500000D03*
X97250000Y-98500000D03*
D20*
X110500000Y-98500000D03*
D21*
X109250000Y-98500000D03*
X108000000Y-98500000D03*
X106750000Y-98500000D03*
D22*
X90000000Y-52000000D03*
D23*
X95000000Y-52000000D03*
D24*
X116000000Y-62000000D03*
D25*
X117270000Y-58300000D03*
X118540000Y-62000000D03*
X119810000Y-58300000D03*
X121080000Y-62000000D03*
X122350000Y-58300000D03*
X123620000Y-62000000D03*
D26*
X90270000Y-62000000D03*
X91540000Y-62000000D03*
D27*
X89000000Y-62000000D03*
D24*
X152500000Y-70500000D03*
D25*
X150800000Y-74200000D03*
X149100000Y-70500000D03*
X147400000Y-74200000D03*
X145700000Y-70500000D03*
D24*
X152500000Y-88500000D03*
D25*
X150800000Y-92200000D03*
X149100000Y-88500000D03*
X147400000Y-92200000D03*
X145700000Y-88500000D03*
M02*
