G04 #@! TF.FileFunction,Soldermask,Bot*
%FSLAX46Y46*%
G04 Gerber Fmt 4.6, Leading zero omitted, Abs format (unit mm)*
G04 Created by KiCad (PCBNEW 4.0.7-e2-6376~58~ubuntu16.04.1) date Thu Jan 18 23:56:28 2018*
%MOMM*%
%LPD*%
G01*
G04 APERTURE LIST*
%ADD10C,0.100000*%
%ADD11R,2.800000X2.800000*%
%ADD12O,2.800000X2.800000*%
%ADD13R,1.700000X1.700000*%
%ADD14O,1.700000X1.700000*%
%ADD15R,3.500000X3.500000*%
%ADD16O,4.000000X2.500000*%
%ADD17C,5.999480*%
%ADD18R,0.850000X0.850000*%
%ADD19C,0.850000*%
%ADD20R,1.980000X3.960000*%
%ADD21O,1.980000X3.960000*%
%ADD22C,1.000000*%
%ADD23R,1.000000X1.000000*%
%ADD24R,1.800000X1.800000*%
%ADD25O,1.800000X1.800000*%
%ADD26O,0.900000X1.500000*%
%ADD27R,0.900000X1.500000*%
G04 APERTURE END LIST*
D10*
D11*
X36000000Y-37000000D03*
D12*
X36000000Y-47160000D03*
D13*
X44000000Y-70000000D03*
D14*
X44000000Y-67460000D03*
D15*
X117000000Y-42000000D03*
X123000000Y-42000000D03*
X120000000Y-37300000D03*
D16*
X112000000Y-41000000D03*
X90000000Y-41000000D03*
D17*
X81700000Y-40000000D03*
X56300000Y-40000000D03*
X120700000Y-87000000D03*
X95300000Y-87000000D03*
X120300000Y-65400000D03*
X94900000Y-65400000D03*
D13*
X39000000Y-70000000D03*
D14*
X39000000Y-67460000D03*
D13*
X53000000Y-52000000D03*
D14*
X50460000Y-52000000D03*
D13*
X44000000Y-47000000D03*
D14*
X41460000Y-47000000D03*
D13*
X77500000Y-52500000D03*
D14*
X77500000Y-49960000D03*
D13*
X118000000Y-51000000D03*
D14*
X120540000Y-51000000D03*
D13*
X98000000Y-78000000D03*
D14*
X95460000Y-78000000D03*
D13*
X98000000Y-74000000D03*
D14*
X95460000Y-74000000D03*
D13*
X91500000Y-78000000D03*
D14*
X88960000Y-78000000D03*
X86420000Y-78000000D03*
X83880000Y-78000000D03*
D13*
X57000000Y-88500000D03*
D14*
X54460000Y-88500000D03*
X51920000Y-88500000D03*
X49380000Y-88500000D03*
X46840000Y-88500000D03*
D18*
X65500000Y-89500000D03*
D19*
X64250000Y-89500000D03*
X63000000Y-89500000D03*
X61750000Y-89500000D03*
D18*
X73500000Y-89500000D03*
D19*
X72250000Y-89500000D03*
X71000000Y-89500000D03*
X69750000Y-89500000D03*
D20*
X42000000Y-38000000D03*
D21*
X47000000Y-38000000D03*
D22*
X50730000Y-57730000D03*
X52000000Y-56460000D03*
D23*
X52000000Y-59000000D03*
D22*
X50730000Y-63730000D03*
X52000000Y-62460000D03*
D23*
X52000000Y-65000000D03*
D24*
X65000000Y-50000000D03*
D25*
X66270000Y-46300000D03*
X67540000Y-50000000D03*
X68810000Y-46300000D03*
X70080000Y-50000000D03*
X71350000Y-46300000D03*
X72620000Y-50000000D03*
D26*
X36270000Y-52000000D03*
X37540000Y-52000000D03*
D27*
X35000000Y-52000000D03*
D24*
X111000000Y-56000000D03*
D25*
X109300000Y-59700000D03*
X107600000Y-56000000D03*
X105900000Y-59700000D03*
X104200000Y-56000000D03*
D24*
X111500000Y-76500000D03*
D25*
X109800000Y-80200000D03*
X108100000Y-76500000D03*
X106400000Y-80200000D03*
X104700000Y-76500000D03*
D13*
X61000000Y-52000000D03*
D14*
X58460000Y-52000000D03*
D18*
X59000000Y-71000000D03*
D19*
X59000000Y-72250000D03*
X59000000Y-73500000D03*
X59000000Y-74750000D03*
D18*
X65000000Y-63000000D03*
D19*
X66250000Y-63000000D03*
X67500000Y-63000000D03*
X68750000Y-63000000D03*
M02*
