M48
;DRILL file {KiCad 4.0.7-e2-6376~58~ubuntu16.04.1} date Thu Jan 18 23:56:23 2018
;FORMAT={3:3/ absolute / metric / suppress leading zeros}
FMAT,2
METRIC,TZ
T1C0.400
T2C0.500
T3C0.600
T4C1.000
T5C1.100
T6C1.320
T7C1.400
T8C1.500
T9C3.500
%
G90
G05
M71
T1
X34000Y-59000
X34000Y-61000
X34000Y-74000
X35800Y-90200
X36400Y-71800
X37695Y-61905
X39000Y-53000
X41000Y-60750
X41600Y-72000
X42200Y-56000
X43250Y-62000
X43800Y-90200
X45100Y-53000
X46600Y-60200
X46800Y-72000
X47800Y-68000
X47800Y-70400
X50000Y-48000
X50000Y-66800
X51800Y-48000
X52600Y-71600
X53000Y-81000
X53000Y-83000
X53200Y-47000
X53200Y-49000
X53800Y-60200
X53800Y-71600
X54000Y-80000
X56000Y-61400
X58600Y-83800
X59600Y-65200
X60600Y-87200
X61400Y-65200
X62600Y-87200
X64500Y-36000
X67000Y-34500
X67000Y-37500
X68325Y-74275
X68600Y-77400
X69600Y-59800
X70500Y-61500
X70865Y-64265
X71200Y-68200
X71600Y-84600
X71600Y-86200
X71750Y-61500
X73000Y-86200
X74000Y-59600
X74900Y-54500
X75000Y-62000
X75000Y-86200
X76250Y-87500
X77000Y-84600
X78000Y-87500
X78800Y-73800
X79000Y-78400
X79600Y-59400
X80800Y-84000
X81800Y-58400
X85200Y-81200
X85200Y-82600
X86000Y-88600
X87400Y-51000
X88600Y-90000
X89000Y-50000
X89000Y-58600
X92800Y-53000
X93000Y-49000
X94400Y-52000
X94400Y-54200
X96800Y-56000
X100800Y-73400
X102600Y-72200
X102600Y-74800
X109800Y-71000
X109800Y-73400
X110600Y-88200
X110600Y-90600
X112800Y-89600
X120200Y-57400
X120600Y-53800
X120600Y-56200
X122400Y-55000
T2
X59000Y-71000
X59000Y-72250
X59000Y-73500
X59000Y-74750
X61750Y-89500
X63000Y-89500
X64250Y-89500
X65000Y-63000
X65500Y-89500
X66250Y-63000
X67500Y-63000
X68750Y-63000
X69750Y-89500
X71000Y-89500
X72250Y-89500
X73500Y-89500
T3
X35000Y-52000
X36270Y-52000
X37540Y-52000
X50730Y-57730
X50730Y-63730
X52000Y-56460
X52000Y-59000
X52000Y-62460
X52000Y-65000
T4
X39000Y-67460
X39000Y-70000
X41460Y-47000
X44000Y-47000
X44000Y-67460
X44000Y-70000
X46840Y-88500
X49380Y-88500
X50460Y-52000
X51920Y-88500
X53000Y-52000
X54460Y-88500
X57000Y-88500
X58460Y-52000
X61000Y-52000
X65000Y-50000
X66270Y-46300
X67540Y-50000
X68810Y-46300
X70080Y-50000
X71350Y-46300
X72620Y-50000
X77500Y-49960
X77500Y-52500
X83880Y-78000
X86420Y-78000
X88960Y-78000
X91500Y-78000
X95460Y-74000
X95460Y-78000
X98000Y-74000
X98000Y-78000
X104200Y-56000
X104700Y-76500
X105900Y-59700
X106400Y-80200
X107600Y-56000
X108100Y-76500
X109300Y-59700
X109800Y-80200
X111000Y-56000
X111500Y-76500
X118000Y-51000
X120540Y-51000
T7
X36000Y-37000
X36000Y-47160
T9
X56300Y-40000
X81700Y-40000
X94900Y-65400
X95300Y-87000
X120300Y-65400
X120700Y-87000
T4
X121000Y-37300G85X119000Y-37300
G05
X123000Y-43000G85X123000Y-41000
G05
T5
X117000Y-43000G85X117000Y-41000
G05
T6
X42000Y-37160G85X42000Y-38840
G05
X47000Y-37160G85X47000Y-38840
G05
T8
X90500Y-41000G85X89500Y-41000
G05
X112500Y-41000G85X111500Y-41000
G05
T0
M30
