G04 #@! TF.FileFunction,Profile,NP*
%FSLAX46Y46*%
G04 Gerber Fmt 4.6, Leading zero omitted, Abs format (unit mm)*
G04 Created by KiCad (PCBNEW 4.0.7-e2-6376~58~ubuntu16.04.1) date Thu Jan 18 23:56:28 2018*
%MOMM*%
%LPD*%
G01*
G04 APERTURE LIST*
%ADD10C,0.100000*%
G04 APERTURE END LIST*
D10*
X46400000Y-37200000D02*
X46400000Y-38800000D01*
X47600000Y-37200000D02*
X47600000Y-38900000D01*
X47600000Y-38800000D02*
G75*
G03X47600000Y-38800000I-600000J0D01*
G01*
X47600000Y-37200000D02*
G75*
G03X47600000Y-37200000I-600000J0D01*
G01*
X42600000Y-37100000D02*
X42600000Y-39000000D01*
X41400000Y-37100000D02*
X41400000Y-39000000D01*
X42600000Y-38900000D02*
G75*
G03X42600000Y-38900000I-600000J0D01*
G01*
X42600000Y-37200000D02*
G75*
G03X42600000Y-37200000I-600000J0D01*
G01*
X89500000Y-41700000D02*
X90600000Y-41700000D01*
X89400000Y-40300000D02*
X90500000Y-40300000D01*
X91200000Y-41000000D02*
G75*
G03X91200000Y-41000000I-700000J0D01*
G01*
X90228011Y-41000000D02*
G75*
G03X90228011Y-41000000I-728011J0D01*
G01*
X111300000Y-41800000D02*
X112700000Y-41800000D01*
X112700000Y-41700000D02*
X112700000Y-41800000D01*
X111200000Y-41700000D02*
X112700000Y-41700000D01*
X111200000Y-40300000D02*
X112700000Y-40300000D01*
X113328011Y-41000000D02*
G75*
G03X113328011Y-41000000I-728011J0D01*
G01*
X112007107Y-41000000D02*
G75*
G03X112007107Y-41000000I-707107J0D01*
G01*
X119000000Y-37800000D02*
X121100000Y-37800000D01*
X119000000Y-36800000D02*
X121100000Y-36800000D01*
X121447214Y-37300000D02*
G75*
G03X121447214Y-37300000I-447214J0D01*
G01*
X119447214Y-37300000D02*
G75*
G03X119447214Y-37300000I-447214J0D01*
G01*
X122500000Y-41000000D02*
X122500000Y-43000000D01*
X123500000Y-41000000D02*
X123500000Y-43000000D01*
X123500000Y-43000000D02*
G75*
G03X123500000Y-43000000I-500000J0D01*
G01*
X123500000Y-41000000D02*
G75*
G03X123500000Y-41000000I-500000J0D01*
G01*
X116500000Y-41000000D02*
X116500000Y-43000000D01*
X117500000Y-41000000D02*
X117500000Y-43000000D01*
X117500000Y-43000000D02*
G75*
G03X117500000Y-43000000I-500000J0D01*
G01*
X117500000Y-41000000D02*
G75*
G03X117500000Y-41000000I-500000J0D01*
G01*
X32500000Y-92500000D02*
X32500000Y-32000000D01*
X126500000Y-92500000D02*
X32500000Y-92500000D01*
X126500000Y-32000000D02*
X126500000Y-92500000D01*
X32500000Y-32000000D02*
X126500000Y-32000000D01*
M02*
