%TF.GenerationSoftware,KiCad,Pcbnew,4.0.7-e2-6376~58~ubuntu16.04.1*%
%TF.CreationDate,2018-01-31T22:39:41+01:00*%
%TF.ProjectId,SimpleSupply,53696D706C65537570706C792E6B6963,rev?*%
%TF.FileFunction,Copper,L1,Top,Signal*%
%FSLAX46Y46*%
G04 Gerber Fmt 4.6, Leading zero omitted, Abs format (unit mm)*
G04 Created by KiCad (PCBNEW 4.0.7-e2-6376~58~ubuntu16.04.1) date Wed Jan 31 22:39:41 2018*
%MOMM*%
%LPD*%
G01*
G04 APERTURE LIST*
%ADD10C,0.100000*%
%ADD11R,3.500000X3.500000*%
%ADD12R,1.200000X0.750000*%
%ADD13R,1.500000X3.200000*%
%ADD14R,0.900000X1.200000*%
%ADD15R,1.700000X1.700000*%
%ADD16O,1.700000X1.700000*%
%ADD17R,1.000000X1.000000*%
%ADD18O,1.000000X1.000000*%
%ADD19R,1.200000X0.900000*%
%ADD20R,1.800000X1.800000*%
%ADD21O,1.800000X1.800000*%
%ADD22C,5.999480*%
%ADD23C,0.762000*%
%ADD24C,1.524000*%
%ADD25C,0.508000*%
%ADD26C,1.016000*%
%ADD27C,0.381000*%
%ADD28C,0.203200*%
G04 APERTURE END LIST*
D10*
D11*
X100330000Y-109220000D03*
X94330000Y-109220000D03*
X97330000Y-113920000D03*
D12*
X98232000Y-117348000D03*
X96332000Y-117348000D03*
X111445000Y-118110000D03*
X113345000Y-118110000D03*
D13*
X127635000Y-102330000D03*
X127635000Y-98330000D03*
D12*
X120970000Y-105410000D03*
X122870000Y-105410000D03*
X125415000Y-118110000D03*
X127315000Y-118110000D03*
D13*
X127635000Y-121190000D03*
X127635000Y-125190000D03*
D12*
X130495000Y-112395000D03*
X132395000Y-112395000D03*
D14*
X91440000Y-122385000D03*
X91440000Y-120185000D03*
X93980000Y-122385000D03*
X93980000Y-120185000D03*
X96520000Y-122385000D03*
X96520000Y-120185000D03*
D15*
X92075000Y-96520000D03*
D16*
X92075000Y-99060000D03*
D17*
X95885000Y-95885000D03*
D18*
X95885000Y-97155000D03*
X95885000Y-98425000D03*
X95885000Y-99695000D03*
D15*
X132080000Y-104140000D03*
D16*
X132080000Y-106680000D03*
D17*
X132080000Y-96520000D03*
D18*
X132080000Y-97790000D03*
X132080000Y-99060000D03*
X132080000Y-100330000D03*
D15*
X132080000Y-115570000D03*
D16*
X132080000Y-118110000D03*
D17*
X132080000Y-121920000D03*
D18*
X132080000Y-123190000D03*
X132080000Y-124460000D03*
X132080000Y-125730000D03*
D14*
X91440000Y-124630000D03*
X91440000Y-126830000D03*
D19*
X109050000Y-118110000D03*
X106850000Y-118110000D03*
D14*
X93980000Y-124630000D03*
X93980000Y-126830000D03*
D19*
X123020000Y-118110000D03*
X120820000Y-118110000D03*
D14*
X96520000Y-124630000D03*
X96520000Y-126830000D03*
D20*
X113474500Y-115125500D03*
D21*
X109774500Y-113425500D03*
X113474500Y-111725500D03*
X109774500Y-110025500D03*
X113474500Y-108325500D03*
D20*
X127444500Y-115189000D03*
D21*
X123744500Y-113489000D03*
X127444500Y-111789000D03*
X123744500Y-110089000D03*
X127444500Y-108389000D03*
D22*
X104140000Y-99060000D03*
X104140000Y-124460000D03*
X118110000Y-99060000D03*
X118110000Y-124460000D03*
D23*
X105410000Y-118110000D03*
X94742000Y-117348000D03*
X132334000Y-111506000D03*
X125476000Y-98298000D03*
X129794000Y-98298000D03*
X124460000Y-105410000D03*
X115062000Y-118110000D03*
X119380000Y-118110000D03*
X129032000Y-118110000D03*
X129794000Y-125222000D03*
X95250000Y-126746000D03*
X92710000Y-126746000D03*
D24*
X113474500Y-108325500D02*
X111474500Y-108325500D01*
X111474500Y-108325500D02*
X109774500Y-110025500D01*
D25*
X106850000Y-118110000D02*
X105410000Y-118110000D01*
X96332000Y-117348000D02*
X94742000Y-117348000D01*
X132395000Y-112395000D02*
X132395000Y-111567000D01*
X132395000Y-111567000D02*
X132334000Y-111506000D01*
D26*
X127635000Y-98330000D02*
X125508000Y-98330000D01*
X125508000Y-98330000D02*
X125476000Y-98298000D01*
X127635000Y-98330000D02*
X129508000Y-98330000D01*
X129540000Y-98298000D02*
X129794000Y-98298000D01*
X129508000Y-98330000D02*
X129540000Y-98298000D01*
X122870000Y-105410000D02*
X124460000Y-105410000D01*
X113345000Y-118110000D02*
X115062000Y-118110000D01*
X120820000Y-118110000D02*
X119380000Y-118110000D01*
X127315000Y-118110000D02*
X129032000Y-118110000D01*
X127635000Y-125190000D02*
X129762000Y-125190000D01*
X129762000Y-125190000D02*
X129794000Y-125222000D01*
D27*
X96520000Y-126830000D02*
X95334000Y-126830000D01*
X95334000Y-126830000D02*
X95250000Y-126746000D01*
X91440000Y-126830000D02*
X92626000Y-126830000D01*
X92626000Y-126830000D02*
X92710000Y-126746000D01*
D26*
X93980000Y-126830000D02*
X96520000Y-126830000D01*
X91440000Y-126830000D02*
X93980000Y-126830000D01*
X109774500Y-113425500D02*
X109774500Y-118110000D01*
X109774500Y-118110000D02*
X109855000Y-118110000D01*
X109050000Y-118110000D02*
X109855000Y-118110000D01*
X109855000Y-118110000D02*
X111445000Y-118110000D01*
D25*
X93980000Y-120185000D02*
X93980000Y-119888000D01*
X93980000Y-119888000D02*
X94996000Y-118872000D01*
X94996000Y-118872000D02*
X98806000Y-118872000D01*
X98806000Y-118872000D02*
X99314000Y-119380000D01*
X99314000Y-119380000D02*
X116078000Y-119380000D01*
X116078000Y-119380000D02*
X121412000Y-114046000D01*
X121412000Y-114046000D02*
X121412000Y-112421500D01*
X121412000Y-112421500D02*
X123744500Y-110089000D01*
D24*
X127444500Y-108389000D02*
X125444500Y-108389000D01*
X125444500Y-108389000D02*
X123744500Y-110089000D01*
D27*
X113474500Y-111950500D02*
X113474500Y-111725500D01*
D26*
X123744500Y-113489000D02*
X123744500Y-118110000D01*
X123744500Y-118110000D02*
X123825000Y-118110000D01*
X123020000Y-118110000D02*
X123825000Y-118110000D01*
X123825000Y-118110000D02*
X125415000Y-118110000D01*
D25*
X96520000Y-120185000D02*
X126630000Y-120185000D01*
X126630000Y-120185000D02*
X127635000Y-121190000D01*
D27*
X127095000Y-120650000D02*
X127635000Y-121190000D01*
D25*
X127095000Y-120650000D02*
X127635000Y-121190000D01*
D26*
X91440000Y-122385000D02*
X91440000Y-124630000D01*
X93980000Y-122385000D02*
X93980000Y-124630000D01*
D27*
X93980000Y-122385000D02*
X94150000Y-122385000D01*
D26*
X96520000Y-122385000D02*
X96520000Y-124630000D01*
D28*
G36*
X111023400Y-113367218D02*
X110934523Y-112920404D01*
X110662343Y-112513058D01*
X110254997Y-112240878D01*
X109774500Y-112145301D01*
X109294003Y-112240878D01*
X108886657Y-112513058D01*
X108614477Y-112920404D01*
X108518900Y-113400901D01*
X108518900Y-113450099D01*
X108614477Y-113930596D01*
X108886657Y-114337942D01*
X108910900Y-114354141D01*
X108910900Y-117274069D01*
X108793436Y-117297434D01*
X108450000Y-117297434D01*
X108318223Y-117322230D01*
X108197193Y-117400110D01*
X108115999Y-117518942D01*
X108087434Y-117660000D01*
X108087434Y-118560000D01*
X108112230Y-118691777D01*
X108162822Y-118770400D01*
X107736622Y-118770400D01*
X107784001Y-118701058D01*
X107812566Y-118560000D01*
X107812566Y-117660000D01*
X107787770Y-117528223D01*
X107709890Y-117407193D01*
X107591058Y-117325999D01*
X107450000Y-117297434D01*
X106250000Y-117297434D01*
X106118223Y-117322230D01*
X105997193Y-117400110D01*
X105928668Y-117500400D01*
X105842265Y-117500400D01*
X105827795Y-117485905D01*
X105557162Y-117373528D01*
X105264124Y-117373272D01*
X104993295Y-117485177D01*
X104785905Y-117692205D01*
X104673528Y-117962838D01*
X104673272Y-118255876D01*
X104785177Y-118526705D01*
X104992205Y-118734095D01*
X105079637Y-118770400D01*
X99566505Y-118770400D01*
X99237052Y-118440948D01*
X99039284Y-118308803D01*
X98806000Y-118262400D01*
X94996000Y-118262400D01*
X94762716Y-118308803D01*
X94564948Y-118440948D01*
X93783462Y-119222434D01*
X93530000Y-119222434D01*
X93398223Y-119247230D01*
X93277193Y-119325110D01*
X93195999Y-119443942D01*
X93167434Y-119585000D01*
X93167434Y-120785000D01*
X93192230Y-120916777D01*
X93270110Y-121037807D01*
X93388942Y-121119001D01*
X93530000Y-121147566D01*
X94430000Y-121147566D01*
X94561777Y-121122770D01*
X94682807Y-121044890D01*
X94764001Y-120926058D01*
X94792566Y-120785000D01*
X94792566Y-119937538D01*
X95248504Y-119481600D01*
X95728373Y-119481600D01*
X95707434Y-119585000D01*
X95707434Y-120785000D01*
X95732230Y-120916777D01*
X95810110Y-121037807D01*
X95928942Y-121119001D01*
X96070000Y-121147566D01*
X96970000Y-121147566D01*
X97101777Y-121122770D01*
X97222807Y-121044890D01*
X97304001Y-120926058D01*
X97330622Y-120794600D01*
X111023400Y-120794600D01*
X111023400Y-127839400D01*
X90600600Y-127839400D01*
X90600600Y-126951661D01*
X90627434Y-127086564D01*
X90627434Y-127430000D01*
X90652230Y-127561777D01*
X90730110Y-127682807D01*
X90848942Y-127764001D01*
X90990000Y-127792566D01*
X91890000Y-127792566D01*
X92021777Y-127767770D01*
X92137041Y-127693600D01*
X93285906Y-127693600D01*
X93388942Y-127764001D01*
X93530000Y-127792566D01*
X94430000Y-127792566D01*
X94561777Y-127767770D01*
X94677041Y-127693600D01*
X95825906Y-127693600D01*
X95928942Y-127764001D01*
X96070000Y-127792566D01*
X96970000Y-127792566D01*
X97101777Y-127767770D01*
X97222807Y-127689890D01*
X97304001Y-127571058D01*
X97332566Y-127430000D01*
X97332566Y-127086564D01*
X97383600Y-126830000D01*
X97332566Y-126573436D01*
X97332566Y-126230000D01*
X97307770Y-126098223D01*
X97229890Y-125977193D01*
X97111058Y-125895999D01*
X96970000Y-125867434D01*
X96070000Y-125867434D01*
X95938223Y-125892230D01*
X95822959Y-125966400D01*
X94674094Y-125966400D01*
X94571058Y-125895999D01*
X94430000Y-125867434D01*
X93530000Y-125867434D01*
X93398223Y-125892230D01*
X93282959Y-125966400D01*
X92134094Y-125966400D01*
X92031058Y-125895999D01*
X91890000Y-125867434D01*
X90990000Y-125867434D01*
X90858223Y-125892230D01*
X90737193Y-125970110D01*
X90655999Y-126088942D01*
X90627434Y-126230000D01*
X90627434Y-126573436D01*
X90600600Y-126708339D01*
X90600600Y-124751661D01*
X90627434Y-124886564D01*
X90627434Y-125230000D01*
X90652230Y-125361777D01*
X90730110Y-125482807D01*
X90848942Y-125564001D01*
X90990000Y-125592566D01*
X91890000Y-125592566D01*
X92021777Y-125567770D01*
X92142807Y-125489890D01*
X92224001Y-125371058D01*
X92252566Y-125230000D01*
X92252566Y-124886564D01*
X92303600Y-124630000D01*
X92303600Y-122385000D01*
X93116400Y-122385000D01*
X93116400Y-124630000D01*
X93167434Y-124886564D01*
X93167434Y-125230000D01*
X93192230Y-125361777D01*
X93270110Y-125482807D01*
X93388942Y-125564001D01*
X93530000Y-125592566D01*
X94430000Y-125592566D01*
X94561777Y-125567770D01*
X94682807Y-125489890D01*
X94764001Y-125371058D01*
X94792566Y-125230000D01*
X94792566Y-124886564D01*
X94843600Y-124630000D01*
X94843600Y-122385000D01*
X95656400Y-122385000D01*
X95656400Y-124630000D01*
X95707434Y-124886564D01*
X95707434Y-125230000D01*
X95732230Y-125361777D01*
X95810110Y-125482807D01*
X95928942Y-125564001D01*
X96070000Y-125592566D01*
X96970000Y-125592566D01*
X97101777Y-125567770D01*
X97222807Y-125489890D01*
X97304001Y-125371058D01*
X97332566Y-125230000D01*
X97332566Y-125124490D01*
X100784079Y-125124490D01*
X101293823Y-126358164D01*
X102236871Y-127302860D01*
X103469654Y-127814756D01*
X104804490Y-127815921D01*
X106038164Y-127306177D01*
X106982860Y-126363129D01*
X107494756Y-125130346D01*
X107495921Y-123795510D01*
X106986177Y-122561836D01*
X106043129Y-121617140D01*
X104810346Y-121105244D01*
X103475510Y-121104079D01*
X102241836Y-121613823D01*
X101297140Y-122556871D01*
X100785244Y-123789654D01*
X100784079Y-125124490D01*
X97332566Y-125124490D01*
X97332566Y-124886564D01*
X97383600Y-124630000D01*
X97383600Y-122385000D01*
X97332566Y-122128436D01*
X97332566Y-121785000D01*
X97307770Y-121653223D01*
X97229890Y-121532193D01*
X97111058Y-121450999D01*
X96970000Y-121422434D01*
X96070000Y-121422434D01*
X95938223Y-121447230D01*
X95817193Y-121525110D01*
X95735999Y-121643942D01*
X95707434Y-121785000D01*
X95707434Y-122128436D01*
X95656400Y-122385000D01*
X94843600Y-122385000D01*
X94792566Y-122128436D01*
X94792566Y-121785000D01*
X94767770Y-121653223D01*
X94689890Y-121532193D01*
X94571058Y-121450999D01*
X94430000Y-121422434D01*
X93530000Y-121422434D01*
X93398223Y-121447230D01*
X93277193Y-121525110D01*
X93195999Y-121643942D01*
X93167434Y-121785000D01*
X93167434Y-122128436D01*
X93116400Y-122385000D01*
X92303600Y-122385000D01*
X92252566Y-122128436D01*
X92252566Y-121785000D01*
X92227770Y-121653223D01*
X92149890Y-121532193D01*
X92031058Y-121450999D01*
X91890000Y-121422434D01*
X90990000Y-121422434D01*
X90858223Y-121447230D01*
X90737193Y-121525110D01*
X90655999Y-121643942D01*
X90627434Y-121785000D01*
X90627434Y-122128436D01*
X90600600Y-122263339D01*
X90600600Y-120561200D01*
X90685200Y-120561200D01*
X90685200Y-120845628D01*
X90731603Y-120957655D01*
X90817344Y-121043397D01*
X90929371Y-121089800D01*
X91138800Y-121089800D01*
X91215000Y-121013600D01*
X91215000Y-120485000D01*
X91665000Y-120485000D01*
X91665000Y-121013600D01*
X91741200Y-121089800D01*
X91950629Y-121089800D01*
X92062656Y-121043397D01*
X92148397Y-120957655D01*
X92194800Y-120845628D01*
X92194800Y-120561200D01*
X92118600Y-120485000D01*
X91665000Y-120485000D01*
X91215000Y-120485000D01*
X90761400Y-120485000D01*
X90685200Y-120561200D01*
X90600600Y-120561200D01*
X90600600Y-119524372D01*
X90685200Y-119524372D01*
X90685200Y-119808800D01*
X90761400Y-119885000D01*
X91215000Y-119885000D01*
X91215000Y-119356400D01*
X91665000Y-119356400D01*
X91665000Y-119885000D01*
X92118600Y-119885000D01*
X92194800Y-119808800D01*
X92194800Y-119524372D01*
X92148397Y-119412345D01*
X92062656Y-119326603D01*
X91950629Y-119280200D01*
X91741200Y-119280200D01*
X91665000Y-119356400D01*
X91215000Y-119356400D01*
X91138800Y-119280200D01*
X90929371Y-119280200D01*
X90817344Y-119326603D01*
X90731603Y-119412345D01*
X90685200Y-119524372D01*
X90600600Y-119524372D01*
X90600600Y-117493876D01*
X94005272Y-117493876D01*
X94117177Y-117764705D01*
X94324205Y-117972095D01*
X94594838Y-118084472D01*
X94887876Y-118084728D01*
X95158705Y-117972823D01*
X95173955Y-117957600D01*
X95460394Y-117957600D01*
X95472110Y-117975807D01*
X95590942Y-118057001D01*
X95732000Y-118085566D01*
X96932000Y-118085566D01*
X97063777Y-118060770D01*
X97184807Y-117982890D01*
X97266001Y-117864058D01*
X97294566Y-117723000D01*
X97294566Y-117611700D01*
X97327200Y-117611700D01*
X97327200Y-117783629D01*
X97373603Y-117895656D01*
X97459345Y-117981397D01*
X97571372Y-118027800D01*
X97855800Y-118027800D01*
X97932000Y-117951600D01*
X97932000Y-117535500D01*
X98532000Y-117535500D01*
X98532000Y-117951600D01*
X98608200Y-118027800D01*
X98892628Y-118027800D01*
X99004655Y-117981397D01*
X99090397Y-117895656D01*
X99136800Y-117783629D01*
X99136800Y-117611700D01*
X99060600Y-117535500D01*
X98532000Y-117535500D01*
X97932000Y-117535500D01*
X97403400Y-117535500D01*
X97327200Y-117611700D01*
X97294566Y-117611700D01*
X97294566Y-116973000D01*
X97283158Y-116912371D01*
X97327200Y-116912371D01*
X97327200Y-117084300D01*
X97403400Y-117160500D01*
X97932000Y-117160500D01*
X97932000Y-116744400D01*
X98532000Y-116744400D01*
X98532000Y-117160500D01*
X99060600Y-117160500D01*
X99136800Y-117084300D01*
X99136800Y-116912371D01*
X99090397Y-116800344D01*
X99004655Y-116714603D01*
X98892628Y-116668200D01*
X98608200Y-116668200D01*
X98532000Y-116744400D01*
X97932000Y-116744400D01*
X97855800Y-116668200D01*
X97571372Y-116668200D01*
X97459345Y-116714603D01*
X97373603Y-116800344D01*
X97327200Y-116912371D01*
X97283158Y-116912371D01*
X97269770Y-116841223D01*
X97191890Y-116720193D01*
X97073058Y-116638999D01*
X96932000Y-116610434D01*
X95732000Y-116610434D01*
X95600223Y-116635230D01*
X95479193Y-116713110D01*
X95461913Y-116738400D01*
X95174265Y-116738400D01*
X95159795Y-116723905D01*
X94889162Y-116611528D01*
X94596124Y-116611272D01*
X94325295Y-116723177D01*
X94117905Y-116930205D01*
X94005528Y-117200838D01*
X94005272Y-117493876D01*
X90600600Y-117493876D01*
X90600600Y-112170000D01*
X95217434Y-112170000D01*
X95217434Y-115670000D01*
X95242230Y-115801777D01*
X95320110Y-115922807D01*
X95438942Y-116004001D01*
X95580000Y-116032566D01*
X99080000Y-116032566D01*
X99211777Y-116007770D01*
X99332807Y-115929890D01*
X99414001Y-115811058D01*
X99442566Y-115670000D01*
X99442566Y-112170000D01*
X99417770Y-112038223D01*
X99339890Y-111917193D01*
X99221058Y-111835999D01*
X99080000Y-111807434D01*
X95580000Y-111807434D01*
X95448223Y-111832230D01*
X95327193Y-111910110D01*
X95245999Y-112028942D01*
X95217434Y-112170000D01*
X90600600Y-112170000D01*
X90600600Y-107470000D01*
X92217434Y-107470000D01*
X92217434Y-110970000D01*
X92242230Y-111101777D01*
X92320110Y-111222807D01*
X92438942Y-111304001D01*
X92580000Y-111332566D01*
X96080000Y-111332566D01*
X96211777Y-111307770D01*
X96332807Y-111229890D01*
X96414001Y-111111058D01*
X96442566Y-110970000D01*
X96442566Y-110171200D01*
X98275200Y-110171200D01*
X98275200Y-111030629D01*
X98321603Y-111142656D01*
X98407345Y-111228397D01*
X98519372Y-111274800D01*
X99378800Y-111274800D01*
X99455000Y-111198600D01*
X99455000Y-110095000D01*
X101205000Y-110095000D01*
X101205000Y-111198600D01*
X101281200Y-111274800D01*
X102140628Y-111274800D01*
X102252655Y-111228397D01*
X102338397Y-111142656D01*
X102384800Y-111030629D01*
X102384800Y-110475500D01*
X108733049Y-110475500D01*
X108741005Y-110644799D01*
X109056671Y-110993159D01*
X109155208Y-111058951D01*
X109324500Y-111060506D01*
X109324500Y-110475500D01*
X110224500Y-110475500D01*
X110224500Y-111060506D01*
X110393792Y-111058951D01*
X110492329Y-110993159D01*
X110807995Y-110644799D01*
X110815951Y-110475500D01*
X110224500Y-110475500D01*
X109324500Y-110475500D01*
X108733049Y-110475500D01*
X102384800Y-110475500D01*
X102384800Y-110171200D01*
X102308600Y-110095000D01*
X101205000Y-110095000D01*
X99455000Y-110095000D01*
X98351400Y-110095000D01*
X98275200Y-110171200D01*
X96442566Y-110171200D01*
X96442566Y-109575500D01*
X108733049Y-109575500D01*
X109324500Y-109575500D01*
X110224500Y-109575500D01*
X110815951Y-109575500D01*
X110807995Y-109406201D01*
X110492329Y-109057841D01*
X110393792Y-108992049D01*
X110224500Y-108990494D01*
X110224500Y-109575500D01*
X109324500Y-109575500D01*
X109324500Y-108990494D01*
X109155208Y-108992049D01*
X109056671Y-109057841D01*
X108741005Y-109406201D01*
X108733049Y-109575500D01*
X96442566Y-109575500D01*
X96442566Y-107470000D01*
X96431158Y-107409371D01*
X98275200Y-107409371D01*
X98275200Y-108268800D01*
X98351400Y-108345000D01*
X99455000Y-108345000D01*
X99455000Y-107241400D01*
X101205000Y-107241400D01*
X101205000Y-108345000D01*
X102308600Y-108345000D01*
X102384800Y-108268800D01*
X102384800Y-107409371D01*
X102338397Y-107297344D01*
X102252655Y-107211603D01*
X102140628Y-107165200D01*
X101281200Y-107165200D01*
X101205000Y-107241400D01*
X99455000Y-107241400D01*
X99378800Y-107165200D01*
X98519372Y-107165200D01*
X98407345Y-107211603D01*
X98321603Y-107297344D01*
X98275200Y-107409371D01*
X96431158Y-107409371D01*
X96417770Y-107338223D01*
X96339890Y-107217193D01*
X96221058Y-107135999D01*
X96080000Y-107107434D01*
X92580000Y-107107434D01*
X92448223Y-107132230D01*
X92327193Y-107210110D01*
X92245999Y-107328942D01*
X92217434Y-107470000D01*
X90600600Y-107470000D01*
X90600600Y-99060000D01*
X90845781Y-99060000D01*
X90937552Y-99521363D01*
X91198893Y-99912488D01*
X91590018Y-100173829D01*
X92051381Y-100265600D01*
X92098619Y-100265600D01*
X92559982Y-100173829D01*
X92951107Y-99912488D01*
X93212448Y-99521363D01*
X93304219Y-99060000D01*
X93212448Y-98598637D01*
X92951107Y-98207512D01*
X92559982Y-97946171D01*
X92098619Y-97854400D01*
X92051381Y-97854400D01*
X91590018Y-97946171D01*
X91198893Y-98207512D01*
X90937552Y-98598637D01*
X90845781Y-99060000D01*
X90600600Y-99060000D01*
X90600600Y-97021200D01*
X90920200Y-97021200D01*
X90920200Y-97430629D01*
X90966603Y-97542656D01*
X91052345Y-97628397D01*
X91164372Y-97674800D01*
X91573800Y-97674800D01*
X91650000Y-97598600D01*
X91650000Y-96945000D01*
X92500000Y-96945000D01*
X92500000Y-97598600D01*
X92576200Y-97674800D01*
X92985628Y-97674800D01*
X93033429Y-97655000D01*
X94716598Y-97655000D01*
X94716598Y-97959800D01*
X95169825Y-97959800D01*
X95077767Y-98097576D01*
X95012638Y-98425000D01*
X95077767Y-98752424D01*
X95263237Y-99030001D01*
X95308134Y-99060000D01*
X95263237Y-99089999D01*
X95077767Y-99367576D01*
X95012638Y-99695000D01*
X95077767Y-100022424D01*
X95263237Y-100300001D01*
X95540814Y-100485471D01*
X95868238Y-100550600D01*
X95901762Y-100550600D01*
X96229186Y-100485471D01*
X96506763Y-100300001D01*
X96692233Y-100022424D01*
X96751496Y-99724490D01*
X100784079Y-99724490D01*
X101293823Y-100958164D01*
X102236871Y-101902860D01*
X103469654Y-102414756D01*
X104804490Y-102415921D01*
X106038164Y-101906177D01*
X106982860Y-100963129D01*
X107494756Y-99730346D01*
X107495921Y-98395510D01*
X106986177Y-97161836D01*
X106043129Y-96217140D01*
X104810346Y-95705244D01*
X103475510Y-95704079D01*
X102241836Y-96213823D01*
X101297140Y-97156871D01*
X100785244Y-98389654D01*
X100784079Y-99724490D01*
X96751496Y-99724490D01*
X96757362Y-99695000D01*
X96692233Y-99367576D01*
X96506763Y-99089999D01*
X96461866Y-99060000D01*
X96506763Y-99030001D01*
X96692233Y-98752424D01*
X96757362Y-98425000D01*
X96692233Y-98097576D01*
X96600175Y-97959800D01*
X97053402Y-97959800D01*
X97053402Y-97655000D01*
X96512353Y-97655000D01*
X96601459Y-97521592D01*
X96569367Y-97405000D01*
X96135000Y-97405000D01*
X96135000Y-97615794D01*
X95901762Y-97569400D01*
X95868238Y-97569400D01*
X95635000Y-97615794D01*
X95635000Y-97405000D01*
X95200633Y-97405000D01*
X95168541Y-97521592D01*
X95257647Y-97655000D01*
X94716598Y-97655000D01*
X93033429Y-97655000D01*
X93097655Y-97628397D01*
X93183397Y-97542656D01*
X93229800Y-97430629D01*
X93229800Y-97021200D01*
X93153600Y-96945000D01*
X92500000Y-96945000D01*
X91650000Y-96945000D01*
X90996400Y-96945000D01*
X90920200Y-97021200D01*
X90600600Y-97021200D01*
X90600600Y-96211200D01*
X95080200Y-96211200D01*
X95080200Y-96445629D01*
X95126603Y-96557656D01*
X95212345Y-96643397D01*
X95253900Y-96660610D01*
X95168541Y-96788408D01*
X95200633Y-96905000D01*
X95635000Y-96905000D01*
X95635000Y-96135000D01*
X96135000Y-96135000D01*
X96135000Y-96905000D01*
X96569367Y-96905000D01*
X96601459Y-96788408D01*
X96516100Y-96660610D01*
X96557655Y-96643397D01*
X96643397Y-96557656D01*
X96689800Y-96445629D01*
X96689800Y-96211200D01*
X96613600Y-96135000D01*
X96135000Y-96135000D01*
X95635000Y-96135000D01*
X95156400Y-96135000D01*
X95080200Y-96211200D01*
X90600600Y-96211200D01*
X90600600Y-95609371D01*
X90920200Y-95609371D01*
X90920200Y-96018800D01*
X90996400Y-96095000D01*
X91650000Y-96095000D01*
X91650000Y-95441400D01*
X92500000Y-95441400D01*
X92500000Y-96095000D01*
X93153600Y-96095000D01*
X93229800Y-96018800D01*
X93229800Y-95609371D01*
X93183397Y-95497344D01*
X93097655Y-95411603D01*
X92985628Y-95365200D01*
X92576200Y-95365200D01*
X92500000Y-95441400D01*
X91650000Y-95441400D01*
X91573800Y-95365200D01*
X91164372Y-95365200D01*
X91052345Y-95411603D01*
X90966603Y-95497344D01*
X90920200Y-95609371D01*
X90600600Y-95609371D01*
X90600600Y-95324371D01*
X95080200Y-95324371D01*
X95080200Y-95558800D01*
X95156400Y-95635000D01*
X95635000Y-95635000D01*
X95635000Y-95156400D01*
X96135000Y-95156400D01*
X96135000Y-95635000D01*
X96613600Y-95635000D01*
X96689800Y-95558800D01*
X96689800Y-95324371D01*
X96643397Y-95212344D01*
X96557655Y-95126603D01*
X96445628Y-95080200D01*
X96211200Y-95080200D01*
X96135000Y-95156400D01*
X95635000Y-95156400D01*
X95558800Y-95080200D01*
X95324372Y-95080200D01*
X95212345Y-95126603D01*
X95126603Y-95212344D01*
X95080200Y-95324371D01*
X90600600Y-95324371D01*
X90600600Y-95045600D01*
X111023400Y-95045600D01*
X111023400Y-113367218D01*
X111023400Y-113367218D01*
G37*
X111023400Y-113367218D02*
X110934523Y-112920404D01*
X110662343Y-112513058D01*
X110254997Y-112240878D01*
X109774500Y-112145301D01*
X109294003Y-112240878D01*
X108886657Y-112513058D01*
X108614477Y-112920404D01*
X108518900Y-113400901D01*
X108518900Y-113450099D01*
X108614477Y-113930596D01*
X108886657Y-114337942D01*
X108910900Y-114354141D01*
X108910900Y-117274069D01*
X108793436Y-117297434D01*
X108450000Y-117297434D01*
X108318223Y-117322230D01*
X108197193Y-117400110D01*
X108115999Y-117518942D01*
X108087434Y-117660000D01*
X108087434Y-118560000D01*
X108112230Y-118691777D01*
X108162822Y-118770400D01*
X107736622Y-118770400D01*
X107784001Y-118701058D01*
X107812566Y-118560000D01*
X107812566Y-117660000D01*
X107787770Y-117528223D01*
X107709890Y-117407193D01*
X107591058Y-117325999D01*
X107450000Y-117297434D01*
X106250000Y-117297434D01*
X106118223Y-117322230D01*
X105997193Y-117400110D01*
X105928668Y-117500400D01*
X105842265Y-117500400D01*
X105827795Y-117485905D01*
X105557162Y-117373528D01*
X105264124Y-117373272D01*
X104993295Y-117485177D01*
X104785905Y-117692205D01*
X104673528Y-117962838D01*
X104673272Y-118255876D01*
X104785177Y-118526705D01*
X104992205Y-118734095D01*
X105079637Y-118770400D01*
X99566505Y-118770400D01*
X99237052Y-118440948D01*
X99039284Y-118308803D01*
X98806000Y-118262400D01*
X94996000Y-118262400D01*
X94762716Y-118308803D01*
X94564948Y-118440948D01*
X93783462Y-119222434D01*
X93530000Y-119222434D01*
X93398223Y-119247230D01*
X93277193Y-119325110D01*
X93195999Y-119443942D01*
X93167434Y-119585000D01*
X93167434Y-120785000D01*
X93192230Y-120916777D01*
X93270110Y-121037807D01*
X93388942Y-121119001D01*
X93530000Y-121147566D01*
X94430000Y-121147566D01*
X94561777Y-121122770D01*
X94682807Y-121044890D01*
X94764001Y-120926058D01*
X94792566Y-120785000D01*
X94792566Y-119937538D01*
X95248504Y-119481600D01*
X95728373Y-119481600D01*
X95707434Y-119585000D01*
X95707434Y-120785000D01*
X95732230Y-120916777D01*
X95810110Y-121037807D01*
X95928942Y-121119001D01*
X96070000Y-121147566D01*
X96970000Y-121147566D01*
X97101777Y-121122770D01*
X97222807Y-121044890D01*
X97304001Y-120926058D01*
X97330622Y-120794600D01*
X111023400Y-120794600D01*
X111023400Y-127839400D01*
X90600600Y-127839400D01*
X90600600Y-126951661D01*
X90627434Y-127086564D01*
X90627434Y-127430000D01*
X90652230Y-127561777D01*
X90730110Y-127682807D01*
X90848942Y-127764001D01*
X90990000Y-127792566D01*
X91890000Y-127792566D01*
X92021777Y-127767770D01*
X92137041Y-127693600D01*
X93285906Y-127693600D01*
X93388942Y-127764001D01*
X93530000Y-127792566D01*
X94430000Y-127792566D01*
X94561777Y-127767770D01*
X94677041Y-127693600D01*
X95825906Y-127693600D01*
X95928942Y-127764001D01*
X96070000Y-127792566D01*
X96970000Y-127792566D01*
X97101777Y-127767770D01*
X97222807Y-127689890D01*
X97304001Y-127571058D01*
X97332566Y-127430000D01*
X97332566Y-127086564D01*
X97383600Y-126830000D01*
X97332566Y-126573436D01*
X97332566Y-126230000D01*
X97307770Y-126098223D01*
X97229890Y-125977193D01*
X97111058Y-125895999D01*
X96970000Y-125867434D01*
X96070000Y-125867434D01*
X95938223Y-125892230D01*
X95822959Y-125966400D01*
X94674094Y-125966400D01*
X94571058Y-125895999D01*
X94430000Y-125867434D01*
X93530000Y-125867434D01*
X93398223Y-125892230D01*
X93282959Y-125966400D01*
X92134094Y-125966400D01*
X92031058Y-125895999D01*
X91890000Y-125867434D01*
X90990000Y-125867434D01*
X90858223Y-125892230D01*
X90737193Y-125970110D01*
X90655999Y-126088942D01*
X90627434Y-126230000D01*
X90627434Y-126573436D01*
X90600600Y-126708339D01*
X90600600Y-124751661D01*
X90627434Y-124886564D01*
X90627434Y-125230000D01*
X90652230Y-125361777D01*
X90730110Y-125482807D01*
X90848942Y-125564001D01*
X90990000Y-125592566D01*
X91890000Y-125592566D01*
X92021777Y-125567770D01*
X92142807Y-125489890D01*
X92224001Y-125371058D01*
X92252566Y-125230000D01*
X92252566Y-124886564D01*
X92303600Y-124630000D01*
X92303600Y-122385000D01*
X93116400Y-122385000D01*
X93116400Y-124630000D01*
X93167434Y-124886564D01*
X93167434Y-125230000D01*
X93192230Y-125361777D01*
X93270110Y-125482807D01*
X93388942Y-125564001D01*
X93530000Y-125592566D01*
X94430000Y-125592566D01*
X94561777Y-125567770D01*
X94682807Y-125489890D01*
X94764001Y-125371058D01*
X94792566Y-125230000D01*
X94792566Y-124886564D01*
X94843600Y-124630000D01*
X94843600Y-122385000D01*
X95656400Y-122385000D01*
X95656400Y-124630000D01*
X95707434Y-124886564D01*
X95707434Y-125230000D01*
X95732230Y-125361777D01*
X95810110Y-125482807D01*
X95928942Y-125564001D01*
X96070000Y-125592566D01*
X96970000Y-125592566D01*
X97101777Y-125567770D01*
X97222807Y-125489890D01*
X97304001Y-125371058D01*
X97332566Y-125230000D01*
X97332566Y-125124490D01*
X100784079Y-125124490D01*
X101293823Y-126358164D01*
X102236871Y-127302860D01*
X103469654Y-127814756D01*
X104804490Y-127815921D01*
X106038164Y-127306177D01*
X106982860Y-126363129D01*
X107494756Y-125130346D01*
X107495921Y-123795510D01*
X106986177Y-122561836D01*
X106043129Y-121617140D01*
X104810346Y-121105244D01*
X103475510Y-121104079D01*
X102241836Y-121613823D01*
X101297140Y-122556871D01*
X100785244Y-123789654D01*
X100784079Y-125124490D01*
X97332566Y-125124490D01*
X97332566Y-124886564D01*
X97383600Y-124630000D01*
X97383600Y-122385000D01*
X97332566Y-122128436D01*
X97332566Y-121785000D01*
X97307770Y-121653223D01*
X97229890Y-121532193D01*
X97111058Y-121450999D01*
X96970000Y-121422434D01*
X96070000Y-121422434D01*
X95938223Y-121447230D01*
X95817193Y-121525110D01*
X95735999Y-121643942D01*
X95707434Y-121785000D01*
X95707434Y-122128436D01*
X95656400Y-122385000D01*
X94843600Y-122385000D01*
X94792566Y-122128436D01*
X94792566Y-121785000D01*
X94767770Y-121653223D01*
X94689890Y-121532193D01*
X94571058Y-121450999D01*
X94430000Y-121422434D01*
X93530000Y-121422434D01*
X93398223Y-121447230D01*
X93277193Y-121525110D01*
X93195999Y-121643942D01*
X93167434Y-121785000D01*
X93167434Y-122128436D01*
X93116400Y-122385000D01*
X92303600Y-122385000D01*
X92252566Y-122128436D01*
X92252566Y-121785000D01*
X92227770Y-121653223D01*
X92149890Y-121532193D01*
X92031058Y-121450999D01*
X91890000Y-121422434D01*
X90990000Y-121422434D01*
X90858223Y-121447230D01*
X90737193Y-121525110D01*
X90655999Y-121643942D01*
X90627434Y-121785000D01*
X90627434Y-122128436D01*
X90600600Y-122263339D01*
X90600600Y-120561200D01*
X90685200Y-120561200D01*
X90685200Y-120845628D01*
X90731603Y-120957655D01*
X90817344Y-121043397D01*
X90929371Y-121089800D01*
X91138800Y-121089800D01*
X91215000Y-121013600D01*
X91215000Y-120485000D01*
X91665000Y-120485000D01*
X91665000Y-121013600D01*
X91741200Y-121089800D01*
X91950629Y-121089800D01*
X92062656Y-121043397D01*
X92148397Y-120957655D01*
X92194800Y-120845628D01*
X92194800Y-120561200D01*
X92118600Y-120485000D01*
X91665000Y-120485000D01*
X91215000Y-120485000D01*
X90761400Y-120485000D01*
X90685200Y-120561200D01*
X90600600Y-120561200D01*
X90600600Y-119524372D01*
X90685200Y-119524372D01*
X90685200Y-119808800D01*
X90761400Y-119885000D01*
X91215000Y-119885000D01*
X91215000Y-119356400D01*
X91665000Y-119356400D01*
X91665000Y-119885000D01*
X92118600Y-119885000D01*
X92194800Y-119808800D01*
X92194800Y-119524372D01*
X92148397Y-119412345D01*
X92062656Y-119326603D01*
X91950629Y-119280200D01*
X91741200Y-119280200D01*
X91665000Y-119356400D01*
X91215000Y-119356400D01*
X91138800Y-119280200D01*
X90929371Y-119280200D01*
X90817344Y-119326603D01*
X90731603Y-119412345D01*
X90685200Y-119524372D01*
X90600600Y-119524372D01*
X90600600Y-117493876D01*
X94005272Y-117493876D01*
X94117177Y-117764705D01*
X94324205Y-117972095D01*
X94594838Y-118084472D01*
X94887876Y-118084728D01*
X95158705Y-117972823D01*
X95173955Y-117957600D01*
X95460394Y-117957600D01*
X95472110Y-117975807D01*
X95590942Y-118057001D01*
X95732000Y-118085566D01*
X96932000Y-118085566D01*
X97063777Y-118060770D01*
X97184807Y-117982890D01*
X97266001Y-117864058D01*
X97294566Y-117723000D01*
X97294566Y-117611700D01*
X97327200Y-117611700D01*
X97327200Y-117783629D01*
X97373603Y-117895656D01*
X97459345Y-117981397D01*
X97571372Y-118027800D01*
X97855800Y-118027800D01*
X97932000Y-117951600D01*
X97932000Y-117535500D01*
X98532000Y-117535500D01*
X98532000Y-117951600D01*
X98608200Y-118027800D01*
X98892628Y-118027800D01*
X99004655Y-117981397D01*
X99090397Y-117895656D01*
X99136800Y-117783629D01*
X99136800Y-117611700D01*
X99060600Y-117535500D01*
X98532000Y-117535500D01*
X97932000Y-117535500D01*
X97403400Y-117535500D01*
X97327200Y-117611700D01*
X97294566Y-117611700D01*
X97294566Y-116973000D01*
X97283158Y-116912371D01*
X97327200Y-116912371D01*
X97327200Y-117084300D01*
X97403400Y-117160500D01*
X97932000Y-117160500D01*
X97932000Y-116744400D01*
X98532000Y-116744400D01*
X98532000Y-117160500D01*
X99060600Y-117160500D01*
X99136800Y-117084300D01*
X99136800Y-116912371D01*
X99090397Y-116800344D01*
X99004655Y-116714603D01*
X98892628Y-116668200D01*
X98608200Y-116668200D01*
X98532000Y-116744400D01*
X97932000Y-116744400D01*
X97855800Y-116668200D01*
X97571372Y-116668200D01*
X97459345Y-116714603D01*
X97373603Y-116800344D01*
X97327200Y-116912371D01*
X97283158Y-116912371D01*
X97269770Y-116841223D01*
X97191890Y-116720193D01*
X97073058Y-116638999D01*
X96932000Y-116610434D01*
X95732000Y-116610434D01*
X95600223Y-116635230D01*
X95479193Y-116713110D01*
X95461913Y-116738400D01*
X95174265Y-116738400D01*
X95159795Y-116723905D01*
X94889162Y-116611528D01*
X94596124Y-116611272D01*
X94325295Y-116723177D01*
X94117905Y-116930205D01*
X94005528Y-117200838D01*
X94005272Y-117493876D01*
X90600600Y-117493876D01*
X90600600Y-112170000D01*
X95217434Y-112170000D01*
X95217434Y-115670000D01*
X95242230Y-115801777D01*
X95320110Y-115922807D01*
X95438942Y-116004001D01*
X95580000Y-116032566D01*
X99080000Y-116032566D01*
X99211777Y-116007770D01*
X99332807Y-115929890D01*
X99414001Y-115811058D01*
X99442566Y-115670000D01*
X99442566Y-112170000D01*
X99417770Y-112038223D01*
X99339890Y-111917193D01*
X99221058Y-111835999D01*
X99080000Y-111807434D01*
X95580000Y-111807434D01*
X95448223Y-111832230D01*
X95327193Y-111910110D01*
X95245999Y-112028942D01*
X95217434Y-112170000D01*
X90600600Y-112170000D01*
X90600600Y-107470000D01*
X92217434Y-107470000D01*
X92217434Y-110970000D01*
X92242230Y-111101777D01*
X92320110Y-111222807D01*
X92438942Y-111304001D01*
X92580000Y-111332566D01*
X96080000Y-111332566D01*
X96211777Y-111307770D01*
X96332807Y-111229890D01*
X96414001Y-111111058D01*
X96442566Y-110970000D01*
X96442566Y-110171200D01*
X98275200Y-110171200D01*
X98275200Y-111030629D01*
X98321603Y-111142656D01*
X98407345Y-111228397D01*
X98519372Y-111274800D01*
X99378800Y-111274800D01*
X99455000Y-111198600D01*
X99455000Y-110095000D01*
X101205000Y-110095000D01*
X101205000Y-111198600D01*
X101281200Y-111274800D01*
X102140628Y-111274800D01*
X102252655Y-111228397D01*
X102338397Y-111142656D01*
X102384800Y-111030629D01*
X102384800Y-110475500D01*
X108733049Y-110475500D01*
X108741005Y-110644799D01*
X109056671Y-110993159D01*
X109155208Y-111058951D01*
X109324500Y-111060506D01*
X109324500Y-110475500D01*
X110224500Y-110475500D01*
X110224500Y-111060506D01*
X110393792Y-111058951D01*
X110492329Y-110993159D01*
X110807995Y-110644799D01*
X110815951Y-110475500D01*
X110224500Y-110475500D01*
X109324500Y-110475500D01*
X108733049Y-110475500D01*
X102384800Y-110475500D01*
X102384800Y-110171200D01*
X102308600Y-110095000D01*
X101205000Y-110095000D01*
X99455000Y-110095000D01*
X98351400Y-110095000D01*
X98275200Y-110171200D01*
X96442566Y-110171200D01*
X96442566Y-109575500D01*
X108733049Y-109575500D01*
X109324500Y-109575500D01*
X110224500Y-109575500D01*
X110815951Y-109575500D01*
X110807995Y-109406201D01*
X110492329Y-109057841D01*
X110393792Y-108992049D01*
X110224500Y-108990494D01*
X110224500Y-109575500D01*
X109324500Y-109575500D01*
X109324500Y-108990494D01*
X109155208Y-108992049D01*
X109056671Y-109057841D01*
X108741005Y-109406201D01*
X108733049Y-109575500D01*
X96442566Y-109575500D01*
X96442566Y-107470000D01*
X96431158Y-107409371D01*
X98275200Y-107409371D01*
X98275200Y-108268800D01*
X98351400Y-108345000D01*
X99455000Y-108345000D01*
X99455000Y-107241400D01*
X101205000Y-107241400D01*
X101205000Y-108345000D01*
X102308600Y-108345000D01*
X102384800Y-108268800D01*
X102384800Y-107409371D01*
X102338397Y-107297344D01*
X102252655Y-107211603D01*
X102140628Y-107165200D01*
X101281200Y-107165200D01*
X101205000Y-107241400D01*
X99455000Y-107241400D01*
X99378800Y-107165200D01*
X98519372Y-107165200D01*
X98407345Y-107211603D01*
X98321603Y-107297344D01*
X98275200Y-107409371D01*
X96431158Y-107409371D01*
X96417770Y-107338223D01*
X96339890Y-107217193D01*
X96221058Y-107135999D01*
X96080000Y-107107434D01*
X92580000Y-107107434D01*
X92448223Y-107132230D01*
X92327193Y-107210110D01*
X92245999Y-107328942D01*
X92217434Y-107470000D01*
X90600600Y-107470000D01*
X90600600Y-99060000D01*
X90845781Y-99060000D01*
X90937552Y-99521363D01*
X91198893Y-99912488D01*
X91590018Y-100173829D01*
X92051381Y-100265600D01*
X92098619Y-100265600D01*
X92559982Y-100173829D01*
X92951107Y-99912488D01*
X93212448Y-99521363D01*
X93304219Y-99060000D01*
X93212448Y-98598637D01*
X92951107Y-98207512D01*
X92559982Y-97946171D01*
X92098619Y-97854400D01*
X92051381Y-97854400D01*
X91590018Y-97946171D01*
X91198893Y-98207512D01*
X90937552Y-98598637D01*
X90845781Y-99060000D01*
X90600600Y-99060000D01*
X90600600Y-97021200D01*
X90920200Y-97021200D01*
X90920200Y-97430629D01*
X90966603Y-97542656D01*
X91052345Y-97628397D01*
X91164372Y-97674800D01*
X91573800Y-97674800D01*
X91650000Y-97598600D01*
X91650000Y-96945000D01*
X92500000Y-96945000D01*
X92500000Y-97598600D01*
X92576200Y-97674800D01*
X92985628Y-97674800D01*
X93033429Y-97655000D01*
X94716598Y-97655000D01*
X94716598Y-97959800D01*
X95169825Y-97959800D01*
X95077767Y-98097576D01*
X95012638Y-98425000D01*
X95077767Y-98752424D01*
X95263237Y-99030001D01*
X95308134Y-99060000D01*
X95263237Y-99089999D01*
X95077767Y-99367576D01*
X95012638Y-99695000D01*
X95077767Y-100022424D01*
X95263237Y-100300001D01*
X95540814Y-100485471D01*
X95868238Y-100550600D01*
X95901762Y-100550600D01*
X96229186Y-100485471D01*
X96506763Y-100300001D01*
X96692233Y-100022424D01*
X96751496Y-99724490D01*
X100784079Y-99724490D01*
X101293823Y-100958164D01*
X102236871Y-101902860D01*
X103469654Y-102414756D01*
X104804490Y-102415921D01*
X106038164Y-101906177D01*
X106982860Y-100963129D01*
X107494756Y-99730346D01*
X107495921Y-98395510D01*
X106986177Y-97161836D01*
X106043129Y-96217140D01*
X104810346Y-95705244D01*
X103475510Y-95704079D01*
X102241836Y-96213823D01*
X101297140Y-97156871D01*
X100785244Y-98389654D01*
X100784079Y-99724490D01*
X96751496Y-99724490D01*
X96757362Y-99695000D01*
X96692233Y-99367576D01*
X96506763Y-99089999D01*
X96461866Y-99060000D01*
X96506763Y-99030001D01*
X96692233Y-98752424D01*
X96757362Y-98425000D01*
X96692233Y-98097576D01*
X96600175Y-97959800D01*
X97053402Y-97959800D01*
X97053402Y-97655000D01*
X96512353Y-97655000D01*
X96601459Y-97521592D01*
X96569367Y-97405000D01*
X96135000Y-97405000D01*
X96135000Y-97615794D01*
X95901762Y-97569400D01*
X95868238Y-97569400D01*
X95635000Y-97615794D01*
X95635000Y-97405000D01*
X95200633Y-97405000D01*
X95168541Y-97521592D01*
X95257647Y-97655000D01*
X94716598Y-97655000D01*
X93033429Y-97655000D01*
X93097655Y-97628397D01*
X93183397Y-97542656D01*
X93229800Y-97430629D01*
X93229800Y-97021200D01*
X93153600Y-96945000D01*
X92500000Y-96945000D01*
X91650000Y-96945000D01*
X90996400Y-96945000D01*
X90920200Y-97021200D01*
X90600600Y-97021200D01*
X90600600Y-96211200D01*
X95080200Y-96211200D01*
X95080200Y-96445629D01*
X95126603Y-96557656D01*
X95212345Y-96643397D01*
X95253900Y-96660610D01*
X95168541Y-96788408D01*
X95200633Y-96905000D01*
X95635000Y-96905000D01*
X95635000Y-96135000D01*
X96135000Y-96135000D01*
X96135000Y-96905000D01*
X96569367Y-96905000D01*
X96601459Y-96788408D01*
X96516100Y-96660610D01*
X96557655Y-96643397D01*
X96643397Y-96557656D01*
X96689800Y-96445629D01*
X96689800Y-96211200D01*
X96613600Y-96135000D01*
X96135000Y-96135000D01*
X95635000Y-96135000D01*
X95156400Y-96135000D01*
X95080200Y-96211200D01*
X90600600Y-96211200D01*
X90600600Y-95609371D01*
X90920200Y-95609371D01*
X90920200Y-96018800D01*
X90996400Y-96095000D01*
X91650000Y-96095000D01*
X91650000Y-95441400D01*
X92500000Y-95441400D01*
X92500000Y-96095000D01*
X93153600Y-96095000D01*
X93229800Y-96018800D01*
X93229800Y-95609371D01*
X93183397Y-95497344D01*
X93097655Y-95411603D01*
X92985628Y-95365200D01*
X92576200Y-95365200D01*
X92500000Y-95441400D01*
X91650000Y-95441400D01*
X91573800Y-95365200D01*
X91164372Y-95365200D01*
X91052345Y-95411603D01*
X90966603Y-95497344D01*
X90920200Y-95609371D01*
X90600600Y-95609371D01*
X90600600Y-95324371D01*
X95080200Y-95324371D01*
X95080200Y-95558800D01*
X95156400Y-95635000D01*
X95635000Y-95635000D01*
X95635000Y-95156400D01*
X96135000Y-95156400D01*
X96135000Y-95635000D01*
X96613600Y-95635000D01*
X96689800Y-95558800D01*
X96689800Y-95324371D01*
X96643397Y-95212344D01*
X96557655Y-95126603D01*
X96445628Y-95080200D01*
X96211200Y-95080200D01*
X96135000Y-95156400D01*
X95635000Y-95156400D01*
X95558800Y-95080200D01*
X95324372Y-95080200D01*
X95212345Y-95126603D01*
X95126603Y-95212344D01*
X95080200Y-95324371D01*
X90600600Y-95324371D01*
X90600600Y-95045600D01*
X111023400Y-95045600D01*
X111023400Y-113367218D01*
G36*
X133554400Y-109753400D02*
X125095000Y-109753400D01*
X125055472Y-109761405D01*
X125022172Y-109784157D01*
X125000348Y-109818073D01*
X124993400Y-109855000D01*
X124993400Y-113430718D01*
X124904523Y-112983904D01*
X124632343Y-112576558D01*
X124224997Y-112304378D01*
X123744500Y-112208801D01*
X123264003Y-112304378D01*
X122856657Y-112576558D01*
X122584477Y-112983904D01*
X122488900Y-113464401D01*
X122488900Y-113513599D01*
X122584477Y-113994096D01*
X122856657Y-114401442D01*
X122880900Y-114417641D01*
X122880900Y-117274069D01*
X122763436Y-117297434D01*
X122420000Y-117297434D01*
X122288223Y-117322230D01*
X122167193Y-117400110D01*
X122085999Y-117518942D01*
X122057434Y-117660000D01*
X122057434Y-118560000D01*
X122082230Y-118691777D01*
X122160110Y-118812807D01*
X122278942Y-118894001D01*
X122420000Y-118922566D01*
X122763436Y-118922566D01*
X123020000Y-118973600D01*
X124993400Y-118973600D01*
X124993400Y-119575400D01*
X111861600Y-119575400D01*
X111861600Y-118850322D01*
X111865724Y-118847566D01*
X112045000Y-118847566D01*
X112176777Y-118822770D01*
X112297807Y-118744890D01*
X112379001Y-118626058D01*
X112394539Y-118549330D01*
X112407230Y-118616777D01*
X112485110Y-118737807D01*
X112603942Y-118819001D01*
X112745000Y-118847566D01*
X112924276Y-118847566D01*
X113014515Y-118907862D01*
X113345000Y-118973600D01*
X115062000Y-118973600D01*
X115392485Y-118907862D01*
X115672657Y-118720657D01*
X115859862Y-118440485D01*
X115925600Y-118110000D01*
X118516400Y-118110000D01*
X118582138Y-118440485D01*
X118769343Y-118720657D01*
X119049515Y-118907862D01*
X119380000Y-118973600D01*
X120820000Y-118973600D01*
X121076564Y-118922566D01*
X121420000Y-118922566D01*
X121551777Y-118897770D01*
X121672807Y-118819890D01*
X121754001Y-118701058D01*
X121782566Y-118560000D01*
X121782566Y-117660000D01*
X121757770Y-117528223D01*
X121679890Y-117407193D01*
X121561058Y-117325999D01*
X121420000Y-117297434D01*
X121076564Y-117297434D01*
X120820000Y-117246400D01*
X119380000Y-117246400D01*
X119049515Y-117312138D01*
X118769343Y-117499343D01*
X118582138Y-117779515D01*
X118516400Y-118110000D01*
X115925600Y-118110000D01*
X115859862Y-117779515D01*
X115672657Y-117499343D01*
X115392485Y-117312138D01*
X115062000Y-117246400D01*
X113345000Y-117246400D01*
X113014515Y-117312138D01*
X112924276Y-117372434D01*
X112745000Y-117372434D01*
X112613223Y-117397230D01*
X112492193Y-117475110D01*
X112410999Y-117593942D01*
X112395461Y-117670670D01*
X112382770Y-117603223D01*
X112304890Y-117482193D01*
X112186058Y-117400999D01*
X112045000Y-117372434D01*
X111865724Y-117372434D01*
X111861600Y-117369678D01*
X111861600Y-114225500D01*
X112211934Y-114225500D01*
X112211934Y-116025500D01*
X112236730Y-116157277D01*
X112314610Y-116278307D01*
X112433442Y-116359501D01*
X112574500Y-116388066D01*
X114374500Y-116388066D01*
X114506277Y-116363270D01*
X114627307Y-116285390D01*
X114708501Y-116166558D01*
X114737066Y-116025500D01*
X114737066Y-114225500D01*
X114712270Y-114093723D01*
X114634390Y-113972693D01*
X114515558Y-113891499D01*
X114374500Y-113862934D01*
X112574500Y-113862934D01*
X112442723Y-113887730D01*
X112321693Y-113965610D01*
X112240499Y-114084442D01*
X112211934Y-114225500D01*
X111861600Y-114225500D01*
X111861600Y-112175500D01*
X112433049Y-112175500D01*
X112441005Y-112344799D01*
X112756671Y-112693159D01*
X112855208Y-112758951D01*
X113024500Y-112760506D01*
X113024500Y-112175500D01*
X113924500Y-112175500D01*
X113924500Y-112760506D01*
X114093792Y-112758951D01*
X114192329Y-112693159D01*
X114507995Y-112344799D01*
X114515951Y-112175500D01*
X113924500Y-112175500D01*
X113024500Y-112175500D01*
X112433049Y-112175500D01*
X111861600Y-112175500D01*
X111861600Y-111275500D01*
X112433049Y-111275500D01*
X113024500Y-111275500D01*
X113924500Y-111275500D01*
X114515951Y-111275500D01*
X114507995Y-111106201D01*
X114192329Y-110757841D01*
X114093792Y-110692049D01*
X113924500Y-110690494D01*
X113924500Y-111275500D01*
X113024500Y-111275500D01*
X113024500Y-110690494D01*
X112855208Y-110692049D01*
X112756671Y-110757841D01*
X112441005Y-111106201D01*
X112433049Y-111275500D01*
X111861600Y-111275500D01*
X111861600Y-110539000D01*
X122703049Y-110539000D01*
X122711005Y-110708299D01*
X123026671Y-111056659D01*
X123125208Y-111122451D01*
X123294500Y-111124006D01*
X123294500Y-110539000D01*
X124194500Y-110539000D01*
X124194500Y-111124006D01*
X124363792Y-111122451D01*
X124462329Y-111056659D01*
X124777995Y-110708299D01*
X124785951Y-110539000D01*
X124194500Y-110539000D01*
X123294500Y-110539000D01*
X122703049Y-110539000D01*
X111861600Y-110539000D01*
X111861600Y-109639000D01*
X122703049Y-109639000D01*
X123294500Y-109639000D01*
X124194500Y-109639000D01*
X124785951Y-109639000D01*
X124777995Y-109469701D01*
X124462329Y-109121341D01*
X124363792Y-109055549D01*
X124194500Y-109053994D01*
X124194500Y-109639000D01*
X123294500Y-109639000D01*
X123294500Y-109053994D01*
X123125208Y-109055549D01*
X123026671Y-109121341D01*
X122711005Y-109469701D01*
X122703049Y-109639000D01*
X111861600Y-109639000D01*
X111861600Y-109518925D01*
X111937425Y-109443100D01*
X112893698Y-109443100D01*
X112994003Y-109510122D01*
X113474500Y-109605699D01*
X113954997Y-109510122D01*
X114362343Y-109237942D01*
X114628907Y-108839000D01*
X126403049Y-108839000D01*
X126411005Y-109008299D01*
X126726671Y-109356659D01*
X126825208Y-109422451D01*
X126994500Y-109424006D01*
X126994500Y-108839000D01*
X127894500Y-108839000D01*
X127894500Y-109424006D01*
X128063792Y-109422451D01*
X128162329Y-109356659D01*
X128477995Y-109008299D01*
X128485951Y-108839000D01*
X127894500Y-108839000D01*
X126994500Y-108839000D01*
X126403049Y-108839000D01*
X114628907Y-108839000D01*
X114634523Y-108830596D01*
X114730100Y-108350099D01*
X114730100Y-108300901D01*
X114658114Y-107939000D01*
X126403049Y-107939000D01*
X126994500Y-107939000D01*
X127894500Y-107939000D01*
X128485951Y-107939000D01*
X128477995Y-107769701D01*
X128162329Y-107421341D01*
X128063792Y-107355549D01*
X127894500Y-107353994D01*
X127894500Y-107939000D01*
X126994500Y-107939000D01*
X126994500Y-107353994D01*
X126825208Y-107355549D01*
X126726671Y-107421341D01*
X126411005Y-107769701D01*
X126403049Y-107939000D01*
X114658114Y-107939000D01*
X114634523Y-107820404D01*
X114362343Y-107413058D01*
X113954997Y-107140878D01*
X113474500Y-107045301D01*
X112994003Y-107140878D01*
X112893698Y-107207900D01*
X111861600Y-107207900D01*
X111861600Y-106680000D01*
X130850781Y-106680000D01*
X130942552Y-107141363D01*
X131203893Y-107532488D01*
X131595018Y-107793829D01*
X132056381Y-107885600D01*
X132103619Y-107885600D01*
X132564982Y-107793829D01*
X132956107Y-107532488D01*
X133217448Y-107141363D01*
X133309219Y-106680000D01*
X133217448Y-106218637D01*
X132956107Y-105827512D01*
X132564982Y-105566171D01*
X132103619Y-105474400D01*
X132056381Y-105474400D01*
X131595018Y-105566171D01*
X131203893Y-105827512D01*
X130942552Y-106218637D01*
X130850781Y-106680000D01*
X111861600Y-106680000D01*
X111861600Y-105673700D01*
X120065200Y-105673700D01*
X120065200Y-105845629D01*
X120111603Y-105957656D01*
X120197345Y-106043397D01*
X120309372Y-106089800D01*
X120593800Y-106089800D01*
X120670000Y-106013600D01*
X120670000Y-105597500D01*
X121270000Y-105597500D01*
X121270000Y-106013600D01*
X121346200Y-106089800D01*
X121630628Y-106089800D01*
X121742655Y-106043397D01*
X121828397Y-105957656D01*
X121874800Y-105845629D01*
X121874800Y-105673700D01*
X121798600Y-105597500D01*
X121270000Y-105597500D01*
X120670000Y-105597500D01*
X120141400Y-105597500D01*
X120065200Y-105673700D01*
X111861600Y-105673700D01*
X111861600Y-104974371D01*
X120065200Y-104974371D01*
X120065200Y-105146300D01*
X120141400Y-105222500D01*
X120670000Y-105222500D01*
X120670000Y-104806400D01*
X121270000Y-104806400D01*
X121270000Y-105222500D01*
X121798600Y-105222500D01*
X121874800Y-105146300D01*
X121874800Y-105035000D01*
X121907434Y-105035000D01*
X121907434Y-105785000D01*
X121932230Y-105916777D01*
X122010110Y-106037807D01*
X122128942Y-106119001D01*
X122270000Y-106147566D01*
X122449276Y-106147566D01*
X122539515Y-106207862D01*
X122870000Y-106273600D01*
X124460000Y-106273600D01*
X124790485Y-106207862D01*
X125070657Y-106020657D01*
X125257862Y-105740485D01*
X125323600Y-105410000D01*
X125257862Y-105079515D01*
X125070657Y-104799343D01*
X124833980Y-104641200D01*
X130925200Y-104641200D01*
X130925200Y-105050629D01*
X130971603Y-105162656D01*
X131057345Y-105248397D01*
X131169372Y-105294800D01*
X131578800Y-105294800D01*
X131655000Y-105218600D01*
X131655000Y-104565000D01*
X132505000Y-104565000D01*
X132505000Y-105218600D01*
X132581200Y-105294800D01*
X132990628Y-105294800D01*
X133102655Y-105248397D01*
X133188397Y-105162656D01*
X133234800Y-105050629D01*
X133234800Y-104641200D01*
X133158600Y-104565000D01*
X132505000Y-104565000D01*
X131655000Y-104565000D01*
X131001400Y-104565000D01*
X130925200Y-104641200D01*
X124833980Y-104641200D01*
X124790485Y-104612138D01*
X124460000Y-104546400D01*
X122870000Y-104546400D01*
X122539515Y-104612138D01*
X122449276Y-104672434D01*
X122270000Y-104672434D01*
X122138223Y-104697230D01*
X122017193Y-104775110D01*
X121935999Y-104893942D01*
X121907434Y-105035000D01*
X121874800Y-105035000D01*
X121874800Y-104974371D01*
X121828397Y-104862344D01*
X121742655Y-104776603D01*
X121630628Y-104730200D01*
X121346200Y-104730200D01*
X121270000Y-104806400D01*
X120670000Y-104806400D01*
X120593800Y-104730200D01*
X120309372Y-104730200D01*
X120197345Y-104776603D01*
X120111603Y-104862344D01*
X120065200Y-104974371D01*
X111861600Y-104974371D01*
X111861600Y-103206200D01*
X126580200Y-103206200D01*
X126580200Y-103990628D01*
X126626603Y-104102655D01*
X126712344Y-104188397D01*
X126824371Y-104234800D01*
X127183800Y-104234800D01*
X127260000Y-104158600D01*
X127260000Y-103130000D01*
X128010000Y-103130000D01*
X128010000Y-104158600D01*
X128086200Y-104234800D01*
X128445629Y-104234800D01*
X128557656Y-104188397D01*
X128643397Y-104102655D01*
X128689800Y-103990628D01*
X128689800Y-103229371D01*
X130925200Y-103229371D01*
X130925200Y-103638800D01*
X131001400Y-103715000D01*
X131655000Y-103715000D01*
X131655000Y-103061400D01*
X132505000Y-103061400D01*
X132505000Y-103715000D01*
X133158600Y-103715000D01*
X133234800Y-103638800D01*
X133234800Y-103229371D01*
X133188397Y-103117344D01*
X133102655Y-103031603D01*
X132990628Y-102985200D01*
X132581200Y-102985200D01*
X132505000Y-103061400D01*
X131655000Y-103061400D01*
X131578800Y-102985200D01*
X131169372Y-102985200D01*
X131057345Y-103031603D01*
X130971603Y-103117344D01*
X130925200Y-103229371D01*
X128689800Y-103229371D01*
X128689800Y-103206200D01*
X128613600Y-103130000D01*
X128010000Y-103130000D01*
X127260000Y-103130000D01*
X126656400Y-103130000D01*
X126580200Y-103206200D01*
X111861600Y-103206200D01*
X111861600Y-99724490D01*
X114754079Y-99724490D01*
X115263823Y-100958164D01*
X116206871Y-101902860D01*
X117439654Y-102414756D01*
X118774490Y-102415921D01*
X120008164Y-101906177D01*
X120952860Y-100963129D01*
X121074838Y-100669372D01*
X126580200Y-100669372D01*
X126580200Y-101453800D01*
X126656400Y-101530000D01*
X127260000Y-101530000D01*
X127260000Y-100501400D01*
X128010000Y-100501400D01*
X128010000Y-101530000D01*
X128613600Y-101530000D01*
X128689800Y-101453800D01*
X128689800Y-100669372D01*
X128643397Y-100557345D01*
X128557656Y-100471603D01*
X128445629Y-100425200D01*
X128086200Y-100425200D01*
X128010000Y-100501400D01*
X127260000Y-100501400D01*
X127183800Y-100425200D01*
X126824371Y-100425200D01*
X126712344Y-100471603D01*
X126626603Y-100557345D01*
X126580200Y-100669372D01*
X121074838Y-100669372D01*
X121464756Y-99730346D01*
X121465921Y-98395510D01*
X121425631Y-98298000D01*
X124612401Y-98298000D01*
X124678138Y-98628485D01*
X124865343Y-98908657D01*
X124897343Y-98940658D01*
X125177515Y-99127862D01*
X125508000Y-99193600D01*
X126522434Y-99193600D01*
X126522434Y-99930000D01*
X126547230Y-100061777D01*
X126625110Y-100182807D01*
X126743942Y-100264001D01*
X126885000Y-100292566D01*
X128385000Y-100292566D01*
X128516777Y-100267770D01*
X128637807Y-100189890D01*
X128719001Y-100071058D01*
X128747566Y-99930000D01*
X128747566Y-99193600D01*
X129508000Y-99193600D01*
X129668874Y-99161600D01*
X129794000Y-99161600D01*
X130124485Y-99095862D01*
X130404657Y-98908657D01*
X130591862Y-98628485D01*
X130657600Y-98298000D01*
X130656009Y-98290000D01*
X130911598Y-98290000D01*
X130911598Y-98594800D01*
X131364825Y-98594800D01*
X131272767Y-98732576D01*
X131207638Y-99060000D01*
X131272767Y-99387424D01*
X131458237Y-99665001D01*
X131503134Y-99695000D01*
X131458237Y-99724999D01*
X131272767Y-100002576D01*
X131207638Y-100330000D01*
X131272767Y-100657424D01*
X131458237Y-100935001D01*
X131735814Y-101120471D01*
X132063238Y-101185600D01*
X132096762Y-101185600D01*
X132424186Y-101120471D01*
X132701763Y-100935001D01*
X132887233Y-100657424D01*
X132952362Y-100330000D01*
X132887233Y-100002576D01*
X132701763Y-99724999D01*
X132656866Y-99695000D01*
X132701763Y-99665001D01*
X132887233Y-99387424D01*
X132952362Y-99060000D01*
X132887233Y-98732576D01*
X132795175Y-98594800D01*
X133248402Y-98594800D01*
X133248402Y-98290000D01*
X132707353Y-98290000D01*
X132796459Y-98156592D01*
X132764367Y-98040000D01*
X132330000Y-98040000D01*
X132330000Y-98250794D01*
X132096762Y-98204400D01*
X132063238Y-98204400D01*
X131830000Y-98250794D01*
X131830000Y-98040000D01*
X131395633Y-98040000D01*
X131363541Y-98156592D01*
X131452647Y-98290000D01*
X130911598Y-98290000D01*
X130656009Y-98290000D01*
X130591862Y-97967515D01*
X130404657Y-97687343D01*
X130124485Y-97500138D01*
X129794000Y-97434400D01*
X129540000Y-97434400D01*
X129379126Y-97466400D01*
X128747566Y-97466400D01*
X128747566Y-96846200D01*
X131275200Y-96846200D01*
X131275200Y-97080629D01*
X131321603Y-97192656D01*
X131407345Y-97278397D01*
X131448900Y-97295610D01*
X131363541Y-97423408D01*
X131395633Y-97540000D01*
X131830000Y-97540000D01*
X131830000Y-96770000D01*
X132330000Y-96770000D01*
X132330000Y-97540000D01*
X132764367Y-97540000D01*
X132796459Y-97423408D01*
X132711100Y-97295610D01*
X132752655Y-97278397D01*
X132838397Y-97192656D01*
X132884800Y-97080629D01*
X132884800Y-96846200D01*
X132808600Y-96770000D01*
X132330000Y-96770000D01*
X131830000Y-96770000D01*
X131351400Y-96770000D01*
X131275200Y-96846200D01*
X128747566Y-96846200D01*
X128747566Y-96730000D01*
X128722770Y-96598223D01*
X128644890Y-96477193D01*
X128526058Y-96395999D01*
X128385000Y-96367434D01*
X126885000Y-96367434D01*
X126753223Y-96392230D01*
X126632193Y-96470110D01*
X126550999Y-96588942D01*
X126522434Y-96730000D01*
X126522434Y-97466400D01*
X125636871Y-97466400D01*
X125476000Y-97434401D01*
X125145515Y-97500138D01*
X124865343Y-97687343D01*
X124678138Y-97967515D01*
X124612401Y-98298000D01*
X121425631Y-98298000D01*
X120956177Y-97161836D01*
X120013129Y-96217140D01*
X119392353Y-95959371D01*
X131275200Y-95959371D01*
X131275200Y-96193800D01*
X131351400Y-96270000D01*
X131830000Y-96270000D01*
X131830000Y-95791400D01*
X132330000Y-95791400D01*
X132330000Y-96270000D01*
X132808600Y-96270000D01*
X132884800Y-96193800D01*
X132884800Y-95959371D01*
X132838397Y-95847344D01*
X132752655Y-95761603D01*
X132640628Y-95715200D01*
X132406200Y-95715200D01*
X132330000Y-95791400D01*
X131830000Y-95791400D01*
X131753800Y-95715200D01*
X131519372Y-95715200D01*
X131407345Y-95761603D01*
X131321603Y-95847344D01*
X131275200Y-95959371D01*
X119392353Y-95959371D01*
X118780346Y-95705244D01*
X117445510Y-95704079D01*
X116211836Y-96213823D01*
X115267140Y-97156871D01*
X114755244Y-98389654D01*
X114754079Y-99724490D01*
X111861600Y-99724490D01*
X111861600Y-95045600D01*
X133554400Y-95045600D01*
X133554400Y-109753400D01*
X133554400Y-109753400D01*
G37*
X133554400Y-109753400D02*
X125095000Y-109753400D01*
X125055472Y-109761405D01*
X125022172Y-109784157D01*
X125000348Y-109818073D01*
X124993400Y-109855000D01*
X124993400Y-113430718D01*
X124904523Y-112983904D01*
X124632343Y-112576558D01*
X124224997Y-112304378D01*
X123744500Y-112208801D01*
X123264003Y-112304378D01*
X122856657Y-112576558D01*
X122584477Y-112983904D01*
X122488900Y-113464401D01*
X122488900Y-113513599D01*
X122584477Y-113994096D01*
X122856657Y-114401442D01*
X122880900Y-114417641D01*
X122880900Y-117274069D01*
X122763436Y-117297434D01*
X122420000Y-117297434D01*
X122288223Y-117322230D01*
X122167193Y-117400110D01*
X122085999Y-117518942D01*
X122057434Y-117660000D01*
X122057434Y-118560000D01*
X122082230Y-118691777D01*
X122160110Y-118812807D01*
X122278942Y-118894001D01*
X122420000Y-118922566D01*
X122763436Y-118922566D01*
X123020000Y-118973600D01*
X124993400Y-118973600D01*
X124993400Y-119575400D01*
X111861600Y-119575400D01*
X111861600Y-118850322D01*
X111865724Y-118847566D01*
X112045000Y-118847566D01*
X112176777Y-118822770D01*
X112297807Y-118744890D01*
X112379001Y-118626058D01*
X112394539Y-118549330D01*
X112407230Y-118616777D01*
X112485110Y-118737807D01*
X112603942Y-118819001D01*
X112745000Y-118847566D01*
X112924276Y-118847566D01*
X113014515Y-118907862D01*
X113345000Y-118973600D01*
X115062000Y-118973600D01*
X115392485Y-118907862D01*
X115672657Y-118720657D01*
X115859862Y-118440485D01*
X115925600Y-118110000D01*
X118516400Y-118110000D01*
X118582138Y-118440485D01*
X118769343Y-118720657D01*
X119049515Y-118907862D01*
X119380000Y-118973600D01*
X120820000Y-118973600D01*
X121076564Y-118922566D01*
X121420000Y-118922566D01*
X121551777Y-118897770D01*
X121672807Y-118819890D01*
X121754001Y-118701058D01*
X121782566Y-118560000D01*
X121782566Y-117660000D01*
X121757770Y-117528223D01*
X121679890Y-117407193D01*
X121561058Y-117325999D01*
X121420000Y-117297434D01*
X121076564Y-117297434D01*
X120820000Y-117246400D01*
X119380000Y-117246400D01*
X119049515Y-117312138D01*
X118769343Y-117499343D01*
X118582138Y-117779515D01*
X118516400Y-118110000D01*
X115925600Y-118110000D01*
X115859862Y-117779515D01*
X115672657Y-117499343D01*
X115392485Y-117312138D01*
X115062000Y-117246400D01*
X113345000Y-117246400D01*
X113014515Y-117312138D01*
X112924276Y-117372434D01*
X112745000Y-117372434D01*
X112613223Y-117397230D01*
X112492193Y-117475110D01*
X112410999Y-117593942D01*
X112395461Y-117670670D01*
X112382770Y-117603223D01*
X112304890Y-117482193D01*
X112186058Y-117400999D01*
X112045000Y-117372434D01*
X111865724Y-117372434D01*
X111861600Y-117369678D01*
X111861600Y-114225500D01*
X112211934Y-114225500D01*
X112211934Y-116025500D01*
X112236730Y-116157277D01*
X112314610Y-116278307D01*
X112433442Y-116359501D01*
X112574500Y-116388066D01*
X114374500Y-116388066D01*
X114506277Y-116363270D01*
X114627307Y-116285390D01*
X114708501Y-116166558D01*
X114737066Y-116025500D01*
X114737066Y-114225500D01*
X114712270Y-114093723D01*
X114634390Y-113972693D01*
X114515558Y-113891499D01*
X114374500Y-113862934D01*
X112574500Y-113862934D01*
X112442723Y-113887730D01*
X112321693Y-113965610D01*
X112240499Y-114084442D01*
X112211934Y-114225500D01*
X111861600Y-114225500D01*
X111861600Y-112175500D01*
X112433049Y-112175500D01*
X112441005Y-112344799D01*
X112756671Y-112693159D01*
X112855208Y-112758951D01*
X113024500Y-112760506D01*
X113024500Y-112175500D01*
X113924500Y-112175500D01*
X113924500Y-112760506D01*
X114093792Y-112758951D01*
X114192329Y-112693159D01*
X114507995Y-112344799D01*
X114515951Y-112175500D01*
X113924500Y-112175500D01*
X113024500Y-112175500D01*
X112433049Y-112175500D01*
X111861600Y-112175500D01*
X111861600Y-111275500D01*
X112433049Y-111275500D01*
X113024500Y-111275500D01*
X113924500Y-111275500D01*
X114515951Y-111275500D01*
X114507995Y-111106201D01*
X114192329Y-110757841D01*
X114093792Y-110692049D01*
X113924500Y-110690494D01*
X113924500Y-111275500D01*
X113024500Y-111275500D01*
X113024500Y-110690494D01*
X112855208Y-110692049D01*
X112756671Y-110757841D01*
X112441005Y-111106201D01*
X112433049Y-111275500D01*
X111861600Y-111275500D01*
X111861600Y-110539000D01*
X122703049Y-110539000D01*
X122711005Y-110708299D01*
X123026671Y-111056659D01*
X123125208Y-111122451D01*
X123294500Y-111124006D01*
X123294500Y-110539000D01*
X124194500Y-110539000D01*
X124194500Y-111124006D01*
X124363792Y-111122451D01*
X124462329Y-111056659D01*
X124777995Y-110708299D01*
X124785951Y-110539000D01*
X124194500Y-110539000D01*
X123294500Y-110539000D01*
X122703049Y-110539000D01*
X111861600Y-110539000D01*
X111861600Y-109639000D01*
X122703049Y-109639000D01*
X123294500Y-109639000D01*
X124194500Y-109639000D01*
X124785951Y-109639000D01*
X124777995Y-109469701D01*
X124462329Y-109121341D01*
X124363792Y-109055549D01*
X124194500Y-109053994D01*
X124194500Y-109639000D01*
X123294500Y-109639000D01*
X123294500Y-109053994D01*
X123125208Y-109055549D01*
X123026671Y-109121341D01*
X122711005Y-109469701D01*
X122703049Y-109639000D01*
X111861600Y-109639000D01*
X111861600Y-109518925D01*
X111937425Y-109443100D01*
X112893698Y-109443100D01*
X112994003Y-109510122D01*
X113474500Y-109605699D01*
X113954997Y-109510122D01*
X114362343Y-109237942D01*
X114628907Y-108839000D01*
X126403049Y-108839000D01*
X126411005Y-109008299D01*
X126726671Y-109356659D01*
X126825208Y-109422451D01*
X126994500Y-109424006D01*
X126994500Y-108839000D01*
X127894500Y-108839000D01*
X127894500Y-109424006D01*
X128063792Y-109422451D01*
X128162329Y-109356659D01*
X128477995Y-109008299D01*
X128485951Y-108839000D01*
X127894500Y-108839000D01*
X126994500Y-108839000D01*
X126403049Y-108839000D01*
X114628907Y-108839000D01*
X114634523Y-108830596D01*
X114730100Y-108350099D01*
X114730100Y-108300901D01*
X114658114Y-107939000D01*
X126403049Y-107939000D01*
X126994500Y-107939000D01*
X127894500Y-107939000D01*
X128485951Y-107939000D01*
X128477995Y-107769701D01*
X128162329Y-107421341D01*
X128063792Y-107355549D01*
X127894500Y-107353994D01*
X127894500Y-107939000D01*
X126994500Y-107939000D01*
X126994500Y-107353994D01*
X126825208Y-107355549D01*
X126726671Y-107421341D01*
X126411005Y-107769701D01*
X126403049Y-107939000D01*
X114658114Y-107939000D01*
X114634523Y-107820404D01*
X114362343Y-107413058D01*
X113954997Y-107140878D01*
X113474500Y-107045301D01*
X112994003Y-107140878D01*
X112893698Y-107207900D01*
X111861600Y-107207900D01*
X111861600Y-106680000D01*
X130850781Y-106680000D01*
X130942552Y-107141363D01*
X131203893Y-107532488D01*
X131595018Y-107793829D01*
X132056381Y-107885600D01*
X132103619Y-107885600D01*
X132564982Y-107793829D01*
X132956107Y-107532488D01*
X133217448Y-107141363D01*
X133309219Y-106680000D01*
X133217448Y-106218637D01*
X132956107Y-105827512D01*
X132564982Y-105566171D01*
X132103619Y-105474400D01*
X132056381Y-105474400D01*
X131595018Y-105566171D01*
X131203893Y-105827512D01*
X130942552Y-106218637D01*
X130850781Y-106680000D01*
X111861600Y-106680000D01*
X111861600Y-105673700D01*
X120065200Y-105673700D01*
X120065200Y-105845629D01*
X120111603Y-105957656D01*
X120197345Y-106043397D01*
X120309372Y-106089800D01*
X120593800Y-106089800D01*
X120670000Y-106013600D01*
X120670000Y-105597500D01*
X121270000Y-105597500D01*
X121270000Y-106013600D01*
X121346200Y-106089800D01*
X121630628Y-106089800D01*
X121742655Y-106043397D01*
X121828397Y-105957656D01*
X121874800Y-105845629D01*
X121874800Y-105673700D01*
X121798600Y-105597500D01*
X121270000Y-105597500D01*
X120670000Y-105597500D01*
X120141400Y-105597500D01*
X120065200Y-105673700D01*
X111861600Y-105673700D01*
X111861600Y-104974371D01*
X120065200Y-104974371D01*
X120065200Y-105146300D01*
X120141400Y-105222500D01*
X120670000Y-105222500D01*
X120670000Y-104806400D01*
X121270000Y-104806400D01*
X121270000Y-105222500D01*
X121798600Y-105222500D01*
X121874800Y-105146300D01*
X121874800Y-105035000D01*
X121907434Y-105035000D01*
X121907434Y-105785000D01*
X121932230Y-105916777D01*
X122010110Y-106037807D01*
X122128942Y-106119001D01*
X122270000Y-106147566D01*
X122449276Y-106147566D01*
X122539515Y-106207862D01*
X122870000Y-106273600D01*
X124460000Y-106273600D01*
X124790485Y-106207862D01*
X125070657Y-106020657D01*
X125257862Y-105740485D01*
X125323600Y-105410000D01*
X125257862Y-105079515D01*
X125070657Y-104799343D01*
X124833980Y-104641200D01*
X130925200Y-104641200D01*
X130925200Y-105050629D01*
X130971603Y-105162656D01*
X131057345Y-105248397D01*
X131169372Y-105294800D01*
X131578800Y-105294800D01*
X131655000Y-105218600D01*
X131655000Y-104565000D01*
X132505000Y-104565000D01*
X132505000Y-105218600D01*
X132581200Y-105294800D01*
X132990628Y-105294800D01*
X133102655Y-105248397D01*
X133188397Y-105162656D01*
X133234800Y-105050629D01*
X133234800Y-104641200D01*
X133158600Y-104565000D01*
X132505000Y-104565000D01*
X131655000Y-104565000D01*
X131001400Y-104565000D01*
X130925200Y-104641200D01*
X124833980Y-104641200D01*
X124790485Y-104612138D01*
X124460000Y-104546400D01*
X122870000Y-104546400D01*
X122539515Y-104612138D01*
X122449276Y-104672434D01*
X122270000Y-104672434D01*
X122138223Y-104697230D01*
X122017193Y-104775110D01*
X121935999Y-104893942D01*
X121907434Y-105035000D01*
X121874800Y-105035000D01*
X121874800Y-104974371D01*
X121828397Y-104862344D01*
X121742655Y-104776603D01*
X121630628Y-104730200D01*
X121346200Y-104730200D01*
X121270000Y-104806400D01*
X120670000Y-104806400D01*
X120593800Y-104730200D01*
X120309372Y-104730200D01*
X120197345Y-104776603D01*
X120111603Y-104862344D01*
X120065200Y-104974371D01*
X111861600Y-104974371D01*
X111861600Y-103206200D01*
X126580200Y-103206200D01*
X126580200Y-103990628D01*
X126626603Y-104102655D01*
X126712344Y-104188397D01*
X126824371Y-104234800D01*
X127183800Y-104234800D01*
X127260000Y-104158600D01*
X127260000Y-103130000D01*
X128010000Y-103130000D01*
X128010000Y-104158600D01*
X128086200Y-104234800D01*
X128445629Y-104234800D01*
X128557656Y-104188397D01*
X128643397Y-104102655D01*
X128689800Y-103990628D01*
X128689800Y-103229371D01*
X130925200Y-103229371D01*
X130925200Y-103638800D01*
X131001400Y-103715000D01*
X131655000Y-103715000D01*
X131655000Y-103061400D01*
X132505000Y-103061400D01*
X132505000Y-103715000D01*
X133158600Y-103715000D01*
X133234800Y-103638800D01*
X133234800Y-103229371D01*
X133188397Y-103117344D01*
X133102655Y-103031603D01*
X132990628Y-102985200D01*
X132581200Y-102985200D01*
X132505000Y-103061400D01*
X131655000Y-103061400D01*
X131578800Y-102985200D01*
X131169372Y-102985200D01*
X131057345Y-103031603D01*
X130971603Y-103117344D01*
X130925200Y-103229371D01*
X128689800Y-103229371D01*
X128689800Y-103206200D01*
X128613600Y-103130000D01*
X128010000Y-103130000D01*
X127260000Y-103130000D01*
X126656400Y-103130000D01*
X126580200Y-103206200D01*
X111861600Y-103206200D01*
X111861600Y-99724490D01*
X114754079Y-99724490D01*
X115263823Y-100958164D01*
X116206871Y-101902860D01*
X117439654Y-102414756D01*
X118774490Y-102415921D01*
X120008164Y-101906177D01*
X120952860Y-100963129D01*
X121074838Y-100669372D01*
X126580200Y-100669372D01*
X126580200Y-101453800D01*
X126656400Y-101530000D01*
X127260000Y-101530000D01*
X127260000Y-100501400D01*
X128010000Y-100501400D01*
X128010000Y-101530000D01*
X128613600Y-101530000D01*
X128689800Y-101453800D01*
X128689800Y-100669372D01*
X128643397Y-100557345D01*
X128557656Y-100471603D01*
X128445629Y-100425200D01*
X128086200Y-100425200D01*
X128010000Y-100501400D01*
X127260000Y-100501400D01*
X127183800Y-100425200D01*
X126824371Y-100425200D01*
X126712344Y-100471603D01*
X126626603Y-100557345D01*
X126580200Y-100669372D01*
X121074838Y-100669372D01*
X121464756Y-99730346D01*
X121465921Y-98395510D01*
X121425631Y-98298000D01*
X124612401Y-98298000D01*
X124678138Y-98628485D01*
X124865343Y-98908657D01*
X124897343Y-98940658D01*
X125177515Y-99127862D01*
X125508000Y-99193600D01*
X126522434Y-99193600D01*
X126522434Y-99930000D01*
X126547230Y-100061777D01*
X126625110Y-100182807D01*
X126743942Y-100264001D01*
X126885000Y-100292566D01*
X128385000Y-100292566D01*
X128516777Y-100267770D01*
X128637807Y-100189890D01*
X128719001Y-100071058D01*
X128747566Y-99930000D01*
X128747566Y-99193600D01*
X129508000Y-99193600D01*
X129668874Y-99161600D01*
X129794000Y-99161600D01*
X130124485Y-99095862D01*
X130404657Y-98908657D01*
X130591862Y-98628485D01*
X130657600Y-98298000D01*
X130656009Y-98290000D01*
X130911598Y-98290000D01*
X130911598Y-98594800D01*
X131364825Y-98594800D01*
X131272767Y-98732576D01*
X131207638Y-99060000D01*
X131272767Y-99387424D01*
X131458237Y-99665001D01*
X131503134Y-99695000D01*
X131458237Y-99724999D01*
X131272767Y-100002576D01*
X131207638Y-100330000D01*
X131272767Y-100657424D01*
X131458237Y-100935001D01*
X131735814Y-101120471D01*
X132063238Y-101185600D01*
X132096762Y-101185600D01*
X132424186Y-101120471D01*
X132701763Y-100935001D01*
X132887233Y-100657424D01*
X132952362Y-100330000D01*
X132887233Y-100002576D01*
X132701763Y-99724999D01*
X132656866Y-99695000D01*
X132701763Y-99665001D01*
X132887233Y-99387424D01*
X132952362Y-99060000D01*
X132887233Y-98732576D01*
X132795175Y-98594800D01*
X133248402Y-98594800D01*
X133248402Y-98290000D01*
X132707353Y-98290000D01*
X132796459Y-98156592D01*
X132764367Y-98040000D01*
X132330000Y-98040000D01*
X132330000Y-98250794D01*
X132096762Y-98204400D01*
X132063238Y-98204400D01*
X131830000Y-98250794D01*
X131830000Y-98040000D01*
X131395633Y-98040000D01*
X131363541Y-98156592D01*
X131452647Y-98290000D01*
X130911598Y-98290000D01*
X130656009Y-98290000D01*
X130591862Y-97967515D01*
X130404657Y-97687343D01*
X130124485Y-97500138D01*
X129794000Y-97434400D01*
X129540000Y-97434400D01*
X129379126Y-97466400D01*
X128747566Y-97466400D01*
X128747566Y-96846200D01*
X131275200Y-96846200D01*
X131275200Y-97080629D01*
X131321603Y-97192656D01*
X131407345Y-97278397D01*
X131448900Y-97295610D01*
X131363541Y-97423408D01*
X131395633Y-97540000D01*
X131830000Y-97540000D01*
X131830000Y-96770000D01*
X132330000Y-96770000D01*
X132330000Y-97540000D01*
X132764367Y-97540000D01*
X132796459Y-97423408D01*
X132711100Y-97295610D01*
X132752655Y-97278397D01*
X132838397Y-97192656D01*
X132884800Y-97080629D01*
X132884800Y-96846200D01*
X132808600Y-96770000D01*
X132330000Y-96770000D01*
X131830000Y-96770000D01*
X131351400Y-96770000D01*
X131275200Y-96846200D01*
X128747566Y-96846200D01*
X128747566Y-96730000D01*
X128722770Y-96598223D01*
X128644890Y-96477193D01*
X128526058Y-96395999D01*
X128385000Y-96367434D01*
X126885000Y-96367434D01*
X126753223Y-96392230D01*
X126632193Y-96470110D01*
X126550999Y-96588942D01*
X126522434Y-96730000D01*
X126522434Y-97466400D01*
X125636871Y-97466400D01*
X125476000Y-97434401D01*
X125145515Y-97500138D01*
X124865343Y-97687343D01*
X124678138Y-97967515D01*
X124612401Y-98298000D01*
X121425631Y-98298000D01*
X120956177Y-97161836D01*
X120013129Y-96217140D01*
X119392353Y-95959371D01*
X131275200Y-95959371D01*
X131275200Y-96193800D01*
X131351400Y-96270000D01*
X131830000Y-96270000D01*
X131830000Y-95791400D01*
X132330000Y-95791400D01*
X132330000Y-96270000D01*
X132808600Y-96270000D01*
X132884800Y-96193800D01*
X132884800Y-95959371D01*
X132838397Y-95847344D01*
X132752655Y-95761603D01*
X132640628Y-95715200D01*
X132406200Y-95715200D01*
X132330000Y-95791400D01*
X131830000Y-95791400D01*
X131753800Y-95715200D01*
X131519372Y-95715200D01*
X131407345Y-95761603D01*
X131321603Y-95847344D01*
X131275200Y-95959371D01*
X119392353Y-95959371D01*
X118780346Y-95705244D01*
X117445510Y-95704079D01*
X116211836Y-96213823D01*
X115267140Y-97156871D01*
X114755244Y-98389654D01*
X114754079Y-99724490D01*
X111861600Y-99724490D01*
X111861600Y-95045600D01*
X133554400Y-95045600D01*
X133554400Y-109753400D01*
G36*
X126276098Y-110889000D02*
X126665362Y-110889000D01*
X126411005Y-111169701D01*
X126403049Y-111339000D01*
X126994500Y-111339000D01*
X126994500Y-110889000D01*
X127894500Y-110889000D01*
X127894500Y-111339000D01*
X128485951Y-111339000D01*
X128477995Y-111169701D01*
X128223638Y-110889000D01*
X128612902Y-110889000D01*
X128612902Y-110591600D01*
X133554400Y-110591600D01*
X133554400Y-127839400D01*
X125831600Y-127839400D01*
X125831600Y-123590000D01*
X126522434Y-123590000D01*
X126522434Y-126790000D01*
X126547230Y-126921777D01*
X126625110Y-127042807D01*
X126743942Y-127124001D01*
X126885000Y-127152566D01*
X128385000Y-127152566D01*
X128516777Y-127127770D01*
X128637807Y-127049890D01*
X128719001Y-126931058D01*
X128747566Y-126790000D01*
X128747566Y-126053600D01*
X129633126Y-126053600D01*
X129794000Y-126085600D01*
X130124486Y-126019862D01*
X130404658Y-125832658D01*
X130591862Y-125552486D01*
X130657600Y-125222000D01*
X130591862Y-124891515D01*
X130404658Y-124611343D01*
X130372657Y-124579343D01*
X130092485Y-124392138D01*
X129762000Y-124326400D01*
X128747566Y-124326400D01*
X128747566Y-123690000D01*
X130911598Y-123690000D01*
X130911598Y-123994800D01*
X131364825Y-123994800D01*
X131272767Y-124132576D01*
X131207638Y-124460000D01*
X131272767Y-124787424D01*
X131458237Y-125065001D01*
X131503134Y-125095000D01*
X131458237Y-125124999D01*
X131272767Y-125402576D01*
X131207638Y-125730000D01*
X131272767Y-126057424D01*
X131458237Y-126335001D01*
X131735814Y-126520471D01*
X132063238Y-126585600D01*
X132096762Y-126585600D01*
X132424186Y-126520471D01*
X132701763Y-126335001D01*
X132887233Y-126057424D01*
X132952362Y-125730000D01*
X132887233Y-125402576D01*
X132701763Y-125124999D01*
X132656866Y-125095000D01*
X132701763Y-125065001D01*
X132887233Y-124787424D01*
X132952362Y-124460000D01*
X132887233Y-124132576D01*
X132795175Y-123994800D01*
X133248402Y-123994800D01*
X133248402Y-123690000D01*
X132707353Y-123690000D01*
X132796459Y-123556592D01*
X132764367Y-123440000D01*
X132330000Y-123440000D01*
X132330000Y-123650794D01*
X132096762Y-123604400D01*
X132063238Y-123604400D01*
X131830000Y-123650794D01*
X131830000Y-123440000D01*
X131395633Y-123440000D01*
X131363541Y-123556592D01*
X131452647Y-123690000D01*
X130911598Y-123690000D01*
X128747566Y-123690000D01*
X128747566Y-123590000D01*
X128722770Y-123458223D01*
X128644890Y-123337193D01*
X128526058Y-123255999D01*
X128385000Y-123227434D01*
X126885000Y-123227434D01*
X126753223Y-123252230D01*
X126632193Y-123330110D01*
X126550999Y-123448942D01*
X126522434Y-123590000D01*
X125831600Y-123590000D01*
X125831600Y-122066200D01*
X126580200Y-122066200D01*
X126580200Y-122850628D01*
X126626603Y-122962655D01*
X126712344Y-123048397D01*
X126824371Y-123094800D01*
X127183800Y-123094800D01*
X127260000Y-123018600D01*
X127260000Y-121990000D01*
X128010000Y-121990000D01*
X128010000Y-123018600D01*
X128086200Y-123094800D01*
X128445629Y-123094800D01*
X128557656Y-123048397D01*
X128643397Y-122962655D01*
X128689800Y-122850628D01*
X128689800Y-122246200D01*
X131275200Y-122246200D01*
X131275200Y-122480629D01*
X131321603Y-122592656D01*
X131407345Y-122678397D01*
X131448900Y-122695610D01*
X131363541Y-122823408D01*
X131395633Y-122940000D01*
X131830000Y-122940000D01*
X131830000Y-122170000D01*
X132330000Y-122170000D01*
X132330000Y-122940000D01*
X132764367Y-122940000D01*
X132796459Y-122823408D01*
X132711100Y-122695610D01*
X132752655Y-122678397D01*
X132838397Y-122592656D01*
X132884800Y-122480629D01*
X132884800Y-122246200D01*
X132808600Y-122170000D01*
X132330000Y-122170000D01*
X131830000Y-122170000D01*
X131351400Y-122170000D01*
X131275200Y-122246200D01*
X128689800Y-122246200D01*
X128689800Y-122066200D01*
X128613600Y-121990000D01*
X128010000Y-121990000D01*
X127260000Y-121990000D01*
X126656400Y-121990000D01*
X126580200Y-122066200D01*
X125831600Y-122066200D01*
X125831600Y-121359371D01*
X131275200Y-121359371D01*
X131275200Y-121593800D01*
X131351400Y-121670000D01*
X131830000Y-121670000D01*
X131830000Y-121191400D01*
X132330000Y-121191400D01*
X132330000Y-121670000D01*
X132808600Y-121670000D01*
X132884800Y-121593800D01*
X132884800Y-121359371D01*
X132838397Y-121247344D01*
X132752655Y-121161603D01*
X132640628Y-121115200D01*
X132406200Y-121115200D01*
X132330000Y-121191400D01*
X131830000Y-121191400D01*
X131753800Y-121115200D01*
X131519372Y-121115200D01*
X131407345Y-121161603D01*
X131321603Y-121247344D01*
X131275200Y-121359371D01*
X125831600Y-121359371D01*
X125831600Y-119529372D01*
X126580200Y-119529372D01*
X126580200Y-120313800D01*
X126656400Y-120390000D01*
X127260000Y-120390000D01*
X127260000Y-119361400D01*
X128010000Y-119361400D01*
X128010000Y-120390000D01*
X128613600Y-120390000D01*
X128689800Y-120313800D01*
X128689800Y-119529372D01*
X128643397Y-119417345D01*
X128557656Y-119331603D01*
X128445629Y-119285200D01*
X128086200Y-119285200D01*
X128010000Y-119361400D01*
X127260000Y-119361400D01*
X127183800Y-119285200D01*
X126824371Y-119285200D01*
X126712344Y-119331603D01*
X126626603Y-119417345D01*
X126580200Y-119529372D01*
X125831600Y-119529372D01*
X125831600Y-118850322D01*
X125835724Y-118847566D01*
X126015000Y-118847566D01*
X126146777Y-118822770D01*
X126267807Y-118744890D01*
X126349001Y-118626058D01*
X126364539Y-118549330D01*
X126377230Y-118616777D01*
X126455110Y-118737807D01*
X126573942Y-118819001D01*
X126715000Y-118847566D01*
X126894276Y-118847566D01*
X126984515Y-118907862D01*
X127315000Y-118973600D01*
X129032000Y-118973600D01*
X129362485Y-118907862D01*
X129642657Y-118720657D01*
X129829862Y-118440485D01*
X129895600Y-118110000D01*
X130850781Y-118110000D01*
X130942552Y-118571363D01*
X131203893Y-118962488D01*
X131595018Y-119223829D01*
X132056381Y-119315600D01*
X132103619Y-119315600D01*
X132564982Y-119223829D01*
X132956107Y-118962488D01*
X133217448Y-118571363D01*
X133309219Y-118110000D01*
X133217448Y-117648637D01*
X132956107Y-117257512D01*
X132564982Y-116996171D01*
X132103619Y-116904400D01*
X132056381Y-116904400D01*
X131595018Y-116996171D01*
X131203893Y-117257512D01*
X130942552Y-117648637D01*
X130850781Y-118110000D01*
X129895600Y-118110000D01*
X129829862Y-117779515D01*
X129642657Y-117499343D01*
X129362485Y-117312138D01*
X129032000Y-117246400D01*
X127315000Y-117246400D01*
X126984515Y-117312138D01*
X126894276Y-117372434D01*
X126715000Y-117372434D01*
X126583223Y-117397230D01*
X126462193Y-117475110D01*
X126380999Y-117593942D01*
X126365461Y-117670670D01*
X126352770Y-117603223D01*
X126274890Y-117482193D01*
X126156058Y-117400999D01*
X126015000Y-117372434D01*
X125835724Y-117372434D01*
X125831600Y-117369678D01*
X125831600Y-114289000D01*
X126181934Y-114289000D01*
X126181934Y-116089000D01*
X126206730Y-116220777D01*
X126284610Y-116341807D01*
X126403442Y-116423001D01*
X126544500Y-116451566D01*
X128344500Y-116451566D01*
X128476277Y-116426770D01*
X128597307Y-116348890D01*
X128678501Y-116230058D01*
X128707066Y-116089000D01*
X128707066Y-116071200D01*
X130925200Y-116071200D01*
X130925200Y-116480629D01*
X130971603Y-116592656D01*
X131057345Y-116678397D01*
X131169372Y-116724800D01*
X131578800Y-116724800D01*
X131655000Y-116648600D01*
X131655000Y-115995000D01*
X132505000Y-115995000D01*
X132505000Y-116648600D01*
X132581200Y-116724800D01*
X132990628Y-116724800D01*
X133102655Y-116678397D01*
X133188397Y-116592656D01*
X133234800Y-116480629D01*
X133234800Y-116071200D01*
X133158600Y-115995000D01*
X132505000Y-115995000D01*
X131655000Y-115995000D01*
X131001400Y-115995000D01*
X130925200Y-116071200D01*
X128707066Y-116071200D01*
X128707066Y-114659371D01*
X130925200Y-114659371D01*
X130925200Y-115068800D01*
X131001400Y-115145000D01*
X131655000Y-115145000D01*
X131655000Y-114491400D01*
X132505000Y-114491400D01*
X132505000Y-115145000D01*
X133158600Y-115145000D01*
X133234800Y-115068800D01*
X133234800Y-114659371D01*
X133188397Y-114547344D01*
X133102655Y-114461603D01*
X132990628Y-114415200D01*
X132581200Y-114415200D01*
X132505000Y-114491400D01*
X131655000Y-114491400D01*
X131578800Y-114415200D01*
X131169372Y-114415200D01*
X131057345Y-114461603D01*
X130971603Y-114547344D01*
X130925200Y-114659371D01*
X128707066Y-114659371D01*
X128707066Y-114289000D01*
X128682270Y-114157223D01*
X128604390Y-114036193D01*
X128485558Y-113954999D01*
X128344500Y-113926434D01*
X126544500Y-113926434D01*
X126412723Y-113951230D01*
X126291693Y-114029110D01*
X126210499Y-114147942D01*
X126181934Y-114289000D01*
X125831600Y-114289000D01*
X125831600Y-112239000D01*
X126403049Y-112239000D01*
X126411005Y-112408299D01*
X126726671Y-112756659D01*
X126825208Y-112822451D01*
X126994500Y-112824006D01*
X126994500Y-112239000D01*
X127894500Y-112239000D01*
X127894500Y-112824006D01*
X128063792Y-112822451D01*
X128162329Y-112756659D01*
X128251094Y-112658700D01*
X129590200Y-112658700D01*
X129590200Y-112830629D01*
X129636603Y-112942656D01*
X129722345Y-113028397D01*
X129834372Y-113074800D01*
X130118800Y-113074800D01*
X130195000Y-112998600D01*
X130195000Y-112582500D01*
X130795000Y-112582500D01*
X130795000Y-112998600D01*
X130871200Y-113074800D01*
X131155628Y-113074800D01*
X131267655Y-113028397D01*
X131353397Y-112942656D01*
X131399800Y-112830629D01*
X131399800Y-112658700D01*
X131323600Y-112582500D01*
X130795000Y-112582500D01*
X130195000Y-112582500D01*
X129666400Y-112582500D01*
X129590200Y-112658700D01*
X128251094Y-112658700D01*
X128477995Y-112408299D01*
X128485951Y-112239000D01*
X127894500Y-112239000D01*
X126994500Y-112239000D01*
X126403049Y-112239000D01*
X125831600Y-112239000D01*
X125831600Y-111959371D01*
X129590200Y-111959371D01*
X129590200Y-112131300D01*
X129666400Y-112207500D01*
X130195000Y-112207500D01*
X130195000Y-111791400D01*
X130795000Y-111791400D01*
X130795000Y-112207500D01*
X131323600Y-112207500D01*
X131399800Y-112131300D01*
X131399800Y-112020000D01*
X131432434Y-112020000D01*
X131432434Y-112770000D01*
X131457230Y-112901777D01*
X131535110Y-113022807D01*
X131653942Y-113104001D01*
X131795000Y-113132566D01*
X132995000Y-113132566D01*
X133126777Y-113107770D01*
X133247807Y-113029890D01*
X133329001Y-112911058D01*
X133357566Y-112770000D01*
X133357566Y-112020000D01*
X133332770Y-111888223D01*
X133254890Y-111767193D01*
X133136058Y-111685999D01*
X133062982Y-111671201D01*
X133070472Y-111653162D01*
X133070728Y-111360124D01*
X132958823Y-111089295D01*
X132751795Y-110881905D01*
X132481162Y-110769528D01*
X132188124Y-110769272D01*
X131917295Y-110881177D01*
X131709905Y-111088205D01*
X131597528Y-111358838D01*
X131597272Y-111651876D01*
X131621032Y-111709379D01*
X131542193Y-111760110D01*
X131460999Y-111878942D01*
X131432434Y-112020000D01*
X131399800Y-112020000D01*
X131399800Y-111959371D01*
X131353397Y-111847344D01*
X131267655Y-111761603D01*
X131155628Y-111715200D01*
X130871200Y-111715200D01*
X130795000Y-111791400D01*
X130195000Y-111791400D01*
X130118800Y-111715200D01*
X129834372Y-111715200D01*
X129722345Y-111761603D01*
X129636603Y-111847344D01*
X129590200Y-111959371D01*
X125831600Y-111959371D01*
X125831600Y-110591600D01*
X126276098Y-110591600D01*
X126276098Y-110889000D01*
X126276098Y-110889000D01*
G37*
X126276098Y-110889000D02*
X126665362Y-110889000D01*
X126411005Y-111169701D01*
X126403049Y-111339000D01*
X126994500Y-111339000D01*
X126994500Y-110889000D01*
X127894500Y-110889000D01*
X127894500Y-111339000D01*
X128485951Y-111339000D01*
X128477995Y-111169701D01*
X128223638Y-110889000D01*
X128612902Y-110889000D01*
X128612902Y-110591600D01*
X133554400Y-110591600D01*
X133554400Y-127839400D01*
X125831600Y-127839400D01*
X125831600Y-123590000D01*
X126522434Y-123590000D01*
X126522434Y-126790000D01*
X126547230Y-126921777D01*
X126625110Y-127042807D01*
X126743942Y-127124001D01*
X126885000Y-127152566D01*
X128385000Y-127152566D01*
X128516777Y-127127770D01*
X128637807Y-127049890D01*
X128719001Y-126931058D01*
X128747566Y-126790000D01*
X128747566Y-126053600D01*
X129633126Y-126053600D01*
X129794000Y-126085600D01*
X130124486Y-126019862D01*
X130404658Y-125832658D01*
X130591862Y-125552486D01*
X130657600Y-125222000D01*
X130591862Y-124891515D01*
X130404658Y-124611343D01*
X130372657Y-124579343D01*
X130092485Y-124392138D01*
X129762000Y-124326400D01*
X128747566Y-124326400D01*
X128747566Y-123690000D01*
X130911598Y-123690000D01*
X130911598Y-123994800D01*
X131364825Y-123994800D01*
X131272767Y-124132576D01*
X131207638Y-124460000D01*
X131272767Y-124787424D01*
X131458237Y-125065001D01*
X131503134Y-125095000D01*
X131458237Y-125124999D01*
X131272767Y-125402576D01*
X131207638Y-125730000D01*
X131272767Y-126057424D01*
X131458237Y-126335001D01*
X131735814Y-126520471D01*
X132063238Y-126585600D01*
X132096762Y-126585600D01*
X132424186Y-126520471D01*
X132701763Y-126335001D01*
X132887233Y-126057424D01*
X132952362Y-125730000D01*
X132887233Y-125402576D01*
X132701763Y-125124999D01*
X132656866Y-125095000D01*
X132701763Y-125065001D01*
X132887233Y-124787424D01*
X132952362Y-124460000D01*
X132887233Y-124132576D01*
X132795175Y-123994800D01*
X133248402Y-123994800D01*
X133248402Y-123690000D01*
X132707353Y-123690000D01*
X132796459Y-123556592D01*
X132764367Y-123440000D01*
X132330000Y-123440000D01*
X132330000Y-123650794D01*
X132096762Y-123604400D01*
X132063238Y-123604400D01*
X131830000Y-123650794D01*
X131830000Y-123440000D01*
X131395633Y-123440000D01*
X131363541Y-123556592D01*
X131452647Y-123690000D01*
X130911598Y-123690000D01*
X128747566Y-123690000D01*
X128747566Y-123590000D01*
X128722770Y-123458223D01*
X128644890Y-123337193D01*
X128526058Y-123255999D01*
X128385000Y-123227434D01*
X126885000Y-123227434D01*
X126753223Y-123252230D01*
X126632193Y-123330110D01*
X126550999Y-123448942D01*
X126522434Y-123590000D01*
X125831600Y-123590000D01*
X125831600Y-122066200D01*
X126580200Y-122066200D01*
X126580200Y-122850628D01*
X126626603Y-122962655D01*
X126712344Y-123048397D01*
X126824371Y-123094800D01*
X127183800Y-123094800D01*
X127260000Y-123018600D01*
X127260000Y-121990000D01*
X128010000Y-121990000D01*
X128010000Y-123018600D01*
X128086200Y-123094800D01*
X128445629Y-123094800D01*
X128557656Y-123048397D01*
X128643397Y-122962655D01*
X128689800Y-122850628D01*
X128689800Y-122246200D01*
X131275200Y-122246200D01*
X131275200Y-122480629D01*
X131321603Y-122592656D01*
X131407345Y-122678397D01*
X131448900Y-122695610D01*
X131363541Y-122823408D01*
X131395633Y-122940000D01*
X131830000Y-122940000D01*
X131830000Y-122170000D01*
X132330000Y-122170000D01*
X132330000Y-122940000D01*
X132764367Y-122940000D01*
X132796459Y-122823408D01*
X132711100Y-122695610D01*
X132752655Y-122678397D01*
X132838397Y-122592656D01*
X132884800Y-122480629D01*
X132884800Y-122246200D01*
X132808600Y-122170000D01*
X132330000Y-122170000D01*
X131830000Y-122170000D01*
X131351400Y-122170000D01*
X131275200Y-122246200D01*
X128689800Y-122246200D01*
X128689800Y-122066200D01*
X128613600Y-121990000D01*
X128010000Y-121990000D01*
X127260000Y-121990000D01*
X126656400Y-121990000D01*
X126580200Y-122066200D01*
X125831600Y-122066200D01*
X125831600Y-121359371D01*
X131275200Y-121359371D01*
X131275200Y-121593800D01*
X131351400Y-121670000D01*
X131830000Y-121670000D01*
X131830000Y-121191400D01*
X132330000Y-121191400D01*
X132330000Y-121670000D01*
X132808600Y-121670000D01*
X132884800Y-121593800D01*
X132884800Y-121359371D01*
X132838397Y-121247344D01*
X132752655Y-121161603D01*
X132640628Y-121115200D01*
X132406200Y-121115200D01*
X132330000Y-121191400D01*
X131830000Y-121191400D01*
X131753800Y-121115200D01*
X131519372Y-121115200D01*
X131407345Y-121161603D01*
X131321603Y-121247344D01*
X131275200Y-121359371D01*
X125831600Y-121359371D01*
X125831600Y-119529372D01*
X126580200Y-119529372D01*
X126580200Y-120313800D01*
X126656400Y-120390000D01*
X127260000Y-120390000D01*
X127260000Y-119361400D01*
X128010000Y-119361400D01*
X128010000Y-120390000D01*
X128613600Y-120390000D01*
X128689800Y-120313800D01*
X128689800Y-119529372D01*
X128643397Y-119417345D01*
X128557656Y-119331603D01*
X128445629Y-119285200D01*
X128086200Y-119285200D01*
X128010000Y-119361400D01*
X127260000Y-119361400D01*
X127183800Y-119285200D01*
X126824371Y-119285200D01*
X126712344Y-119331603D01*
X126626603Y-119417345D01*
X126580200Y-119529372D01*
X125831600Y-119529372D01*
X125831600Y-118850322D01*
X125835724Y-118847566D01*
X126015000Y-118847566D01*
X126146777Y-118822770D01*
X126267807Y-118744890D01*
X126349001Y-118626058D01*
X126364539Y-118549330D01*
X126377230Y-118616777D01*
X126455110Y-118737807D01*
X126573942Y-118819001D01*
X126715000Y-118847566D01*
X126894276Y-118847566D01*
X126984515Y-118907862D01*
X127315000Y-118973600D01*
X129032000Y-118973600D01*
X129362485Y-118907862D01*
X129642657Y-118720657D01*
X129829862Y-118440485D01*
X129895600Y-118110000D01*
X130850781Y-118110000D01*
X130942552Y-118571363D01*
X131203893Y-118962488D01*
X131595018Y-119223829D01*
X132056381Y-119315600D01*
X132103619Y-119315600D01*
X132564982Y-119223829D01*
X132956107Y-118962488D01*
X133217448Y-118571363D01*
X133309219Y-118110000D01*
X133217448Y-117648637D01*
X132956107Y-117257512D01*
X132564982Y-116996171D01*
X132103619Y-116904400D01*
X132056381Y-116904400D01*
X131595018Y-116996171D01*
X131203893Y-117257512D01*
X130942552Y-117648637D01*
X130850781Y-118110000D01*
X129895600Y-118110000D01*
X129829862Y-117779515D01*
X129642657Y-117499343D01*
X129362485Y-117312138D01*
X129032000Y-117246400D01*
X127315000Y-117246400D01*
X126984515Y-117312138D01*
X126894276Y-117372434D01*
X126715000Y-117372434D01*
X126583223Y-117397230D01*
X126462193Y-117475110D01*
X126380999Y-117593942D01*
X126365461Y-117670670D01*
X126352770Y-117603223D01*
X126274890Y-117482193D01*
X126156058Y-117400999D01*
X126015000Y-117372434D01*
X125835724Y-117372434D01*
X125831600Y-117369678D01*
X125831600Y-114289000D01*
X126181934Y-114289000D01*
X126181934Y-116089000D01*
X126206730Y-116220777D01*
X126284610Y-116341807D01*
X126403442Y-116423001D01*
X126544500Y-116451566D01*
X128344500Y-116451566D01*
X128476277Y-116426770D01*
X128597307Y-116348890D01*
X128678501Y-116230058D01*
X128707066Y-116089000D01*
X128707066Y-116071200D01*
X130925200Y-116071200D01*
X130925200Y-116480629D01*
X130971603Y-116592656D01*
X131057345Y-116678397D01*
X131169372Y-116724800D01*
X131578800Y-116724800D01*
X131655000Y-116648600D01*
X131655000Y-115995000D01*
X132505000Y-115995000D01*
X132505000Y-116648600D01*
X132581200Y-116724800D01*
X132990628Y-116724800D01*
X133102655Y-116678397D01*
X133188397Y-116592656D01*
X133234800Y-116480629D01*
X133234800Y-116071200D01*
X133158600Y-115995000D01*
X132505000Y-115995000D01*
X131655000Y-115995000D01*
X131001400Y-115995000D01*
X130925200Y-116071200D01*
X128707066Y-116071200D01*
X128707066Y-114659371D01*
X130925200Y-114659371D01*
X130925200Y-115068800D01*
X131001400Y-115145000D01*
X131655000Y-115145000D01*
X131655000Y-114491400D01*
X132505000Y-114491400D01*
X132505000Y-115145000D01*
X133158600Y-115145000D01*
X133234800Y-115068800D01*
X133234800Y-114659371D01*
X133188397Y-114547344D01*
X133102655Y-114461603D01*
X132990628Y-114415200D01*
X132581200Y-114415200D01*
X132505000Y-114491400D01*
X131655000Y-114491400D01*
X131578800Y-114415200D01*
X131169372Y-114415200D01*
X131057345Y-114461603D01*
X130971603Y-114547344D01*
X130925200Y-114659371D01*
X128707066Y-114659371D01*
X128707066Y-114289000D01*
X128682270Y-114157223D01*
X128604390Y-114036193D01*
X128485558Y-113954999D01*
X128344500Y-113926434D01*
X126544500Y-113926434D01*
X126412723Y-113951230D01*
X126291693Y-114029110D01*
X126210499Y-114147942D01*
X126181934Y-114289000D01*
X125831600Y-114289000D01*
X125831600Y-112239000D01*
X126403049Y-112239000D01*
X126411005Y-112408299D01*
X126726671Y-112756659D01*
X126825208Y-112822451D01*
X126994500Y-112824006D01*
X126994500Y-112239000D01*
X127894500Y-112239000D01*
X127894500Y-112824006D01*
X128063792Y-112822451D01*
X128162329Y-112756659D01*
X128251094Y-112658700D01*
X129590200Y-112658700D01*
X129590200Y-112830629D01*
X129636603Y-112942656D01*
X129722345Y-113028397D01*
X129834372Y-113074800D01*
X130118800Y-113074800D01*
X130195000Y-112998600D01*
X130195000Y-112582500D01*
X130795000Y-112582500D01*
X130795000Y-112998600D01*
X130871200Y-113074800D01*
X131155628Y-113074800D01*
X131267655Y-113028397D01*
X131353397Y-112942656D01*
X131399800Y-112830629D01*
X131399800Y-112658700D01*
X131323600Y-112582500D01*
X130795000Y-112582500D01*
X130195000Y-112582500D01*
X129666400Y-112582500D01*
X129590200Y-112658700D01*
X128251094Y-112658700D01*
X128477995Y-112408299D01*
X128485951Y-112239000D01*
X127894500Y-112239000D01*
X126994500Y-112239000D01*
X126403049Y-112239000D01*
X125831600Y-112239000D01*
X125831600Y-111959371D01*
X129590200Y-111959371D01*
X129590200Y-112131300D01*
X129666400Y-112207500D01*
X130195000Y-112207500D01*
X130195000Y-111791400D01*
X130795000Y-111791400D01*
X130795000Y-112207500D01*
X131323600Y-112207500D01*
X131399800Y-112131300D01*
X131399800Y-112020000D01*
X131432434Y-112020000D01*
X131432434Y-112770000D01*
X131457230Y-112901777D01*
X131535110Y-113022807D01*
X131653942Y-113104001D01*
X131795000Y-113132566D01*
X132995000Y-113132566D01*
X133126777Y-113107770D01*
X133247807Y-113029890D01*
X133329001Y-112911058D01*
X133357566Y-112770000D01*
X133357566Y-112020000D01*
X133332770Y-111888223D01*
X133254890Y-111767193D01*
X133136058Y-111685999D01*
X133062982Y-111671201D01*
X133070472Y-111653162D01*
X133070728Y-111360124D01*
X132958823Y-111089295D01*
X132751795Y-110881905D01*
X132481162Y-110769528D01*
X132188124Y-110769272D01*
X131917295Y-110881177D01*
X131709905Y-111088205D01*
X131597528Y-111358838D01*
X131597272Y-111651876D01*
X131621032Y-111709379D01*
X131542193Y-111760110D01*
X131460999Y-111878942D01*
X131432434Y-112020000D01*
X131399800Y-112020000D01*
X131399800Y-111959371D01*
X131353397Y-111847344D01*
X131267655Y-111761603D01*
X131155628Y-111715200D01*
X130871200Y-111715200D01*
X130795000Y-111791400D01*
X130195000Y-111791400D01*
X130118800Y-111715200D01*
X129834372Y-111715200D01*
X129722345Y-111761603D01*
X129636603Y-111847344D01*
X129590200Y-111959371D01*
X125831600Y-111959371D01*
X125831600Y-110591600D01*
X126276098Y-110591600D01*
X126276098Y-110889000D01*
M02*
