M48
;DRILL file {KiCad 4.0.7-e2-6376~58~ubuntu16.04.1} date Wed Jan 31 22:38:58 2018
;FORMAT={3:3/ absolute / metric / suppress leading zeros}
FMAT,2
METRIC,TZ
T1C0.508
T2C0.650
T3C1.000
T4C3.500
%
G90
G05
M71
T1
X92710Y-126746
X94742Y-117348
X95250Y-126746
X105410Y-118110
X115062Y-118110
X119380Y-118110
X124460Y-105410
X125476Y-98298
X129032Y-118110
X129794Y-98298
X129794Y-125222
X132334Y-111506
T2
X95885Y-95885
X95885Y-97155
X95885Y-98425
X95885Y-99695
X132080Y-96520
X132080Y-97790
X132080Y-99060
X132080Y-100330
X132080Y-121920
X132080Y-123190
X132080Y-124460
X132080Y-125730
T3
X92075Y-96520
X92075Y-99060
X109774Y-110026
X109774Y-113426
X113474Y-108326
X113474Y-111726
X113474Y-115126
X123744Y-110089
X123744Y-113489
X127444Y-108389
X127444Y-111789
X127444Y-115189
X132080Y-104140
X132080Y-106680
X132080Y-115570
X132080Y-118110
T4
X104140Y-99060
X104140Y-124460
X118110Y-99060
X118110Y-124460
T3
X94330Y-108220G85X94330Y-110220
G05
X96330Y-113920G85X98330Y-113920
G05
X100330Y-108220G85X100330Y-110220
G05
T0
M30
