M48
;DRILL file {KiCad 4.0.7-e2-6376~58~ubuntu16.04.1} date Fri Dec 29 21:47:42 2017
;FORMAT={-:-/ absolute / inch / decimal}
FMAT,2
INCH,TZ
T1C0.016
T2C0.020
T3C0.024
T4C0.031
T5C0.039
T6C0.052
T7C0.055
T8C0.059
T9C0.138
%
G90
G05
M72
T1
X3.5039Y-3.0906
X3.5039Y-3.1496
X3.5039Y-3.248
X3.5039Y-3.3071
X3.563Y-3.0906
X3.563Y-3.3071
X3.622Y-3.0906
X3.622Y-3.1496
X3.622Y-3.248
X3.622Y-3.3071
X3.6614Y-2.5984
X3.6614Y-2.6772
X3.6811Y-3.0906
X3.6811Y-3.1496
X3.6811Y-3.248
X3.6811Y-3.3071
X3.7008Y-2.8307
X3.7598Y-2.3425
X3.7795Y-3.811
X3.7992Y-3.0906
X3.8189Y-2.874
X3.8189Y-2.9528
X3.8189Y-3.0315
X3.8583Y-2.5984
X3.9764Y-2.9528
X4.0157Y-2.7795
X4.0157Y-2.8307
X4.0157Y-2.9921
X4.0354Y-2.5591
X4.0354Y-2.9528
X4.0394Y-3.811
X4.0472Y-2.6811
X4.0551Y-3.2874
X4.077Y-3.2008
X4.126Y-3.4961
X4.1339Y-3.9862
X4.1417Y-3.315
X4.1575Y-3.0866
X4.1732Y-2.3622
X4.2047Y-3.0866
X4.2126Y-3.3465
X4.252Y-2.3622
X4.2598Y-3.0866
X4.2618Y-3.1398
X4.2618Y-3.3465
X4.277Y-3.5262
X4.2992Y-3.0866
X4.2992Y-3.3465
X4.3307Y-3.0866
X4.4094Y-2.7126
X4.4252Y-3.6457
X4.4252Y-3.7638
X4.4685Y-2.7126
X4.4882Y-3.8583
X4.5276Y-2.7126
X4.5276Y-3.6417
X4.5472Y-3.7795
X4.5669Y-3.8583
X4.626Y-2.1063
X4.626Y-2.1555
X4.626Y-2.2047
X4.6457Y-2.6929
X4.7638Y-2.6929
X4.7795Y-3.126
X4.7874Y-3.7559
X4.813Y-2.1063
X4.813Y-2.1555
X4.813Y-2.2047
X4.8268Y-3.3622
X4.8346Y-3.7559
X4.8346Y-3.874
X4.937Y-3.8898
X4.937Y-3.937
X4.9606Y-3.1299
X4.9606Y-3.3268
X5.Y-3.4646
X5.Y-3.5433
X5.Y-3.622
X5.0394Y-2.8346
X5.0689Y-3.8681
X5.1969Y-2.5984
X5.2067Y-2.7165
X5.2756Y-2.5984
X5.3543Y-2.3425
X5.3543Y-2.5394
X5.6102Y-3.3071
X5.6693Y-3.3071
X6.0039Y-2.4409
X6.0433Y-2.4409
X6.0433Y-3.0906
X6.0433Y-3.1693
X6.0433Y-3.3268
X6.0433Y-3.3858
X6.122Y-3.8583
X6.1614Y-3.8583
X6.2205Y-2.7362
X6.2402Y-3.0118
X6.2402Y-3.3858
T2
X3.8287Y-3.878
X3.878Y-3.878
X3.9272Y-3.878
X3.9764Y-3.878
X4.2028Y-3.878
X4.252Y-3.878
X4.3012Y-3.878
X4.3504Y-3.878
T3
X3.5039Y-2.4409
X3.5539Y-2.4409
X3.6039Y-2.4409
T4
X3.5827Y-3.4252
X3.5827Y-3.5039
X3.5827Y-3.5827
X3.5827Y-3.6614
X3.5827Y-3.7402
T5
X4.5669Y-2.4409
X4.6169Y-2.2953
X4.6669Y-2.4409
X4.7169Y-2.2953
X4.7669Y-2.4409
X4.8169Y-2.2953
X4.8669Y-2.4409
X5.1969Y-3.5039
X5.2969Y-3.5039
X5.3969Y-3.5039
X5.4969Y-3.5039
X5.6102Y-2.6181
X5.7102Y-2.6181
X5.7362Y-2.7756
X5.7362Y-3.4843
X5.8031Y-2.9213
X5.8031Y-3.6299
X5.8701Y-2.7756
X5.8701Y-3.4843
X5.937Y-2.9213
X5.937Y-3.6299
X6.0039Y-2.7756
X6.0039Y-3.4843
X6.3386Y-2.815
X6.3386Y-3.5039
X6.4386Y-2.815
X6.4386Y-3.5039
T7
X4.5276Y-1.8898
X4.9276Y-1.8898
T8
X5.5512Y-2.0079
X6.4173Y-2.0079
T9
X4.2244Y-2.0472
X5.2244Y-2.0472
X5.3661Y-3.1496
X5.3661Y-3.8583
X6.3661Y-3.1496
X6.3661Y-3.8583
T5
X6.1811Y-2.5591G85X6.1811Y-2.4803
G05
X6.3386Y-2.3346G85X6.2598Y-2.3346
G05
X6.4173Y-2.5591G85X6.4173Y-2.4803
G05
T6
X3.5433Y-2.0299G85X3.5433Y-2.0646
G05
X3.7402Y-2.0299G85X3.7402Y-2.0646
G05
T0
M30
