G04 #@! TF.FileFunction,Paste,Top*
%FSLAX46Y46*%
G04 Gerber Fmt 4.6, Leading zero omitted, Abs format (unit mm)*
G04 Created by KiCad (PCBNEW 4.0.7-e2-6376~58~ubuntu16.04.1) date Fri Dec 29 21:47:46 2017*
%MOMM*%
%LPD*%
G01*
G04 APERTURE LIST*
%ADD10C,0.100000*%
%ADD11R,1.500000X1.950000*%
%ADD12R,0.600000X2.000000*%
%ADD13R,0.750000X1.200000*%
%ADD14R,1.200000X0.750000*%
%ADD15R,1.950000X1.500000*%
%ADD16R,0.800000X0.800000*%
%ADD17R,1.980000X3.960000*%
%ADD18O,1.980000X3.960000*%
%ADD19R,0.900000X1.200000*%
%ADD20R,1.200000X0.900000*%
%ADD21R,1.300000X1.500000*%
%ADD22R,1.300000X1.550000*%
%ADD23R,1.450000X0.450000*%
%ADD24R,0.600000X1.550000*%
%ADD25R,1.550000X0.600000*%
%ADD26R,0.450000X1.450000*%
G04 APERTURE END LIST*
D10*
D11*
X95500000Y-63875000D03*
X95500000Y-61125000D03*
D12*
X116255000Y-81300000D03*
X114985000Y-81300000D03*
X113715000Y-81300000D03*
X112445000Y-81300000D03*
X111175000Y-81300000D03*
X109905000Y-81300000D03*
X108635000Y-81300000D03*
X107365000Y-81300000D03*
X106095000Y-81300000D03*
X104825000Y-81300000D03*
X103555000Y-81300000D03*
X102285000Y-81300000D03*
X101015000Y-81300000D03*
X99745000Y-81300000D03*
X99745000Y-90700000D03*
X101015000Y-90700000D03*
X102285000Y-90700000D03*
X103555000Y-90700000D03*
X104825000Y-90700000D03*
X106095000Y-90700000D03*
X107365000Y-90700000D03*
X108635000Y-90700000D03*
X109905000Y-90700000D03*
X111175000Y-90700000D03*
X112445000Y-90700000D03*
X113715000Y-90700000D03*
X114985000Y-90700000D03*
X116255000Y-90700000D03*
D13*
X117000000Y-99950000D03*
X117000000Y-98050000D03*
D14*
X99050000Y-76000000D03*
X100950000Y-76000000D03*
D13*
X115000000Y-99950000D03*
X115000000Y-98050000D03*
D14*
X99050000Y-74000000D03*
X100950000Y-74000000D03*
D11*
X126500000Y-96625000D03*
X126500000Y-99375000D03*
D14*
X104050000Y-61000000D03*
X105950000Y-61000000D03*
D15*
X109625000Y-94000000D03*
X112375000Y-94000000D03*
D14*
X104200000Y-74000000D03*
X102300000Y-74000000D03*
X109950000Y-61000000D03*
X108050000Y-61000000D03*
X130050000Y-65000000D03*
X131950000Y-65000000D03*
X135950000Y-65000000D03*
X134050000Y-65000000D03*
X130950000Y-72000000D03*
X129050000Y-72000000D03*
X95050000Y-74000000D03*
X96950000Y-74000000D03*
X151550000Y-65500000D03*
X153450000Y-65500000D03*
X151550000Y-63500000D03*
X153450000Y-63500000D03*
D11*
X155500000Y-74625000D03*
X155500000Y-77375000D03*
D15*
X145875000Y-82500000D03*
X143125000Y-82500000D03*
D11*
X155500000Y-92625000D03*
X155500000Y-95375000D03*
D15*
X151625000Y-82500000D03*
X154375000Y-82500000D03*
D16*
X124200000Y-92000000D03*
X125800000Y-92000000D03*
X124200000Y-90000000D03*
X125800000Y-90000000D03*
X102500000Y-94200000D03*
X102500000Y-95800000D03*
X96000000Y-94200000D03*
X96000000Y-95800000D03*
X124200000Y-88000000D03*
X125800000Y-88000000D03*
D17*
X90000000Y-52000000D03*
D18*
X95000000Y-52000000D03*
D19*
X115000000Y-93900000D03*
X115000000Y-96100000D03*
D20*
X101100000Y-66000000D03*
X98900000Y-66000000D03*
D19*
X117000000Y-93900000D03*
X117000000Y-96100000D03*
D20*
X101100000Y-64000000D03*
X98900000Y-64000000D03*
D19*
X118600000Y-80100000D03*
X118600000Y-77900000D03*
X115000000Y-67600000D03*
X115000000Y-65400000D03*
X113500000Y-63100000D03*
X113500000Y-60900000D03*
X113500000Y-67600000D03*
X113500000Y-65400000D03*
X112000000Y-67600000D03*
X112000000Y-65400000D03*
D20*
X119900000Y-92000000D03*
X122100000Y-92000000D03*
X119900000Y-90000000D03*
X122100000Y-90000000D03*
D19*
X104250000Y-95600000D03*
X104250000Y-93400000D03*
X106250000Y-95600000D03*
X106250000Y-93400000D03*
D21*
X146000000Y-59650000D03*
X146000000Y-62350000D03*
X144000000Y-59650000D03*
X144000000Y-62350000D03*
X142000000Y-59650000D03*
X142000000Y-62350000D03*
X140000000Y-59650000D03*
X140000000Y-62350000D03*
X138000000Y-59650000D03*
X138000000Y-62350000D03*
X136000000Y-59650000D03*
X136000000Y-62350000D03*
X134000000Y-59650000D03*
X134000000Y-62350000D03*
X132000000Y-59650000D03*
X132000000Y-62350000D03*
X130000000Y-59650000D03*
X130000000Y-62350000D03*
X128000000Y-59650000D03*
X128000000Y-62350000D03*
D20*
X89900000Y-68000000D03*
X92100000Y-68000000D03*
X89900000Y-66000000D03*
X92100000Y-66000000D03*
X132900000Y-72000000D03*
X135100000Y-72000000D03*
X89900000Y-70000000D03*
X92100000Y-70000000D03*
X94900000Y-76000000D03*
X97100000Y-76000000D03*
X89900000Y-72000000D03*
X92100000Y-72000000D03*
X89900000Y-74000000D03*
X92100000Y-74000000D03*
X89900000Y-76000000D03*
X92100000Y-76000000D03*
D19*
X155500000Y-72100000D03*
X155500000Y-69900000D03*
X155500000Y-90100000D03*
X155500000Y-87900000D03*
X121000000Y-64900000D03*
X121000000Y-67100000D03*
X118000000Y-64900000D03*
X118000000Y-67100000D03*
X90500000Y-80400000D03*
X90500000Y-82600000D03*
D20*
X125700000Y-73600000D03*
X123500000Y-73600000D03*
D19*
X101000000Y-93400000D03*
X101000000Y-95600000D03*
X97750000Y-93400000D03*
X97750000Y-95600000D03*
D20*
X119900000Y-88000000D03*
X122100000Y-88000000D03*
D22*
X125850000Y-78025000D03*
X125850000Y-85975000D03*
X121350000Y-78025000D03*
X121350000Y-85975000D03*
D23*
X104050000Y-63025000D03*
X104050000Y-63675000D03*
X104050000Y-64325000D03*
X104050000Y-64975000D03*
X109950000Y-64975000D03*
X109950000Y-64325000D03*
X109950000Y-63675000D03*
X109950000Y-63025000D03*
D24*
X119095000Y-99700000D03*
X120365000Y-99700000D03*
X121635000Y-99700000D03*
X122905000Y-99700000D03*
X122905000Y-94300000D03*
X121635000Y-94300000D03*
X120365000Y-94300000D03*
X119095000Y-94300000D03*
D25*
X95300000Y-68095000D03*
X95300000Y-69365000D03*
X95300000Y-70635000D03*
X95300000Y-71905000D03*
X100700000Y-71905000D03*
X100700000Y-70635000D03*
X100700000Y-69365000D03*
X100700000Y-68095000D03*
X109700000Y-71905000D03*
X109700000Y-70635000D03*
X109700000Y-69365000D03*
X109700000Y-68095000D03*
X104300000Y-68095000D03*
X104300000Y-69365000D03*
X104300000Y-70635000D03*
X104300000Y-71905000D03*
D26*
X124025000Y-70700000D03*
X124675000Y-70700000D03*
X125325000Y-70700000D03*
X125975000Y-70700000D03*
X125975000Y-66300000D03*
X125325000Y-66300000D03*
X124675000Y-66300000D03*
X124025000Y-66300000D03*
D23*
X130800000Y-67025000D03*
X130800000Y-67675000D03*
X130800000Y-68325000D03*
X130800000Y-68975000D03*
X135200000Y-68975000D03*
X135200000Y-68325000D03*
X135200000Y-67675000D03*
X135200000Y-67025000D03*
M02*
